<?xml version="1.0" encoding="utf-8"?>
<!-- Generator: Adobe Illustrator 24.3.0, SVG Export Plug-In . SVG Version: 6.00 Build 0)  -->
<svg version="1.1" xmlns="http://www.w3.org/2000/svg" xmlns:xlink="http://www.w3.org/1999/xlink" x="0px" y="0px"
	 viewBox="0 0 830 830" style="enable-background:new 0 0 830 830;" xml:space="preserve">
<style type="text/css">
	.st0{display:none;}
	.st1{display:inline;fill:#231815;}
	.st2{display:inline;}
	.st3{fill:#231815;}
	.st4{fill:#FFFFFF;}
	.st5{fill:#7758C1;}
	.st6{display:inline;fill:#FFFFFF;}
	.st7{fill:#6E6E6E;}
	.st8{display:inline;fill:#7758C1;}
</style>
<g id="背景" class="st0">
	<rect y="0" class="st1" width="830" height="830"/>
</g>
<g id="枠_x28_参考_x29_" class="st0">
	<g class="st2">
		<path class="st3" d="M814,16v798H16V16H814 M815,15H15v800h800V15L815,15z"/>
	</g>
</g>
<g id="_x2460_ルーター1" class="st0">
	<g class="st2">
		<path class="st4" d="M415,136.48c-59.53,0-116.61,11.37-165.08,32.88c-23.6,10.47-44.5,23.09-62.14,37.49
			c-18.15,14.82-32.49,31.27-42.62,48.88c-8.28,14.38-27.65,48.05-27.65,92.5v180.5c0,0.7,0.06,1.4,0.17,2.1
			c2.53,15.47,7.97,27.21,12.42,35.71l0,0c0.98,1.7,19.65,33.1,65.17,64.26c25.97,17.78,55.51,31.92,87.8,42.04
			c40.02,12.54,84.41,18.9,131.93,18.9c47.5,0,91.88-6.36,131.9-18.9c32.28-10.12,61.83-24.26,87.8-42.04
			c46.44-31.78,65.07-63.98,65.23-64.28c4.41-8.41,9.8-20.04,12.35-35.36c0.15-0.79,0.23-1.6,0.23-2.41l-0.01-180.5
			c0-44.45-19.38-78.12-27.65-92.5c-10.14-17.61-24.48-34.06-42.62-48.88c-17.63-14.41-38.54-27.02-62.14-37.49
			C531.61,147.85,474.52,136.48,415,136.48L415,136.48z"/>
	</g>
	<g class="st2">
		<path class="st5" d="M415,501.93c-143.79,0-262.98-67.33-284.49-154.94v181.77c2.23,13.62,7.09,24.11,11.1,31.77
			c0.62,1.19,70.94,118.23,273.39,118.23c202.37,0,272.78-117.05,273.4-118.23c4.01-7.66,8.88-18.14,11.1-31.77V346.95
			C678.01,434.59,558.81,501.93,415,501.93z"/>
		<path class="st5" d="M415,149.47c-151.24,0-274.29,75.92-274.29,169.23S263.76,487.93,415,487.93s274.29-75.92,274.29-169.23
			S566.24,149.47,415,149.47z M216.63,285.29l9.75-25.43l88.25,16.53l11.28-29.42l62.38,57.13l-94.89,27.67l11.48-29.95
			L216.63,285.29z M481.22,439.97l-36.38,6.81l-23.65-61.69l-42.85,8.02l39.59-66.32l81.73,43.6l-42.09,7.88L481.22,439.97z
			 M544.67,279.57l-31.09-21.73l-65.31,45.65l-26.63-18.61l65.31-45.65l-31.09-21.73l101.97-9.2L544.67,279.57z"/>
	</g>
</g>
<g id="_x2461_ルーター2" class="st0">
	<g class="st2">
		<path class="st4" d="M415,136.48c-59.53,0-116.61,11.37-165.08,32.88c-23.6,10.47-44.5,23.09-62.14,37.49
			c-18.15,14.82-32.49,31.27-42.62,48.88c-8.28,14.38-27.65,48.05-27.65,92.5v180.5c0,0.7,0.06,1.4,0.17,2.1
			c2.53,15.47,7.97,27.21,12.42,35.71l0,0c0.98,1.7,19.65,33.1,65.17,64.26c25.97,17.78,55.51,31.92,87.8,42.04
			c40.02,12.54,84.41,18.9,131.93,18.9c47.5,0,91.88-6.36,131.9-18.9c32.28-10.12,61.83-24.26,87.8-42.04
			c46.44-31.78,65.07-63.98,65.23-64.28c4.41-8.41,9.8-20.04,12.35-35.36c0.15-0.79,0.23-1.6,0.23-2.41l-0.01-180.5
			c0-44.45-19.38-78.12-27.65-92.5c-10.14-17.61-24.48-34.06-42.62-48.88c-17.63-14.41-38.54-27.02-62.14-37.49
			C531.61,147.85,474.52,136.48,415,136.48L415,136.48z"/>
	</g>
	<g class="st2">
		<path class="st5" d="M415,501.93c-143.79,0-262.98-67.33-284.49-154.94v181.77c2.23,13.62,7.09,24.11,11.1,31.77
			c0.62,1.19,70.94,118.23,273.39,118.23c202.46,0,272.78-117.04,273.4-118.22c4.01-7.67,8.88-18.15,11.1-31.78V346.95
			C678.01,434.59,558.81,501.93,415,501.93z"/>
		<path class="st5" d="M415,149.47c-151.24,0-274.29,75.92-274.29,169.23S263.76,487.93,415,487.93s274.29-75.92,274.29-169.23
			S566.24,149.47,415,149.47z M279.03,328.95l-62.41-57.09l94.87-27.73l-11.46,29.95l88.26,16.48L378.56,316l-88.26-16.48
			L279.03,328.95z M481.22,439.97l-36.38,6.81l-23.65-61.69l-42.85,8.02l39.59-66.32l81.73,43.6l-42.09,7.88L481.22,439.97z
			 M544.67,279.57l-31.09-21.73l-65.31,45.65l-26.63-18.61l65.31-45.65l-31.09-21.73l101.97-9.2L544.67,279.57z"/>
	</g>
</g>
<g id="_x2462_L3スイッチ" class="st0">
	<g class="st2">
		<g>
			<path class="st4" d="M400.94,81.07c-2.61,0-5.21,0.78-7.45,2.34L71.82,308.25c-3.48,2.43-5.55,6.41-5.55,10.66v179.42
				c0,4.24,2.07,8.22,5.55,10.65l322,225.23c2.24,1.56,4.84,2.35,7.45,2.35c2.62,0,5.23-0.79,7.47-2.36l142.64-100.18
				c19.47,56.6,73.24,95.95,134.43,95.95c78.4,0,142.19-63.79,142.19-142.19c0-31.2-9.97-60.84-28.82-85.69
				c-16.24-21.4-38.54-37.99-63.54-47.41V318.93c0-4.25-2.07-8.22-5.55-10.66L408.39,83.42C406.15,81.86,403.55,81.07,400.94,81.07
				L400.94,81.07z"/>
		</g>
	</g>
	<g class="st2">
		<polygon class="st5" points="79.27,498.32 393.98,718.45 393.98,548.63 79.27,328.51 		"/>
		<path class="st5" d="M400.94,94.07L84.45,315.28l316.5,221.22l316.48-221.21L400.94,94.07z M202.84,320.72l152.39-106.51
			l-28.28-19.76l94.78-8.55l-12.23,66.24l-28.28-19.77L228.83,338.89L202.84,320.72z M310.23,320.99l28.28,19.76l152.38-106.51
			l25.99,18.17L364.5,358.92l28.28,19.77L298,387.24L310.23,320.99z M545.54,347.24L393.16,453.75l-25.99-18.17l152.39-106.51
			l-28.28-19.76l94.77-8.55L573.82,367L545.54,347.24z"/>
		<g>
			<g>
				<path class="st5" d="M631.84,539.93h19.38v82.03h24.41v17.02h-43.8V539.93z"/>
				<path class="st5" d="M689.84,613.86v-4.46l18.83-2.23v5.86c0,9.9,2.66,13.39,8.09,13.39c5.16,0,7.67-3.76,7.67-12.27v-4.33
					c0-9.48-2.93-13.53-9.9-13.53h-3.36v-14.65h3.36c6.42,0,9.35-4.46,9.35-13.39v-3.49c0-7.53-2.66-10.32-7.4-10.32
					c-5.15,0-7.53,3.35-7.53,12.27v6.97l-18.98-2.51v-4.88c0-17.99,9.91-26.37,26.79-26.37c16.47,0,26.08,7.39,26.08,23.86v3.63
					c0,10.32-4.6,18.69-14.23,21.07c10.33,1.39,14.93,9.62,14.93,20.5v5.3c0,17.57-9.48,26.79-26.5,26.79
					C699.05,641.07,689.84,633.26,689.84,613.86z"/>
			</g>
		</g>
		<path class="st5" d="M722.63,464.01v-135.5L407.92,548.63v169.81l151.16-105.73c11.66,59.34,64.02,104.25,126.72,104.25
			c71.23,0,129.19-57.95,129.19-129.19C815,529.34,775.97,479.91,722.63,464.01z M685.81,695.06
			c-59.25,0-107.28-48.03-107.28-107.28c0-59.25,48.03-107.28,107.28-107.28c59.25,0,107.28,48.03,107.28,107.28
			C793.09,647.03,745.06,695.06,685.81,695.06z"/>
	</g>
</g>
<g id="_x2463_L2スイッチ" class="st0">
	<g class="st2">
		<g>
			<path class="st4" d="M400.94,81.07c-2.61,0-5.21,0.78-7.45,2.34L71.82,308.25c-3.48,2.43-5.55,6.41-5.55,10.66v179.42
				c0,4.24,2.07,8.22,5.55,10.65l322,225.23c2.24,1.56,4.84,2.35,7.45,2.35c2.62,0,5.23-0.79,7.47-2.36l142.64-100.18
				c19.47,56.6,73.24,95.95,134.43,95.95c78.4,0,142.19-63.79,142.19-142.19c0-31.2-9.97-60.84-28.82-85.69
				c-16.24-21.4-38.54-37.99-63.54-47.41V318.93c0-4.25-2.07-8.22-5.55-10.66L408.39,83.42C406.15,81.86,403.55,81.07,400.94,81.07
				L400.94,81.07z"/>
		</g>
	</g>
	<g class="st2">
		<path class="st5" d="M400.94,94.07L84.45,315.28l316.5,221.22l316.48-221.21L400.94,94.07z M234.11,342.67l152.38-106.51
			l-28.28-19.76l94.78-8.55l-12.23,66.25l-28.28-19.77L260.1,360.83L234.11,342.67z M344.74,420.2l12.23-66.24l28.28,19.76
			l152.39-106.51l25.99,18.17L411.23,391.88l28.28,19.77L344.74,420.2z"/>
		<g>
			<g>
				<path class="st5" d="M631.69,539.93h19.38v82.03h24.41v17.02h-43.8V539.93z"/>
				<path class="st5" d="M689.97,625.03c12.27-14.37,19.67-23.58,25.52-32.65c5.73-8.78,8.24-16.18,8.24-24.97v-2.94
					c0-6.83-2.51-9.76-7.4-9.76c-4.74,0-7.39,3.49-7.39,10.61v9.76l-18.97-2.37v-7.12c0-16.18,10.18-25.67,27.06-25.67
					c17.44,0,26.37,6.97,26.37,24.13v3.77c0,9.2-3.48,18.27-10.05,28.31c-5.15,8.24-11.16,15.35-21.9,27.63h32.23v15.2h-53.71
					V625.03z"/>
			</g>
		</g>
		<polygon class="st5" points="79.27,498.32 393.98,718.45 393.98,548.63 79.27,328.51 		"/>
		<path class="st5" d="M722.63,464.01v-135.5L407.92,548.63v169.81l151.16-105.73c11.66,59.34,64.02,104.25,126.72,104.25
			c71.23,0,129.19-57.95,129.19-129.19C815,529.34,775.97,479.91,722.63,464.01z M685.81,695.06
			c-59.25,0-107.28-48.03-107.28-107.28c0-59.25,48.03-107.28,107.28-107.28c59.25,0,107.28,48.03,107.28,107.28
			C793.09,647.03,745.06,695.06,685.81,695.06z"/>
	</g>
</g>
<g id="_x2464_AP" class="st0">
	<g class="st2">
		<g>
			<path class="st4" d="M417.33,79.92c-2.61,0-5.21,0.78-7.45,2.34L86.92,307.99c-3.48,2.43-5.55,6.41-5.55,10.66v180.14
				c0,4.24,2.07,8.22,5.55,10.65L407.2,733.46c2.42,2.77,5.95,4.45,9.79,4.45h0.66c3.84,0,7.38-1.68,9.79-4.45l320.29-224.03
				c3.48-2.43,5.55-6.41,5.55-10.65V318.65c0-4.25-2.07-8.22-5.55-10.66L424.78,82.26C422.54,80.7,419.93,79.92,417.33,79.92
				L417.33,79.92z"/>
		</g>
	</g>
	<g class="st2">
		<polygon class="st5" points="94.34,498.82 410.34,719.84 410.34,549.34 94.34,328.32 		"/>
		<polygon class="st5" points="424.34,549.34 424.34,719.84 740.34,498.82 740.34,328.32 		"/>
		<path class="st5" d="M417.33,92.92L99.54,315.03l317.79,222.12l317.77-222.11L417.33,92.92z M350.45,386.6
			c-14.87,0-26.89-8.41-26.89-18.81c0-10.38,12.02-18.81,26.89-18.81c14.89,0,26.93,8.43,26.93,18.81
			C377.37,378.18,365.34,386.6,350.45,386.6z M414.42,367.78c0-11.93-6.64-23.14-18.71-31.58c-0.01-0.01-0.01-0.01-0.02-0.01
			c-0.01-0.01-0.01-0.01-0.02-0.01c-12.07-8.44-28.12-13.09-45.2-13.09c0,0-0.01,0-0.01,0l0-21.24c0.01,0,0.01,0,0.02,0
			c25.18,0.01,48.87,6.87,66.68,19.32c0.02,0.01,0.02,0.01,0.04,0.03c17.81,12.45,27.61,28.99,27.61,46.6L414.42,367.78z
			 M477.71,367.78c0-23.76-13.23-46.09-37.26-62.89c-24.81-17.34-57.41-26.01-90-26.01v-21.23c40.37,0,80.75,10.74,111.49,32.22
			c29.77,20.82,46.16,48.48,46.17,77.91L477.71,367.78z M484.79,273.95c-0.02-0.01-0.02-0.01-0.04-0.03
			c-0.01-0.01-0.03-0.02-0.04-0.03c-35.87-25.07-83.54-38.88-134.26-38.89v-21.23c58.83,0,114.14,16.02,155.75,45.1
			c0.04,0.03,0.04,0.03,0.08,0.06c41.59,29.07,64.5,67.73,64.52,108.85l-30.39,0C540.4,332.33,520.64,299.01,484.79,273.95z"/>
	</g>
</g>
<g id="_x2465_DPI" class="st0">
	<path class="st6" d="M753.11,424.19c5.08-5.08,5.08-13.31,0-18.38L626.06,278.76c-2.49-2.49-5.81-3.81-9.2-3.81
		c-1.67,0-3.36,0.32-4.97,0.99c-4.86,2.01-8.03,6.75-8.03,12.01v56.3h-42.3c-25.66,0-50.72,4.55-74.77,13.54V228.37h55.1
		c5.26,0,10-3.17,12.01-8.03c2.01-4.86,0.9-10.45-2.82-14.17L424.03,79.13c-2.44-2.44-5.74-3.81-9.19-3.81
		c-3.45,0-6.75,1.37-9.19,3.81L278.6,206.18c-3.72,3.72-4.83,9.31-2.82,14.17c2.01,4.86,6.75,8.03,12.01,8.03h57.5v129.41
		c-24.05-8.99-49.12-13.54-74.77-13.54h-42.31v-56.3c0-5.26-3.17-10-8.03-12.01c-1.61-0.67-3.3-0.99-4.97-0.99
		c-3.38,0-6.71,1.32-9.2,3.81L78.96,405.81c-2.44,2.44-3.81,5.74-3.81,9.19c0,3.45,1.37,6.75,3.81,9.19l127.05,127.05
		c2.49,2.49,5.81,3.81,9.2,3.81c1.67,0,3.36-0.32,4.97-0.99c4.86-2.01,8.03-6.75,8.03-12.01v-56.3h42.31
		c41.23,0,74.77,33.54,74.77,74.77v167.51c0,7.18,5.82,13,13,13h115.51c7.18,0,13-5.82,13-13v-85.72
		c19.53,13.78,42.81,21.2,67.25,21.2c20.89,0,41.2-5.69,59.34-16.53l72.87,72.89c2.44,2.44,5.74,3.81,9.19,3.81s6.76-1.37,9.19-3.81
		l22.62-22.62c5.08-5.08,5.08-13.31,0-18.38l-72.83-72.84c10.84-18.09,16.52-38.41,16.52-59.37c0-12.62-1.99-24.93-5.81-36.58
		c1.96-0.62,3.78-1.7,5.28-3.2L753.11,424.19z"/>
	<g class="st2">
		<g>
			<path class="st5" d="M470.67,630.02c-45.95-45.98-45.95-120.78,0-166.74c22.24-22.23,51.84-34.47,83.37-34.47
				c31.53,0,61.14,12.24,83.38,34.47c10.11,10.11,18.03,21.78,23.81,34.4L743.92,415L616.87,287.95v69.3h-55.3
				c-31.46,0-61.16,7.39-87.77,20.21V215.37h68.1L414.84,88.32L287.79,215.37h70.5v162.09c-26.61-12.81-56.31-20.21-87.77-20.21
				h-55.31v-69.3L88.16,415l127.05,127.05v-69.3h55.31c48.4,0,87.77,39.38,87.77,87.77v167.51h115.51v-95.18
				C472.76,631.9,471.67,631.03,470.67,630.02z"/>
		</g>
		<path class="st5" d="M718.07,688.07l-80.34-80.36c12.94-17.67,20.22-38.73,20.22-61.05c0-27.75-10.8-53.85-30.43-73.48
			c-40.49-40.48-106.43-40.52-146.95,0c-40.51,40.52-40.49,106.44,0,146.94c20.25,20.26,46.86,30.39,73.48,30.39
			c21.52,0,42.87-6.97,61.03-20.23l80.38,80.4L718.07,688.07z M501.78,598.92c-28.81-28.81-28.81-75.7,0-104.52
			c14.41-14.4,33.34-21.6,52.27-21.6s37.85,7.2,52.27,21.6c13.96,13.96,21.64,32.52,21.64,52.27c0,19.74-7.68,38.3-21.64,52.26
			C577.48,627.74,530.61,627.72,501.78,598.92z"/>
	</g>
</g>
<g id="_x2466_YNO" class="st0">
	<g class="st2">
		<path class="st4" d="M398.32,175.65c-56.88,0-110.67,21.94-151.46,61.79c-19.82,19.36-35.56,41.96-46.78,67.15
			c-10.19,22.9-16.25,47.09-18.06,72.05c-25.81,6.42-49.22,20.81-66.76,41.22c-20.1,23.38-31.17,53.2-31.17,83.98
			c0,71.13,57.87,129,129,129h363.07c93.6,0,169.76-76.15,169.76-169.76c0-44.15-16.93-86-47.66-117.83
			c-28.84-29.87-66.89-47.92-107.86-51.33c-17.72-33.95-43.95-62.5-76.23-82.89C479.58,187.19,439.53,175.65,398.32,175.65
			L398.32,175.65z"/>
	</g>
	<g class="st2">
		<path class="st5" d="M486.88,412.62c-6.89,0-10.8,5.25-10.8,14.86v49.25c0,9.61,3.91,14.87,10.8,14.87
			c7.07,0,10.98-5.26,10.98-14.87v-49.25C497.85,417.87,493.95,412.62,486.88,412.62z"/>
		<path class="st5" d="M582.11,304.44C548.3,233.7,477.44,188.65,398.32,188.65c-110.68,0-201.05,88.66-203.81,198.69
			c-55.16,8.93-97.42,56.89-97.42,114.5c0,63.96,52.03,116,116,116h363.07c86.45,0,156.76-70.32,156.76-156.76
			C732.91,376.65,665.8,307.59,582.11,304.44z M349.94,467.12v38.29h-20.86v-38.29l-22.68-68.31h21.76l9.02,35.59
			c1.19,4.8,1.64,8.86,2.25,14.11h0.29c0.61-5.25,1.05-9.31,2.11-14.11l8.71-35.59h21.78L349.94,467.12z M442.52,505.41H422.4
			l-19.51-56.15c-2.11-6.31-3.46-11.42-4.67-16.82h-0.45c0.45,6.9,0.76,13.52,0.76,20.72v52.25h-18.48v-106.6h22.38l17.85,51.8
			c1.66,5.25,3.16,10.66,4.36,15.92h0.31c-0.45-7.81-0.76-15.62-0.76-23.57v-44.14h18.32V505.41z M519.32,474.18
			c0,21.77-12.01,33.78-32.44,33.78c-20.25,0-32.27-12.01-32.27-33.78v-44.14c0-21.78,12.01-33.79,32.27-33.79
			c20.43,0,32.44,12.01,32.44,33.79V474.18z"/>
	</g>
</g>
<g id="_x2467_NV_DNS" class="st0">
	<g class="st2">
		<path class="st4" d="M415,69.85c-68.79,0-131.59,9.51-176.81,26.78c-23.34,8.92-41.74,19.71-54.67,32.1
			c-14.71,14.08-22.17,29.87-22.17,46.92c0,14.56,0.06,501.66,0.06,501.66c0,3.21,1.19,6.31,3.34,8.7
			c6.18,6.86,24.76,24.56,63.85,40.74c49.2,20.36,111.87,30.7,186.27,30.72c0.01,0,0.02,0,0.03,0h0.1h0h0.1c0.01,0,0.02,0,0.03,0
			c74.4-0.02,137.07-10.36,186.27-30.72c39.09-16.18,57.68-33.88,63.85-40.74c2.15-2.39,3.34-5.48,3.34-8.7
			c0,0,0.06-487.1,0.06-501.66c0-17.05-7.46-32.84-22.17-46.92c-12.93-12.38-31.32-23.18-54.67-32.1
			C546.59,79.36,483.79,69.85,415,69.85L415,69.85z"/>
	</g>
	<g class="st2">
		<ellipse class="st5" cx="415" cy="158.38" rx="231.15" ry="75.53"/>
		<g>
			<path class="st5" d="M432.95,411.29h-6.45v76.27h6.45c9.32,0,13.67-7.66,13.67-21.62V432
				C446.62,417.74,442.56,411.29,432.95,411.29z"/>
			<path class="st5" d="M415,247.91c-121.23,0-219.17-30.6-240.64-72.26l0.06,501.65c9.26,10.28,68.34,67.16,240.68,67.16
				c172.23,0,231.37-56.8,240.72-67.16V175.22C634.8,217.09,536.64,247.91,415,247.91z M293.05,502.72h-20.12l-19.51-56.15
				c-2.11-6.31-3.46-11.42-4.67-16.82h-0.45c0.45,6.9,0.76,13.52,0.76,20.72v52.25h-18.48v-106.6h22.38l17.85,51.8
				c1.66,5.25,3.16,10.66,4.36,15.92h0.31c-0.45-7.81-0.76-15.62-0.76-23.57v-44.14h18.32V502.72z M349.43,502.72h-26.58
				l-20.43-106.6h21.48l10.06,69.51c1.05,7.21,1.5,12.46,1.8,18.02h0.74c0.31-5.56,0.76-10.81,1.66-18.02l10.06-69.51h21.46
				L349.43,502.72z M468.09,464.43c0,25.08-11.86,38.29-34.38,38.29h-28.09v-106.6h28.22c22.23,0,34.24,12.76,34.24,36.79V464.43z
				 M544.14,502.72h-20.12l-19.51-56.15c-2.11-6.31-3.46-11.42-4.67-16.82h-0.45c0.45,6.9,0.76,13.52,0.76,20.72v52.25h-18.48
				v-106.6h22.38l17.85,51.8c1.66,5.25,3.16,10.66,4.36,15.92h0.31c-0.45-7.81-0.76-15.62-0.76-23.57v-44.14h18.32V502.72z
				 M615.53,479.31c0,15.31-10.2,25.97-29.86,25.97c-19.22,0-30.04-11.26-30.04-29.12v-8.56l21.17-4.05v12.16
				c0,8.56,2.85,13.52,9,13.52c6.02,0,8.42-4.5,8.42-10.36v-4.35c0-6.61-1.05-9.91-7.81-14.27l-15.16-9.31
				c-10.98-6.61-14.73-14.57-14.73-25.83v-5.56c0-17.41,12.91-25.98,29.28-25.98c18.16,0,29.59,7.21,29.59,27.33v7.8l-20.72,3.91
				v-11.42c0-7.21-2.56-11.86-8.87-11.86c-5.25,0-8.26,3.9-8.26,9v4.8c0,5.56,2.71,9.46,7.66,12.62l15.33,9.31
				c12.01,7.35,15,14.86,15,26.12V479.31z"/>
		</g>
	</g>
</g>
<g id="_x2468_クラウドプラットフォーム_xFF08_VPC_xFF09_" class="st0">
	<g class="st2">
		<path class="st4" d="M398.32,175.65c-56.88,0-110.67,21.94-151.46,61.79c-19.82,19.36-35.56,41.96-46.78,67.15
			c-10.19,22.9-16.25,47.09-18.06,72.05c-25.81,6.42-49.22,20.81-66.76,41.22c-20.1,23.38-31.17,53.2-31.17,83.98
			c0,71.13,57.87,129,129,129h363.07c93.6,0,169.76-76.15,169.76-169.76c0-44.15-16.93-86-47.66-117.83
			c-28.84-29.87-66.89-47.92-107.86-51.33c-17.72-33.95-43.95-62.5-76.23-82.89C479.58,187.19,439.53,175.65,398.32,175.65
			L398.32,175.65z"/>
	</g>
	<g class="st2">
		<path class="st5" d="M413.62,413.22h-6.31v36.63h6.31c7.34,0,10.64-4.5,10.64-15.17v-7.8
			C424.26,417.28,420.96,413.22,413.62,413.22z"/>
		<path class="st5" d="M582.12,304.44c-33.81-70.74-104.67-115.79-183.79-115.79c-110.68,0-201.05,88.66-203.81,198.69
			c-55.16,8.92-97.42,56.89-97.42,114.5c0,63.96,52.03,116,116,116h363.07c86.45,0,156.76-70.32,156.76-156.76
			C732.92,376.65,665.81,307.59,582.12,304.44z M358.29,505.41h-26.58l-20.43-106.6h21.48l10.06,69.51
			c1.05,7.21,1.5,12.46,1.8,18.02h0.74c0.31-5.56,0.76-10.81,1.66-18.02l10.06-69.51h21.46L358.29,505.41z M445.75,434.99
			c0,19.07-10.53,29.58-29.59,29.58h-8.85v40.84h-20.88v-106.6h29.28c19.82,0,29.88,9.31,30.04,27.32V434.99z M514.89,436.19
			l-21.46,4.05v-14.26c0-8.86-3.01-13.37-9.32-13.37c-6.45,0-9.9,4.66-9.9,15.02v48.19c0,10.21,3.46,15.62,9.9,15.62
			c6.15,0,9.47-4.65,9.47-13.36v-15.92l21.31,4.36v11.56c0,19.51-11.56,29.87-30.78,29.87c-20.41,0-31.37-11.1-31.37-33.33v-45.2
			c0-21.77,11.41-33.18,31.82-33.18c19.38,0,30.33,9.61,30.33,29.13V436.19z"/>
	</g>
</g>
<g id="_x2469_vRX" class="st0">
	<g class="st2">
		<path class="st4" d="M415,136.48c-59.53,0-116.61,11.37-165.08,32.88c-23.6,10.47-44.5,23.09-62.14,37.49
			c-18.15,14.82-32.49,31.27-42.62,48.88c-8.28,14.38-27.65,48.05-27.65,92.5v180.5c0,0.7,0.06,1.4,0.17,2.09
			c2.51,15.46,7.95,27.22,12.41,35.75c0.16,0.3,18.87,32.54,65.23,64.26c25.98,17.78,55.52,31.92,87.8,42.04
			c37.82,11.85,79.54,18.18,124.1,18.84c3.26,16.94,11.64,32.48,24.24,44.66c15.72,15.19,36.4,23.55,58.23,23.55h222.99
			c60.25,0,109.27-49.02,109.27-109.27c0-28.43-10.89-55.37-30.68-75.86c-17.92-18.57-41.38-30.03-66.72-32.77
			c-3.41-6.14-7.4-12.12-12.04-18.07l-0.01-175.71c0-44.45-19.38-78.12-27.65-92.5c-10.14-17.61-24.48-34.06-42.62-48.88
			c-17.63-14.41-38.54-27.02-62.14-37.49C531.61,147.85,474.52,136.48,415,136.48L415,136.48z"/>
	</g>
	<g class="st2">
		<path class="st5" d="M415,149.47c-151.25,0-274.3,75.92-274.3,169.23S263.75,487.93,415,487.93s274.3-75.92,274.3-169.23
			S566.25,149.47,415,149.47z M216.63,285.29l9.75-25.43l88.25,16.53l11.28-29.42l62.38,57.13l-94.89,27.67l11.48-29.95
			L216.63,285.29z M481.22,439.97l-36.38,6.81l-23.65-61.68l-42.85,8.02l39.59-66.32l81.73,43.6l-42.09,7.88L481.22,439.97z
			 M544.67,279.57l-31.09-21.73l-65.31,45.65l-26.63-18.61l65.31-45.65l-31.09-21.73l101.97-9.2L544.67,279.57z"/>
		<path class="st5" d="M716.33,554.43c-4.53-9.48-10.31-18.04-16.82-25.9V346.87C678.09,434.54,558.86,501.93,415,501.93
			s-263.08-67.39-284.51-155.06v181.89c2.25,13.64,7.11,24.12,11.11,31.77c0.63,1.19,70.94,118.23,273.4,118.23
			c1.3,0,2.45-0.12,3.74-0.13c1.59,37.89,32.67,68.28,70.95,68.28h222.99c53.09,0,96.27-43.18,96.27-96.27
			C808.95,598.77,767.74,556.36,716.33,554.43z M712.68,724.91H489.69c-27.17,0-49.26-22.09-49.26-49.25
			c0-27.11,22.07-49.2,49.18-49.24l11.64-1.84l-0.8-11.74c-0.1-1.44-0.21-2.87-0.21-4.34c0-56.91,46.31-103.21,103.22-103.21
			c42.23,0,79.77,25.33,95.63,64.53l2.91,7.19l10.82-0.66c40.9,0.08,74.14,33.37,74.14,74.28
			C786.96,691.59,753.64,724.91,712.68,724.91z"/>
		<g>
			<g>
				<path class="st5" d="M522.13,623.47h19.18l5.88,40.76c0.7,5.05,1.27,8.41,1.7,12.89h0.55c0.43-4.48,0.98-7.84,1.54-12.89
					l6.04-40.76h19.04l-15.98,70.04h-21.86L522.13,623.47z"/>
				<path class="st5" d="M608.54,653.03h-7.01v40.48h-19.47v-99.45h26.48c20.72,0,28.85,9.94,28.98,26.61v4.77
					c0,11.77-4.34,19.33-11.76,22.97l14,45.11h-20.31L608.54,653.03z M607.27,640.56c7.56,0,10.23-4.48,10.23-14.15v-6.3
					c0-9.1-2.81-12.61-10.23-12.61h-5.74v33.06H607.27z"/>
				<path class="st5" d="M661.29,640.69l-15.96-46.64h20.45l6.99,25.07c1.27,4.21,1.54,7.43,2.11,12.19h0.27
					c0.7-4.48,0.98-7.84,2.11-12.19l7.42-25.07h20.18l-15.7,46.79l17.09,52.67h-20.59l-8.54-32.08c-1-3.08-1.41-6.87-1.97-12.04
					h-0.41c-0.43,3.92-0.84,7.56-1.97,12.04l-8.26,32.08h-20.45L661.29,640.69z"/>
			</g>
		</g>
	</g>
</g>
<g id="_x246A_一般仮想ルーター">
	<g>
		<path class="st4" d="M415,136.48c-59.53,0-116.61,11.37-165.08,32.88c-23.6,10.47-44.5,23.09-62.14,37.49
			c-18.15,14.82-32.49,31.27-42.62,48.88c-8.28,14.38-27.65,48.05-27.65,92.5v180.5c0,0.7,0.06,1.4,0.17,2.09
			c2.51,15.46,7.95,27.22,12.41,35.75c0.16,0.3,18.87,32.54,65.23,64.26c25.98,17.78,55.52,31.92,87.8,42.04
			c37.82,11.85,79.54,18.18,124.1,18.84c3.26,16.94,11.64,32.48,24.24,44.66c15.72,15.19,36.4,23.55,58.23,23.55h222.99
			c60.25,0,109.27-49.02,109.27-109.27c0-28.43-10.89-55.37-30.68-75.86c-17.92-18.57-41.38-30.03-66.72-32.77
			c-3.41-6.14-7.4-12.12-12.04-18.07l-0.01-175.71c0-44.45-19.38-78.12-27.65-92.5c-10.14-17.61-24.48-34.06-42.62-48.88
			c-17.63-14.41-38.54-27.02-62.14-37.49C531.61,147.85,474.52,136.48,415,136.48L415,136.48z"/>
	</g>
	<g>
		<path class="st7" d="M415,149.48c-151.24,0-274.29,75.92-274.29,169.23S263.76,487.93,415,487.93s274.29-75.92,274.29-169.23
			S566.24,149.48,415,149.48z M216.63,285.29l9.75-25.43l88.25,16.53l11.28-29.42l62.38,57.13l-94.89,27.67l11.48-29.95
			L216.63,285.29z M481.22,439.97l-36.38,6.81l-23.65-61.69l-42.85,8.02l39.59-66.32l81.73,43.6l-42.09,7.88L481.22,439.97z
			 M544.67,279.57l-31.09-21.73l-65.31,45.65l-26.63-18.61l65.31-45.65l-31.09-21.73l101.97-9.2L544.67,279.57z"/>
		<path class="st7" d="M716.34,554.44c-4.53-9.48-10.32-18.06-16.84-25.91V346.95C678.01,434.59,558.81,501.94,415,501.94
			c-143.79,0-262.98-67.33-284.49-154.94v181.76c2.23,13.61,7.09,24.11,11.1,31.78c0.62,1.19,70.98,118.23,273.39,118.23
			c1.3,0,2.46-0.13,3.75-0.14c1.59,37.89,32.67,68.28,70.94,68.28h222.99c53.09,0,96.27-43.18,96.27-96.27
			C808.94,598.77,767.73,556.36,716.34,554.44z M712.67,724.92H489.68c-27.16,0-49.25-22.09-49.25-49.25
			c0-27.11,22.06-49.2,49.18-49.24l11.64-1.86l-0.81-11.74c-0.1-1.44-0.21-2.86-0.21-4.33c0-56.9,46.3-103.2,103.21-103.2
			c42.23,0,79.77,25.33,95.63,64.53l2.91,7.19l10.82-0.66c40.89,0.08,74.13,33.37,74.13,74.28
			C786.95,691.59,753.63,724.92,712.67,724.92z"/>
	</g>
</g>
<g id="_x246B_仮想サーバー" class="st0">
	<g class="st2">
		<g>
			<path class="st4" d="M415,69.85c-68.79,0-131.59,9.51-176.81,26.78c-23.34,8.92-41.74,19.71-54.67,32.1
				c-14.71,14.08-22.17,29.87-22.17,46.92c0,14.56,0.06,501.66,0.06,501.66c0,3.21,1.19,6.31,3.34,8.7
				c6.18,6.86,24.76,24.56,63.85,40.74c49.23,20.37,111.94,30.71,186.39,30.72c2.77,0,5.58-0.02,8.4-0.05
				c15.95,20.47,40.22,32.49,66.29,32.49h222.99c60.25,0,109.27-49.02,109.27-109.27c0-28.43-10.89-55.37-30.68-75.86
				c-17.92-18.56-41.37-30.03-66.7-32.77c-12.89-23.5-32.39-42.8-55.96-55.4c0.02-143.33,0.04-331.98,0.04-340.96
				c0-17.05-7.46-32.84-22.17-46.92c-12.93-12.38-31.32-23.18-54.67-32.1C546.59,79.36,483.79,69.85,415,69.85L415,69.85z"/>
		</g>
	</g>
	<g class="st2">
		<path class="st5" d="M415.1,390.44c174.17,0,232.02-57.24,240.72-67.16V175.24c-21.05,41.86-119.2,72.67-240.82,72.67
			c-121.2,0-219.14-30.59-240.63-72.24l0.02,147.54C183.02,332.92,241.57,390.44,415.1,390.44z"/>
		<path class="st5" d="M415,82.85c-138.26,0-231.13,39.05-231.13,75.53s92.87,75.53,231.13,75.53s231.14-39.05,231.14-75.53
			S553.26,82.85,415,82.85z"/>
		<path class="st5" d="M716.34,584.44c-12.85-26.89-34.43-47.68-60.52-59.67V342.7c-25.28,21.32-92.71,61.75-240.72,61.75
			c-148.08,0-215.47-40.46-240.71-61.78l0.02,149.75c8.7,9.77,67.29,67.2,240.69,67.2c35.47,0,67.99-2.42,97.6-7.07
			c-4.72,4.98-9.08,10.3-12.94,16c-26.21,3.34-54.41,5.07-84.66,5.07c-148.03,0-215.43-40.44-240.69-61.76l0.02,165.45
			c9.26,10.29,68.32,67.16,240.66,67.16c5.15,0,9.87-0.21,14.82-0.3c12.7,19.65,34.69,32.75,59.77,32.75h222.99
			c53.09,0,96.27-43.18,96.27-96.27C808.94,628.77,767.73,586.36,716.34,584.44z M712.67,754.92H489.69
			c-27.15,0-49.25-22.09-49.25-49.25c0-27.11,22.06-49.2,49.18-49.24l11.64-1.86l-0.81-11.74c-0.1-1.44-0.21-2.86-0.21-4.33
			c0-56.9,46.3-103.2,103.21-103.2c42.23,0,79.77,25.33,95.63,64.53l2.91,7.19l10.82-0.66c40.89,0.08,74.13,33.37,74.13,74.28
			C786.95,721.59,753.63,754.92,712.67,754.92z"/>
	</g>
</g>
<g id="_x246C_仮想DBサーバー" class="st0">
	<g class="st2">
		<g>
			<path class="st4" d="M415,69.85c-68.79,0-131.59,9.51-176.81,26.78c-23.34,8.92-41.74,19.71-54.67,32.1
				c-14.71,14.08-22.17,29.87-22.17,46.92c0,14.56,0.06,501.66,0.06,501.66c0,3.21,1.19,6.31,3.34,8.7
				c6.18,6.86,24.76,24.56,63.85,40.74c49.23,20.37,111.94,30.71,186.39,30.72c2.77,0,5.58-0.02,8.4-0.05
				c15.95,20.47,40.22,32.49,66.29,32.49h222.99c60.25,0,109.27-49.02,109.27-109.27c0-28.43-10.89-55.37-30.68-75.86
				c-17.92-18.56-41.37-30.03-66.7-32.77c-12.89-23.5-32.39-42.8-55.96-55.4c0.02-143.33,0.04-331.98,0.04-340.96
				c0-17.05-7.46-32.84-22.17-46.92c-12.93-12.38-31.32-23.18-54.67-32.1C546.59,79.36,483.79,69.85,415,69.85L415,69.85z"/>
		</g>
	</g>
	<g class="st2">
		<path class="st5" d="M415,233.91c138.26,0,231.13-39.05,231.13-75.53S553.26,82.85,415,82.85s-231.14,39.05-231.14,75.53
			S276.74,233.91,415,233.91z"/>
		<path class="st5" d="M382.71,413.97h-6.45v76.27h6.45c9.32,0,13.67-7.66,13.67-21.62v-33.94
			C396.38,420.42,392.32,413.97,382.71,413.97z"/>
		<path class="st5" d="M466.87,429.13v-3.46c0-8.55-2.7-12.46-10.21-12.46h-5.84v30.93h6C464.33,444.14,466.87,439.34,466.87,429.13
			z"/>
		<path class="st5" d="M716.33,584.44c-12.85-26.89-34.43-47.68-60.51-59.67V175.22C634.8,217.1,536.64,247.91,415,247.91
			c-121.18,0-219.11-30.58-240.63-72.21l0.07,501.61c9.26,10.29,68.31,67.16,240.65,67.16c5.15,0,9.88-0.21,14.83-0.31
			c12.7,19.65,34.69,32.75,59.77,32.75h222.99c53.09,0,96.27-43.18,96.27-96.27C808.95,628.77,767.73,586.36,716.33,584.44z
			 M417.84,467.11c0,25.08-11.86,38.29-34.38,38.29h-28.09V398.8h28.22c22.23,0,34.24,12.76,34.24,36.79V467.11z M429.93,398.8
			h29.28c19.98,0,28.98,10.36,28.98,26.27v3.6c0,10.52-5.12,17.87-13.67,20.42c9.16,3.01,15.02,10.36,15.02,24.18v3.15
			c0,18.16-9.61,28.97-29.43,28.97h-30.18V398.8z M712.68,754.92H489.69c-27.15,0-49.25-22.09-49.25-49.25
			c0-27.11,22.06-49.2,49.18-49.24l11.67-1.56l-0.82-11.74c-0.11-1.53-0.22-3.06-0.22-4.62c0-56.9,46.3-103.2,103.21-103.2
			c42.22,0,79.76,25.33,95.63,64.53l2.91,7.19l10.82-0.66c40.89,0.08,74.13,33.37,74.13,74.28
			C786.95,721.59,753.63,754.92,712.68,754.92z"/>
		<path class="st5" d="M468.08,476.13v-3.75c0-10.66-3.16-15.02-10.51-15.02h-6.76v33.63h7.21
			C465.36,490.99,468.08,485.88,468.08,476.13z"/>
	</g>
</g>
<g id="_x246D_仮想RADIUSサーバー" class="st0">
	<g class="st2">
		<g>
			<path class="st4" d="M415,69.85c-68.79,0-131.59,9.51-176.81,26.78c-23.34,8.92-41.74,19.71-54.67,32.1
				c-14.71,14.08-22.17,29.87-22.17,46.92c0,14.56,0.06,501.66,0.06,501.66c0,3.21,1.19,6.31,3.34,8.7
				c6.18,6.86,24.76,24.56,63.85,40.74c49.23,20.37,111.94,30.71,186.39,30.72c2.77,0,5.58-0.02,8.4-0.05
				c15.95,20.47,40.22,32.49,66.29,32.49h222.99c60.25,0,109.27-49.02,109.27-109.27c0-28.43-10.89-55.37-30.68-75.86
				c-17.92-18.56-41.37-30.03-66.7-32.77c-12.89-23.5-32.39-42.8-55.96-55.4c0.02-143.33,0.04-331.98,0.04-340.96
				c0-17.05-7.46-32.84-22.17-46.92c-12.93-12.38-31.32-23.18-54.67-32.1C546.59,79.36,483.79,69.85,415,69.85L415,69.85z"/>
		</g>
	</g>
	<g class="st2">
		<path class="st5" d="M415,82.85c-138.26,0-231.14,39.05-231.14,75.53s92.88,75.53,231.14,75.53s231.13-39.05,231.13-75.53
			S553.27,82.85,415,82.85z"/>
		<g>
			<path class="st5" d="M329.75,413.84h-0.45c-0.45,5.7-1.19,10.06-1.95,15.17l-5.25,33.63h14.86l-5.25-33.63
				C330.96,423.9,330.36,419.54,329.75,413.84z"/>
			<path class="st5" d="M402.21,411.29h-6.45v76.27h6.45c9.32,0,13.67-7.66,13.67-21.62v-33.94
				C415.88,417.75,411.82,411.29,402.21,411.29z"/>
			<path class="st5" d="M254.16,410.54h-6.15v35.43h6.15c8.11,0,10.96-4.8,10.96-15.17v-6.75
				C265.12,414.29,262.11,410.54,254.16,410.54z"/>
			<path class="st5" d="M716.33,584.44c-12.85-26.89-34.43-47.68-60.52-59.67V175.24c-21.05,41.86-119.19,72.67-240.81,72.67
				c-121.18,0-219.11-30.58-240.63-72.21l0.07,501.61c9.26,10.29,68.31,67.16,240.65,67.16c5.15,0,9.88-0.21,14.83-0.3
				c12.7,19.65,34.69,32.75,59.77,32.75h222.99c53.09,0,96.27-43.18,96.27-96.27C808.95,628.77,767.73,586.36,716.33,584.44z
				 M559.07,467.59l21.17-4.05v12.16c0,8.56,2.85,13.52,9,13.52c6.02,0,8.42-4.5,8.42-10.36v-4.35c0-6.61-1.05-9.91-7.81-14.27
				l-15.18-9.31c-10.96-6.61-14.71-14.57-14.71-25.83v-5.56c0-17.41,12.91-25.98,29.28-25.98c18.16,0,29.59,7.21,29.59,27.33v7.8
				l-20.72,3.91v-11.42c0-7.21-2.56-11.86-8.87-11.86c-5.25,0-8.26,3.9-8.26,9v4.8c0,5.56,2.71,9.46,7.66,12.62l15.33,9.31
				c12.01,7.35,15,14.86,15,26.12v8.12c0,15.31-10.2,25.97-29.88,25.97c-19.22,0-30.02-11.26-30.02-29.12V467.59z M487.68,396.13
				h20.86v79.73c0,7.66,3.32,11.86,9.61,11.86c6.02,0,9.61-4.2,9.61-11.86v-79.73h20.72v80.63c0,17.57-10.8,28.53-30.33,28.53
				c-19.67,0-30.47-10.96-30.47-28.53V396.13z M450.92,396.13h20.88v106.6h-20.88V396.13z M267.23,502.73l-11.72-43.39h-7.5v43.39
				h-20.88v-106.6h28.38c22.23,0,30.94,10.65,31.07,28.53v5.11c0,12.61-4.65,20.72-12.6,24.62l15,48.35H267.23z M343.13,502.73
				l-3.91-24.92h-19.38l-3.91,24.92h-20.86l20.86-106.6h27.32l20.72,106.6H343.13z M437.35,464.44c0,25.08-11.86,38.29-34.38,38.29
				h-28.09v-106.6h28.22c22.23,0,34.24,12.76,34.24,36.79V464.44z M712.67,754.92H489.69c-27.15,0-49.25-22.09-49.25-49.25
				c0-27.11,22.06-49.2,49.17-49.24l11.64-1.86l-0.81-11.74c-0.1-1.44-0.21-2.86-0.21-4.33c0-56.9,46.3-103.2,103.21-103.2
				c42.23,0,79.77,25.33,95.63,64.53l2.91,7.19l10.82-0.66c40.89,0.08,74.14,33.37,74.14,74.28
				C786.96,721.59,753.63,754.92,712.67,754.92z"/>
		</g>
	</g>
</g>
<g id="_x246E_仮想ファイルサーバー" class="st0">
	<g class="st2">
		<g>
			<path class="st4" d="M415,69.85c-68.79,0-131.59,9.51-176.81,26.78c-23.34,8.92-41.74,19.71-54.67,32.1
				c-14.71,14.08-22.17,29.87-22.17,46.92c0,14.56,0.06,501.66,0.06,501.66c0,3.21,1.19,6.31,3.34,8.7
				c6.18,6.86,24.76,24.56,63.85,40.74c49.23,20.37,111.94,30.71,186.39,30.72c2.77,0,5.58-0.02,8.4-0.05
				c15.95,20.47,40.22,32.49,66.29,32.49h222.99c60.25,0,109.27-49.02,109.27-109.27c0-28.43-10.89-55.37-30.68-75.86
				c-17.92-18.56-41.37-30.03-66.7-32.77c-12.89-23.5-32.39-42.8-55.96-55.4c0.02-143.33,0.04-331.98,0.04-340.96
				c0-17.05-7.46-32.84-22.17-46.92c-12.93-12.38-31.32-23.18-54.67-32.1C546.59,79.36,483.79,69.85,415,69.85L415,69.85z"/>
		</g>
	</g>
	<g class="st2">
		<path class="st5" d="M415,233.91c138.26,0,231.13-39.05,231.13-75.53S553.26,82.85,415,82.85s-231.14,39.05-231.14,75.53
			S276.74,233.91,415,233.91z"/>
		<path class="st5" d="M716.33,584.44c-12.85-26.89-34.43-47.68-60.52-59.67V175.24c-21.05,41.86-119.19,72.67-240.81,72.67
			c-121.18,0-219.11-30.58-240.63-72.21l0.07,501.61c9.26,10.29,68.31,67.16,240.65,67.16c5.15,0,9.88-0.21,14.83-0.3
			c12.7,19.65,34.69,32.75,59.77,32.75h222.99c53.09,0,96.27-43.18,96.27-96.27C808.95,628.77,767.73,586.36,716.33,584.44z
			 M435.99,351.85l54.72,54.73h-54.72V351.85z M329.39,550.31V341.95h92.6v78.63h78.62v129.73H329.39z M712.67,754.92H489.69
			c-27.16,0-49.25-22.09-49.25-49.25c0-27.11,22.06-49.2,49.17-49.24l11.63-1.75l-0.79-11.72c-0.1-1.47-0.21-2.95-0.21-4.45
			c0-56.9,46.3-103.2,103.2-103.2c42.22,0,79.77,25.33,95.64,64.53l2.91,7.19l10.82-0.66c40.89,0.08,74.13,33.37,74.13,74.28
			C786.96,721.59,753.63,754.92,712.67,754.92z M469.6,501.59H360.4v-14h109.2V501.59z M469.6,465.56H360.4v-14h109.2V465.56z"/>
	</g>
</g>
<g id="_x246F_ONU" class="st0">
	<g class="st2">
		<g>
			<path class="st4" d="M504.93,43.05c-2.61,0-5.22,0.79-7.47,2.36L212.33,245.42c-3.47,2.43-5.53,6.41-5.53,10.64v430.13
				c0,4.28,2.1,8.28,5.63,10.71l121.1,83.37c2.22,1.53,4.8,2.29,7.37,2.29c2.61,0,5.22-0.78,7.46-2.35l284.92-199.54
				c3.47-2.43,5.54-6.41,5.54-10.65V141.22c0-4.23-2.06-8.19-5.51-10.63L512.42,45.42C510.17,43.84,507.55,43.05,504.93,43.05
				L504.93,43.05z"/>
		</g>
	</g>
	<g class="st2">
		<polygon class="st5" points="224.99,251.86 340.67,333.23 620.61,137.42 504.93,56.05 		"/>
		<polygon class="st5" points="347.64,345.42 347.64,764.56 625.81,570.01 625.81,150.87 		"/>
		<path class="st5" d="M219.79,266.96v419.23l113.87,78.49V345.45L219.79,266.96z M282.2,509.21l-22.92-15.8v-26.73l22.92,15.8
			V509.21z M300.67,457.36l-55.54-38.29v-21.5l55.54,38.29V457.36z M300.67,405.99l-55.54-38.28v-21.5l55.54,38.28V405.99z"/>
	</g>
</g>
<g id="_x2470_小型ONU" class="st0">
	<g class="st2">
		<g>
			<path class="st4" d="M557.96,136.47c-2.56,0-5.12,0.75-7.34,2.27L117.67,434.62c-0.1,0.07-0.2,0.14-0.3,0.21l-5.33,3.87
				c-3.37,2.45-5.36,6.36-5.36,10.52v9.49v104.06c0,4.25,2.08,8.23,5.56,10.66l141.82,98.88c0.17,0.12,0.34,0.23,0.51,0.34
				l7.06,4.45c2.12,1.33,4.52,2,6.92,2c2.38,0,4.76-0.65,6.86-1.96l6.92-4.3c0.16-0.1,0.32-0.2,0.47-0.31l431.33-294.77
				c3.54-2.42,5.67-6.44,5.67-10.73V262.86v-9.31c0-4.08-1.92-7.93-5.18-10.39l-5.33-4.01c-0.13-0.09-0.25-0.19-0.38-0.28
				L565.39,138.8C563.16,137.25,560.56,136.47,557.96,136.47L557.96,136.47z"/>
		</g>
	</g>
	<g class="st2">
		<polygon class="st5" points="125.01,445.35 268.52,545.44 364.23,479.92 220.71,379.84 		"/>
		<path class="st5" d="M119.68,458.71v104.06l141.82,98.88V557.6L119.68,458.71z M176.39,564.67l-28.44-20.32v-27.63l28.44,20.32
			V564.67z M229.9,603l-28.44-20.32v-27.63l28.44,20.32V603z"/>
		<polygon class="st5" points="275.48,557.64 275.48,661.8 369.56,597.41 369.56,493.25 		"/>
		<polygon class="st5" points="233.07,371.39 376.59,471.47 701.47,249.54 557.96,149.47 		"/>
		<polygon class="st5" points="383.54,483.67 383.54,587.84 706.8,367.03 706.8,262.86 		"/>
	</g>
</g>
<g id="_x2471_スマートフォン" class="st0">
	<g class="st2">
		<path class="st4" d="M537.86,119.22h-243c-29.22,0-53,23.78-53,53v490.35c0,29.22,23.78,53,53,53h243c29.22,0,53-23.78,53-53
			V172.22C590.86,143,567.09,119.22,537.86,119.22L537.86,119.22z"/>
	</g>
	<path class="st8" d="M537.86,132.22h-243c-22,0-40,18-40,40v490.35c0,22,18,40,40,40h243c22,0,40-18,40-40V172.22
		C577.86,150.22,559.86,132.22,537.86,132.22z M456.37,656.57h-80v-20h80V656.57z M546.77,594.37H285.98V202.36h260.79V594.37z"/>
</g>
<g id="_x2472_タブレット" class="st0">
	<g class="st2">
		<path class="st4" d="M613.15,76.56H216.87c-29.22,0-53,23.78-53,53V700.6c0,29.22,23.78,53,53,53h396.29c29.22,0,53-23.78,53-53
			V129.56C666.15,100.33,642.38,76.56,613.15,76.56L613.15,76.56z"/>
	</g>
	<path class="st8" d="M613.15,89.56H216.87c-22,0-40,18-40,40V700.6c0,22,18,40,40,40h396.29c22,0,40-18,40-40V129.56
		C653.15,107.56,635.15,89.56,613.15,89.56z M456.37,702.57h-80v-20h80V702.57z M608.43,648.48H221.56v-505.8h386.87V648.48z"/>
</g>
<g id="_x2473_物理的なサーバー" class="st0">
	<g class="st2">
		<path class="st4" d="M415,69.85c-68.79,0-131.59,9.51-176.81,26.78c-23.34,8.92-41.74,19.71-54.67,32.1
			c-14.71,14.08-22.17,29.87-22.17,46.92c0,14.56,0.06,501.66,0.06,501.66c0,3.21,1.19,6.31,3.34,8.7
			c6.18,6.86,24.76,24.56,63.85,40.74c49.2,20.36,111.87,30.7,186.27,30.72c0.01,0,0.02,0,0.03,0h0.1h0h0.1c0.01,0,0.02,0,0.03,0
			c74.4-0.02,137.07-10.36,186.27-30.72c39.09-16.18,57.68-33.88,63.85-40.74c2.15-2.39,3.34-5.48,3.34-8.7
			c0,0,0.06-487.1,0.06-501.66c0-17.05-7.46-32.84-22.17-46.92c-12.93-12.38-31.32-23.18-54.67-32.1
			C546.59,79.36,483.79,69.85,415,69.85L415,69.85z"/>
	</g>
	<g class="st2">
		<ellipse class="st5" cx="415" cy="158.38" rx="231.15" ry="75.53"/>
		<g>
			<path class="st5" d="M415.1,559.61c173.21,0,231.88-57.29,240.72-67.19V342.69c-25.27,21.32-92.7,61.76-240.72,61.76
				c-148.08,0-215.48-40.47-240.72-61.78l0.02,149.73C183.05,502.12,241.62,559.61,415.1,559.61z"/>
			<path class="st5" d="M415.1,573.62c-148.04,0-215.44-40.44-240.7-61.77l0.02,165.46c9.28,10.29,68.34,67.16,240.68,67.16
				c172.23,0,231.37-56.8,240.72-67.16V511.86C630.56,533.18,563.13,573.62,415.1,573.62z"/>
			<path class="st5" d="M415.1,390.44c173.21,0,231.88-57.29,240.72-67.19V175.22C634.8,217.1,536.64,247.91,415,247.91
				c-121.23,0-219.17-30.6-240.64-72.26l0.02,147.55C182.98,332.87,241.51,390.44,415.1,390.44z"/>
		</g>
	</g>
</g>
<g id="_x3251_物理的なRADIUSサーバー" class="st0">
	<g class="st2">
		<path class="st4" d="M415,69.85c-68.79,0-131.59,9.51-176.81,26.78c-23.34,8.92-41.74,19.71-54.67,32.1
			c-14.71,14.08-22.17,29.87-22.17,46.92c0,14.56,0.06,501.66,0.06,501.66c0,3.21,1.19,6.31,3.34,8.7
			c6.18,6.86,24.76,24.56,63.85,40.74c49.2,20.36,111.87,30.7,186.27,30.72c0.01,0,0.02,0,0.03,0h0.1h0h0.1c0.01,0,0.02,0,0.03,0
			c74.4-0.02,137.07-10.36,186.27-30.72c39.09-16.18,57.68-33.88,63.85-40.74c2.15-2.39,3.34-5.48,3.34-8.7
			c0,0,0.06-487.1,0.06-501.66c0-17.05-7.46-32.84-22.17-46.92c-12.93-12.38-31.32-23.18-54.67-32.1
			C546.59,79.36,483.79,69.85,415,69.85L415,69.85z"/>
	</g>
	<g class="st2">
		<path class="st5" d="M415,82.84c-138.26,0-231.13,39.06-231.13,75.55c0,36.46,92.87,75.53,231.13,75.53s231.14-39.06,231.14-75.53
			C646.14,121.9,553.26,82.84,415,82.84z"/>
		<g>
			<path class="st5" d="M402.96,413.97h-6.45v76.27h6.45c9.32,0,13.67-7.66,13.67-21.62v-33.95
				C416.63,420.42,412.57,413.97,402.96,413.97z"/>
			<path class="st5" d="M332,416.51h-0.45c-0.45,5.7-1.19,10.06-1.95,15.18l-5.25,33.63h14.86l-5.25-33.63
				C333.21,426.57,332.6,422.21,332,416.51z"/>
			<path class="st5" d="M257.92,413.21h-6.15v35.43h6.15c8.11,0,10.96-4.8,10.96-15.16v-6.76
				C268.87,416.96,265.87,413.21,257.92,413.21z"/>
			<path class="st5" d="M415,247.9c-121.2,0-219.14-30.58-240.63-72.22l0.07,501.63c9.26,10.27,68.32,67.17,240.66,67.17
				c172.24,0,231.38-56.82,240.72-67.19V175.24C634.77,217.1,536.61,247.9,415,247.9z M270.98,505.4l-11.72-43.38h-7.5v43.38h-20.88
				v-106.6h28.38c22.23,0,30.94,10.66,31.07,28.54v5.1c0,12.62-4.65,20.72-12.6,24.63l15,48.34H270.98z M345.38,505.4l-3.91-24.92
				H322.1l-3.91,24.92h-20.86l20.86-106.6h27.32l20.72,106.6H345.38z M438.09,467.11c0,25.08-11.86,38.28-34.38,38.28h-28.09v-106.6
				h28.22c22.23,0,34.24,12.77,34.24,36.8V467.11z M471.06,505.4h-20.88v-106.6h20.88V505.4z M546.24,479.42
				c0,17.58-10.8,28.54-30.31,28.54c-19.69,0-30.49-10.96-30.49-28.54v-80.63h20.88v79.73c0,7.66,3.3,11.86,9.61,11.86
				c6,0,9.61-4.2,9.61-11.86v-79.73h20.7V479.42z M615.22,481.98c0,15.31-10.2,25.98-29.88,25.98c-19.22,0-30.02-11.27-30.02-29.12
				v-8.57l21.17-4.04v12.15c0,8.57,2.85,13.52,9,13.52c6.02,0,8.42-4.49,8.42-10.35v-4.36c0-6.6-1.05-9.9-7.81-14.26l-15.18-9.32
				c-10.96-6.6-14.71-14.57-14.71-25.82v-5.57c0-17.4,12.91-25.98,29.28-25.98c18.16,0,29.59,7.21,29.59,27.34v7.79l-20.72,3.91
				v-11.41c0-7.21-2.56-11.86-8.87-11.86c-5.25,0-8.26,3.89-8.26,9v4.8c0,5.55,2.71,9.45,7.66,12.62l15.33,9.3
				c12.01,7.36,15,14.86,15,26.13V481.98z"/>
		</g>
	</g>
</g>
<g id="_x3252_物理的なDB" class="st0">
	<g class="st2">
		<path class="st4" d="M415,69.85c-68.79,0-131.59,9.51-176.81,26.78c-23.34,8.92-41.74,19.71-54.67,32.1
			c-14.71,14.08-22.17,29.87-22.17,46.92c0,14.56,0.06,501.66,0.06,501.66c0,3.21,1.19,6.31,3.34,8.7
			c6.18,6.86,24.76,24.56,63.85,40.74c49.2,20.36,111.87,30.7,186.27,30.72c0.01,0,0.02,0,0.03,0h0.1h0h0.1c0.01,0,0.02,0,0.03,0
			c74.4-0.02,137.07-10.36,186.27-30.72c39.09-16.18,57.68-33.88,63.85-40.74c2.15-2.39,3.34-5.48,3.34-8.7
			c0,0,0.06-487.1,0.06-501.66c0-17.05-7.46-32.84-22.17-46.92c-12.93-12.38-31.32-23.18-54.67-32.1
			C546.59,79.36,483.79,69.85,415,69.85L415,69.85z"/>
	</g>
	<g class="st2">
		<path class="st5" d="M415,82.84c-138.26,0-231.13,39.06-231.13,75.55c0,36.46,92.87,75.53,231.13,75.53s231.14-39.06,231.14-75.53
			C646.14,121.9,553.26,82.84,415,82.84z"/>
		<g>
			<path class="st5" d="M466.86,429.13v-3.46c0-8.55-2.7-12.46-10.21-12.46h-5.84v30.94h6
				C464.32,444.15,466.86,439.34,466.86,429.13z"/>
			<path class="st5" d="M382.7,413.97h-6.45v76.27h6.45c9.32,0,13.67-7.66,13.67-21.62v-33.95
				C396.37,420.42,392.31,413.97,382.7,413.97z"/>
			<path class="st5" d="M457.56,457.35h-6.76v33.63h7.21c7.34,0,10.06-5.1,10.06-14.86v-3.75
				C468.07,461.7,464.91,457.35,457.56,457.35z"/>
			<path class="st5" d="M415,247.9c-121.18,0-219.1-30.57-240.63-72.19l0.06,501.61c9.26,10.27,68.32,67.17,240.66,67.17
				c172.24,0,231.38-56.82,240.72-67.19V175.24C634.77,217.1,536.61,247.9,415,247.9z M417.84,467.11
				c0,25.08-11.86,38.28-34.38,38.28h-28.09v-106.6h28.22c22.23,0,34.24,12.77,34.24,36.8V467.11z M489.54,476.43
				c0,18.16-9.61,28.96-29.43,28.96h-30.18v-106.6h29.28c19.98,0,28.98,10.37,28.98,26.27v3.61c0,10.51-5.12,17.87-13.67,20.41
				c9.16,3.01,15.02,10.37,15.02,24.18V476.43z"/>
		</g>
	</g>
</g>
<g id="_x3253_ノートPC" class="st0">
	<g class="st2">
		<path class="st4" d="M672.29,168.69H162.38c-29.22,0-53,23.78-53,53v337.55h-53c-7.18,0-13,5.82-13,13v11.75
			c0,29.22,23.78,53,53,53h641.91c29.22,0,53-23.78,53-53v-11.75c0-7.18-5.82-13-13-13h-53V221.69
			C725.29,192.46,701.51,168.69,672.29,168.69L672.29,168.69z"/>
	</g>
	<path class="st8" d="M712.29,572.24V221.69c0-22-18-40-40-40H162.38c-22,0-40,18-40,40v350.55h-66v11.75c0,22,18,40,40,40h641.91
		c22,0,40-18,40-40v-11.75H712.29z M457.33,572.57h-80v-20h80V572.57z M668.29,512.84H166.38V225.68h501.91V512.84z"/>
</g>
<g id="_x3254_デスクトップPC" class="st0">
	<g class="st2">
		<g>
			<path class="st4" d="M776.39,167.85H666.52c-25.92,0-47.02,21.09-47.02,47.02v400.27c0,25.92,21.09,47.01,47.02,47.01h109.86
				c25.92,0,47.02-21.09,47.02-47.01V214.86C823.4,188.94,802.31,167.85,776.39,167.85L776.39,167.85z"/>
		</g>
		<g>
			<path class="st4" d="M559.48,167.85H59.84c-29.22,0-53,23.78-53,53v283.81c0,29.22,23.78,53,53,53h202.07v31.5h-57.19
				c-25.92,0-47.02,21.09-47.02,47.02v12.97c0,7.18,5.82,13,13,13h277.9c7.18,0,13-5.82,13-13v-12.97
				c0-25.92-21.09-47.02-47.02-47.02h-57.19v-31.5h202.08c29.22,0,53-23.78,53-53V220.85C612.48,191.62,588.71,167.85,559.48,167.85
				L559.48,167.85z"/>
		</g>
	</g>
	<g class="st2">
		<path class="st5" d="M776.39,180.85H666.52c-18.71,0-34.02,15.31-34.02,34.02v400.27c0,18.71,15.31,34.01,34.02,34.01h109.86
			c18.71,0,34.02-15.31,34.02-34.01V214.86C810.4,196.15,795.1,180.85,776.39,180.85z M763.98,305.07h-85.04v-20.69h85.04V305.07z
			 M763.98,251.61h-85.04v-20.69h85.04V251.61z"/>
		<path class="st5" d="M559.48,180.85H59.84c-22,0-40,18-40,40v283.81c0,22,18,40,40,40h215.07v57.5h-70.19
			c-18.71,0-34.02,15.31-34.02,34.02v12.97h277.9v-12.97c0-18.71-15.31-34.02-34.02-34.02h-70.19v-57.5h215.08c22,0,40-18,40-40
			V220.85C599.48,198.85,581.48,180.85,559.48,180.85z M560.62,506.33H58.7V219.18h501.92V506.33z"/>
	</g>
</g>
<g id="_x3255_ノートPC_xFF08_VPN8_xFF09_" class="st0">
	<g class="st2">
		<g>
			<path class="st4" d="M672.29,180.85H162.38c-29.22,0-53,23.78-53,53V571.4h-53c-7.18,0-13,5.82-13,13v11.75
				c0,29.22,23.78,53,53,53h641.92c29.22,0,53-23.78,53-53V584.4c0-7.18-5.82-13-13-13h-53V233.85
				C725.29,204.62,701.51,180.85,672.29,180.85L672.29,180.85z"/>
		</g>
	</g>
	<g class="st2">
		<path class="st5" d="M712.29,584.4V233.85c0-22-18-40-40-40H162.38c-22,0-40,18-40,40V584.4h-66v11.75c0,22,18,40,40,40h641.92
			c22,0,40-18,40-40V584.4H712.29z M457.33,584.73h-80v-20h80V584.73z M668.29,525H166.37V237.85h501.92V525z"/>
		<g>
			<g>
				<path class="st5" d="M275.8,334.38h21.48l10.06,69.51c1.05,7.21,1.5,12.46,1.8,18.03h0.74c0.31-5.57,0.76-10.82,1.66-18.03
					l10.06-69.51h21.46l-20.25,106.6h-26.58L275.8,334.38z"/>
				<path class="st5" d="M410.27,361.7v8.87c0,19.06-10.53,29.57-29.59,29.57h-8.85v40.84h-20.88v-106.6h29.28
					C400.06,334.38,410.12,343.7,410.27,361.7z M388.79,362.47c0-9.61-3.3-13.67-10.64-13.67h-6.31v36.64h6.31
					c7.34,0,10.64-4.51,10.64-15.18V362.47z"/>
				<path class="st5" d="M419.22,334.38h22.36l17.87,51.8c1.66,5.25,3.16,10.66,4.36,15.92h0.31c-0.45-7.81-0.76-15.61-0.76-23.57
					v-44.14h18.32v106.6h-20.12l-19.51-56.15c-2.11-6.31-3.46-11.41-4.67-16.82h-0.45c0.45,6.91,0.76,13.52,0.76,20.72v52.25h-18.48
					V334.38z"/>
				<path class="st5" d="M551.56,408.7v6.91c0,16.97-11.41,27.64-29.57,27.64c-18.77,0-29.73-10.08-29.73-27.48v-7.36
					c0-9.32,4.94-16.37,14.1-19.96c-8.4-4.51-12.75-11.27-12.75-22.68v-5.86c0-15.63,11.11-25.53,28.09-25.53
					c17.27,0,27.91,9.32,27.91,25.08v6.45c0,8.87-3.59,14.73-11.86,19.08C547.21,389.63,551.56,396.39,551.56,408.7z M531.15,407.06
					c0-7.05-2.56-9.61-9.92-12.46l-1.8-0.76c-4.96,2.56-6.76,6.17-6.76,12.62v10.21c0,7.66,3.3,11.41,9.47,11.41c6,0,9-3.75,9-11.25
					V407.06z M513.28,367.27c0,6.15,3.14,9.16,9.45,11.56l1.66,0.59c4.04-2.4,5.7-5.84,5.7-11.56v-8.69c0-7.36-2.85-10.82-8.4-10.82
					c-5.57,0-8.42,3.3-8.42,10.66V367.27z"/>
			</g>
		</g>
	</g>
</g>
<g id="_x3256_デスクトップPC_xFF08_VPN8_xFF09_" class="st0">
	<g class="st2">
		<g>
			<path class="st4" d="M776.39,167.85H666.52c-25.92,0-47.01,21.09-47.01,47.02v400.27c0,25.92,21.09,47.01,47.01,47.01h109.86
				c25.92,0,47.02-21.09,47.02-47.01V214.86C823.4,188.94,802.31,167.85,776.39,167.85L776.39,167.85z"/>
		</g>
		<g>
			<g>
				<path class="st4" d="M559.48,167.85H59.84c-29.22,0-53,23.78-53,53v283.81c0,29.22,23.78,53,53,53h202.08v31.5h-57.19
					c-25.92,0-47.02,21.09-47.02,47.02v12.97c0,7.18,5.82,13,13,13h277.9c7.18,0,13-5.82,13-13v-12.97
					c0-25.92-21.09-47.02-47.02-47.02h-57.19v-31.5h202.08c29.22,0,53-23.78,53-53V220.85
					C612.48,191.62,588.71,167.85,559.48,167.85L559.48,167.85z"/>
			</g>
		</g>
	</g>
	<g class="st2">
		<path class="st5" d="M776.39,180.85H666.52c-18.71,0-34.01,15.31-34.01,34.02v400.27c0,18.71,15.31,34.01,34.01,34.01h109.86
			c18.71,0,34.02-15.31,34.02-34.01V214.86C810.4,196.15,795.1,180.85,776.39,180.85z M763.98,305.07h-85.04v-20.69h85.04V305.07z
			 M763.98,251.61h-85.04v-20.69h85.04V251.61z"/>
		<g>
			<path class="st5" d="M559.48,180.85H59.84c-22,0-40,18-40,40v283.81c0,22,18,40,40,40h215.08v57.5h-70.19
				c-18.71,0-34.02,15.31-34.02,34.02v12.97h277.9v-12.97c0-18.71-15.31-34.02-34.01-34.02h-70.19v-57.5h215.08c22,0,40-18,40-40
				V220.85C599.48,198.85,581.48,180.85,559.48,180.85z M560.62,506.33H58.7V219.18h501.91V506.33z"/>
			<g>
				<g>
					<g>
						<g>
							<path class="st5" d="M169.03,312.49h21.48L200.58,382c1.05,7.21,1.5,12.46,1.8,18.03h0.74c0.31-5.57,0.76-10.82,1.66-18.03
								l10.06-69.51h21.46l-20.25,106.6h-26.58L169.03,312.49z"/>
							<path class="st5" d="M303.51,339.81v8.87c0,19.06-10.53,29.57-29.59,29.57h-8.85v40.84h-20.88v-106.6h29.28
								C293.29,312.49,303.35,321.8,303.51,339.81z M282.02,340.57c0-9.61-3.3-13.67-10.64-13.67h-6.31v36.64h6.31
								c7.34,0,10.64-4.51,10.64-15.18V340.57z"/>
							<path class="st5" d="M312.45,312.49h22.36l17.87,51.8c1.66,5.25,3.16,10.66,4.36,15.92h0.31
								c-0.45-7.81-0.76-15.61-0.76-23.57v-44.14h18.32v106.6H354.8l-19.51-56.15c-2.11-6.31-3.46-11.41-4.67-16.82h-0.45
								c0.45,6.91,0.76,13.52,0.76,20.72v52.25h-18.48V312.49z"/>
							<path class="st5" d="M444.8,386.8v6.91c0,16.97-11.41,27.64-29.57,27.64c-18.77,0-29.73-10.08-29.73-27.48v-7.36
								c0-9.32,4.94-16.37,14.1-19.96c-8.4-4.51-12.75-11.27-12.75-22.68v-5.86c0-15.63,11.11-25.53,28.09-25.53
								c17.27,0,27.91,9.32,27.91,25.08v6.45c0,8.87-3.59,14.73-11.86,19.08C440.44,367.74,444.8,374.5,444.8,386.8z M424.39,385.16
								c0-7.05-2.56-9.61-9.92-12.46l-1.8-0.76c-4.96,2.56-6.76,6.17-6.76,12.62v10.21c0,7.66,3.3,11.41,9.47,11.41
								c6,0,9-3.75,9-11.25V385.16z M406.51,345.38c0,6.15,3.14,9.16,9.45,11.56l1.66,0.59c4.04-2.4,5.7-5.84,5.7-11.56v-8.69
								c0-7.36-2.85-10.82-8.4-10.82c-5.57,0-8.42,3.3-8.42,10.66V345.38z"/>
						</g>
					</g>
				</g>
			</g>
		</g>
	</g>
</g>
<g id="_x3257_複合機" class="st0">
	<g class="st2">
		<path class="st4" d="M597.15,53.92C597.15,53.92,597.15,53.92,597.15,53.92c-2.12,0-4.25,0.26-6.32,0.76l-224.83,55.06
			c-8.59-10.63-22.84-18.01-36.07-18.01H221.6c-18.2,0-33,14.8-33,33v72.59v41.97v13.98v33.44V480.1v13.98v110.2v13.98v91.01
			c0,18.2,14.8,33,33,33h386.93c18.2,0,33-14.8,33-33v-91.01v-13.98v-110.2V480.1V253.29V239.3v-41.97c0-18.2-14.8-33-33-33H394.56
			l-0.35-0.69L603,112.5c6.85-1.67,12.77-5.92,16.68-11.95c3.91-6.03,5.35-13.18,4.08-20.12l-0.93-5.02
			C620.54,62.95,609.74,53.92,597.15,53.92L597.15,53.92z"/>
	</g>
	<g class="st2">
		<path class="st5" d="M610.04,77.76c-1.4-7.57-8.66-12.27-16.14-10.45l-220.07,53.74l15.29,30.29l210.78-51.47
			c7.48-1.83,12.46-9.52,11.06-17.09L610.04,77.76z"/>
		<g>
			<path class="st5" d="M628.52,239.3v-41.97c0-11-9-20-20-20H386.56l-27.63-54.74c-4.96-9.82-18.01-17.85-29.01-17.85H221.6
				c-11,0-20,9-20,20v72.59v41.97H628.52z"/>
			<path class="st5" d="M469.39,618.27v26.33H360.73v-26.33H201.6v91.01c0,11,9,20,20,20h386.93c11,0,20-9,20-20v-91.01H469.39z"/>
			<path class="st5" d="M201.6,253.29v33.44V480.1h426.93V253.29H201.6z M596.31,439.3h-62.5v-13.98h62.5V439.3z M533.81,400.47
				v-13.98h62.5v13.98H533.81z"/>
			<polygon class="st5" points="201.6,494.09 201.6,604.28 628.52,604.28 628.52,494.09 469.39,494.09 469.39,520.42 360.73,520.42 
				360.73,494.09 			"/>
		</g>
	</g>
</g>
<g id="_x3258_標準SIM" class="st0">
	<g class="st2">
		<path class="st4" d="M562.38,131.09H267.62c-29.22,0-53,23.78-53,53v430.47c0,3.45,1.37,6.75,3.81,9.19l80,80
			c2.44,2.44,5.74,3.81,9.19,3.81h254.75c29.22,0,53-23.78,53-53V184.09C615.38,154.86,591.6,131.09,562.38,131.09L562.38,131.09z"
			/>
	</g>
	<path class="st8" d="M562.38,144.09H267.62c-22,0-40,18-40,40v430.47l80,80h254.75c22,0,40-18,40-40V184.09
		C602.38,162.09,584.38,144.09,562.38,144.09z M421.99,225.55h33.65v48.4h-33.65V225.55z M374.37,225.55h33.63v48.4h-33.63V225.55z
		 M326.74,225.55h33.65v48.4h-33.65V225.55z M360.39,402.08h-33.65v-48.4h33.65V402.08z M408.01,402.08h-33.63v-48.4h33.63V402.08z
		 M455.64,402.08h-33.65v-48.4h33.65V402.08z M503.26,402.08h-33.63v-62.38H326.74v-51.76h176.52V402.08z M503.26,273.95h-33.63
		v-48.4h33.63V273.95z"/>
</g>
<g id="_x3259_MINI_SIM" class="st0">
	<g class="st2">
		<path class="st4" d="M562.38,131.09H267.62c-29.22,0-53,23.78-53,53v430.47c0,3.45,1.37,6.75,3.81,9.19l80,80
			c2.44,2.44,5.74,3.81,9.19,3.81h254.75c29.22,0,53-23.78,53-53V184.09C615.38,154.86,591.6,131.09,562.38,131.09L562.38,131.09z"
			/>
	</g>
	<path class="st8" d="M562.38,144.09H267.62c-22,0-40,18-40,40v430.47l80,80h254.75c22,0,40-18,40-40V184.09
		C602.38,162.09,584.38,144.09,562.38,144.09z M469.63,225.55h33.63v48.4h-33.63V225.55z M421.99,225.55h33.65v48.4h-33.65V225.55z
		 M374.37,225.55h33.63v48.4h-33.63V225.55z M326.74,225.55h33.65v48.4h-33.65V225.55z M326.74,287.94h176.52v114.14h-33.63v-62.38
		H326.74V287.94z M408.01,353.68v48.4h-33.63v-48.4H408.01z M326.74,353.68h33.65v48.4h-33.65V353.68z M383.73,581.59h-15.61v-46.43
		c0-7.4,0-17.68,0.39-25.08h-0.51c-0.53,4.41-0.92,7.79-1.84,13.65l-9.75,57.85h-12.99l-9.88-57.85c-0.78-5.86-1.56-10.92-1.7-13.65
		h-0.64c0.39,7.4,0.39,17.68,0.39,25.08v46.43h-15.35v-92.3h24.2l7.79,47.97c0.78,4.94,1.43,10.02,1.56,13.52h0.51
		c0-3.5,0.78-8.57,1.45-13.52l7.66-47.97h24.32V581.59z M415.06,581.59h-18.09v-92.3h18.09V581.59z M421.99,353.68h33.65v48.4
		h-33.65V353.68z M482.38,581.59h-17.4l-16.91-48.63c-1.82-5.45-2.99-9.88-4.02-14.55h-0.39c0.39,5.98,0.64,11.7,0.64,17.93v45.25
		h-16v-92.3h19.38l15.47,44.84c1.45,4.55,2.73,9.24,3.77,13.79h0.27c-0.39-6.76-0.66-13.52-0.66-20.41v-38.22h15.86V581.59z
		 M513.73,581.59h-18.09v-92.3h18.09V581.59z"/>
</g>
<g id="_x325A_MICRO_SIM" class="st0">
	<g class="st2">
		<g>
			<path class="st4" d="M562.38,170.77H267.62c-29.22,0-53,23.78-53,53V589.2c0,3.45,1.37,6.75,3.81,9.19l60,60
				c2.44,2.44,5.74,3.81,9.19,3.81h274.75c29.22,0,53-23.78,53-53V223.77C615.38,194.55,591.6,170.77,562.38,170.77L562.38,170.77z"
				/>
		</g>
	</g>
	<g class="st2">
		<path class="st5" d="M532.27,489.91c-5.98,0-9.36,4.55-9.36,12.87v42.64c0,8.32,3.38,12.87,9.36,12.87
			c6.11,0,9.49-4.55,9.49-12.87v-42.64C541.76,494.46,538.38,489.91,532.27,489.91z"/>
		<path class="st5" d="M562.38,183.77H267.62c-22,0-40,18-40,40V589.2l60,60h274.75c22,0,40-18,40-40V223.77
			C602.38,201.77,584.38,183.77,562.38,183.77z M422,236.9h33.63v48.4H422V236.9z M374.36,236.9h33.65v48.4h-33.65V236.9z
			 M326.74,236.9h33.63v48.4h-33.63V236.9z M326.74,365.01h33.63v48.4h-33.63V365.01z M339.87,570.24h-15.61v-46.41
			c0-7.4,0-17.68,0.39-25.1h-0.51c-0.53,4.43-0.92,7.81-1.84,13.65l-9.75,57.85h-12.99l-9.88-57.85c-0.78-5.84-1.56-10.92-1.7-13.65
			h-0.64c0.39,7.42,0.39,17.7,0.39,25.1v46.41h-15.35v-92.3h24.2l7.79,47.97c0.78,4.94,1.43,10.02,1.56,13.54h0.51
			c0-3.52,0.78-8.59,1.45-13.54l7.66-47.97h24.32V570.24z M371.2,570.24h-18.09v-92.3h18.09V570.24z M435.53,510.32l-18.57,3.5
			v-12.34c0-7.68-2.62-11.56-8.07-11.56c-5.59,0-8.57,4.02-8.57,12.99v41.74c0,8.85,2.99,13.52,8.57,13.52
			c5.33,0,8.18-4.02,8.18-11.56V532.8l18.46,3.77v10.02c0,16.89-10,25.86-26.64,25.86c-17.68,0-27.17-9.61-27.17-28.85v-39.14
			c0-18.85,9.88-28.73,27.56-28.73c16.76,0,26.25,8.32,26.25,25.21V510.32z M374.36,413.4v-48.4h33.65v48.4H374.36z M422,413.4
			v-48.4h33.63v48.4H422z M480.53,570.24l-10.14-37.56h-6.5v37.56H445.8v-92.3h24.59c19.24,0,26.78,9.24,26.89,24.71v4.41
			c0,10.92-4.02,17.95-10.92,21.33l13.01,41.86H480.53z M503.27,413.4h-33.65v-62.38H326.74v-51.74h176.52V413.4z M503.27,285.3
			h-33.65v-48.4h33.65V285.3z M560.36,543.21c0,18.85-10.41,29.24-28.09,29.24c-17.56,0-27.95-10.39-27.95-29.24v-38.22
			c0-18.85,10.39-29.26,27.95-29.26c17.68,0,28.09,10.41,28.09,29.26V543.21z"/>
		<path class="st5" d="M469.22,490.42h-5.33v30.68h5.33c7.01,0,9.49-4.16,9.49-13.12v-5.86
			C478.71,493.68,476.1,490.42,469.22,490.42z"/>
	</g>
</g>
<g id="_x325B_NANO_SIM" class="st0">
	<g class="st2">
		<g>
			<path class="st4" d="M539.7,170.77H290.3c-29.22,0-53,23.78-53,53V589.2c0,3.45,1.37,6.75,3.81,9.19l60,60
				c2.44,2.44,5.74,3.81,9.19,3.81h229.4c29.22,0,53-23.78,53-53V223.77C592.7,194.55,568.92,170.77,539.7,170.77L539.7,170.77z"/>
		</g>
	</g>
	<g class="st2">
		<path class="st5" d="M383.24,493.29h-0.39c-0.39,4.94-1.04,8.71-1.7,13.13l-4.55,29.12h12.87l-4.55-29.12
			C384.27,502,383.75,498.23,383.24,493.29z"/>
		<path class="st5" d="M513.63,489.91c-5.98,0-9.36,4.55-9.36,12.87v42.64c0,8.32,3.38,12.87,9.36,12.87
			c6.11,0,9.49-4.55,9.49-12.87v-42.64C523.12,494.46,519.74,489.91,513.63,489.91z"/>
		<path class="st5" d="M539.7,183.77H290.3c-22,0-40,18-40,40V589.2l60,60h229.4c22,0,40-18,40-40V223.77
			C579.7,201.77,561.7,183.77,539.7,183.77z M469.63,236.88h33.62v48.4h-33.62V236.88z M422,236.88h33.62v48.4H422V236.88z
			 M374.37,236.88H408v48.4h-33.62V236.88z M326.75,236.88h33.61v48.4h-33.61V236.88z M326.75,299.27h176.49v114.14h-33.62v-62.38
			H326.75V299.27z M455.62,365.01v48.4H422v-48.4H455.62z M408,365.01v48.4h-33.62v-48.4H408z M326.75,365.01h33.61v48.4h-33.61
			V365.01z M345.13,570.24h-17.4l-16.91-48.61c-1.82-5.47-2.99-9.88-4.02-14.57h-0.39c0.39,5.98,0.64,11.7,0.64,17.95v45.23h-16
			v-92.3h19.38l15.47,44.86c1.45,4.55,2.73,9.22,3.77,13.77h0.27c-0.39-6.76-0.66-13.52-0.66-20.41v-38.22h15.86V570.24z
			 M394.8,570.24l-3.38-21.58h-16.76l-3.4,21.58H353.2l18.07-92.3h23.67l17.93,92.3H394.8z M475.13,570.24h-17.4l-16.91-48.61
			c-1.82-5.47-2.99-9.88-4.02-14.57h-0.39c0.39,5.98,0.64,11.7,0.64,17.95v45.23h-16v-92.3h19.38l15.47,44.86
			c1.45,4.55,2.73,9.22,3.77,13.77h0.27c-0.39-6.76-0.66-13.52-0.66-20.41v-38.22h15.86V570.24z M541.72,543.21
			c0,18.85-10.41,29.24-28.09,29.24c-17.56,0-27.95-10.39-27.95-29.24v-38.22c0-18.85,10.39-29.26,27.95-29.26
			c17.68,0,28.09,10.41,28.09,29.26V543.21z"/>
	</g>
</g>
<g id="_x325C_NW管理者" class="st0">
	<g class="st2">
		<path class="st4" d="M416.85,96.91L416.85,96.91c-32.03,0-72.2,12.96-86.59,19.9c-21.49,10.31-38.16,24.53-49.51,42.27
			c-9.57,14.94-15.4,32.45-17.35,52.05c-2.96,29.71,3.61,58.65,8.38,75.99c-1.65,1.51-3.14,3.13-4.49,4.87
			c-9.45,12.25-11.48,28.2-6.03,47.41c0.01,0.02,0.01,0.04,0.02,0.06c8.47,29.34,20.45,46.85,39.42,57.14
			c3.95,14.97,13.07,41.31,32.17,64.46l-3.55,11.06l-35.34,16.04c-49.39,15.38-89.17,29.2-114.24,54.29
			c-14.82,14.8-25.63,43.77-32.14,86.08c-4.83,31.4-5.86,60.67-6.06,68.9c-0.09,3.5,1.25,6.89,3.69,9.4s5.8,3.92,9.3,3.92h90.86
			l4.96,44.3c0.74,6.58,6.3,11.55,12.92,11.55h302.81c6.62,0,12.18-4.98,12.92-11.55l4.96-44.3h95.46c3.5,0,6.86-1.41,9.31-3.92
			c2.45-2.51,3.78-5.9,3.69-9.4c-0.21-8.22-1.26-37.49-6.1-68.89c-6.52-42.31-17.32-71.27-32.09-86.07
			c-25.11-25.13-65.28-39.08-115.18-54.6l-34.19-15.79l-3.44-10.73c16.91-20.92,25.81-45.56,30.48-64.85
			c18.84-10.35,30.75-27.84,39.18-57.04c5.47-18.99,3.57-34.82-5.65-47.07c-1.35-1.79-2.84-3.45-4.51-5
			c4.87-16.2,10.73-38.9,10.76-63.15c0.04-34.96-12.08-64.26-36.02-87.1c-6.83-6.51-20.35-14.96-35.3-22.05
			c-12.45-5.91-30.27-12.95-44.46-12.95c-2.96,0-5.71,0.31-8.23,0.92C439.81,98.93,429.64,96.91,416.85,96.91L416.85,96.91z"/>
	</g>
	<g class="st2">
		<path class="st5" d="M229.19,574.85h131.9l-21.13-87.88l68.54,45.02l-20.61,15l12.05,27.86h34.34l11.98-27.94l-20.39-14.86
			l67.78-44.72l-21.01,87.51h127.53l-13.75,122.9h93.01c-0.38-14.93-4.03-115.67-34.4-146.11c-23.19-23.21-61.79-36.44-110.65-51.62
			l-38.83-17.9l-0.37-0.26l-0.02,0.09l-0.18-0.09l-0.27,1.11l-7.87-24.58c20.65-22.54,29.8-51.91,33.77-70.8
			c16.05-7.05,28.76-19.73,38-51.74c4.28-14.84,3.09-26.84-3.54-35.64c-2.69-3.59-5.96-5.93-9.29-7.76
			c10.76-34.27,30.07-99.03-19.07-145.91c-13.41-12.79-66.66-39.93-80.39-28.79c-21.35-18.91-90.34,1.1-110.39,10.77
			c-83.21,39.92-59.29,129.19-49.11,163.82c-3.29,1.79-6.52,4.09-9.22,7.58c-6.8,8.81-8.09,20.88-3.82,35.92
			c9.27,32.11,22,44.75,38.12,51.74c4.8,21.7,16.24,49.53,35.61,70.45l-8.28,25.81l-0.48-2l-0.02,0.01l0-0.01l-40.08,18.48
			c-48.4,15.05-86.65,28.26-109.68,51.31c-30.46,30.44-34.04,131.18-34.4,146.11h88.4L229.19,574.85z M311.68,236.64
			c106.07-26.52,141.87-49.01,141.87-49.01s20.82,17.3,66.41,43.26c1.79,12.27,1.83,28.28,0.06,46.96
			c-1.86-2.85-4.77-4.68-7.52-5.15c-14.1-3.05-33.71-4.08-52.46-2.68c-0.76,0.06-18.75,1.43-26.47,5.02
			c-1.69,0.84-3.47,1.7-5.06,2.54c-2.67,1.43-6.41,2.89-7.83,3.26c-0.58,0.1-1.15,0.21-1.71,0.35l-0.85,0.18
			c-0.77,0.16-3.1,0.16-3.89,0l-0.88-0.2c-0.54-0.12-1.1-0.23-1.41-0.27c-1.73-0.43-5.38-1.88-8.11-3.34
			c-1.45-0.76-3.1-1.56-5.08-2.54c-7.67-3.57-25.64-4.94-26.42-5c-19.04-1.43-38.19-0.43-52.3,2.66c-2.86,0.47-5.8,2.31-7.66,5.17
			C310.86,261.98,310.62,247.99,311.68,236.64z M503.75,300.95c0.01,3.69-0.9,16.23-13.2,22.38c-4.79,2.4-12,3.83-19.32,3.83
			c-13.86,0-24.82-4.71-29.34-12.62c-9.6-16.82-6.84-23.07-6.81-23.13l0.09-0.21c0.03-0.06,2.63-5.98,29.87-7.6
			c4.74-0.29,8.77-0.43,12.28-0.43c17.64,0,22.03,3.67,23.78,6.43C502.49,291.83,503.75,297.24,503.75,300.95z M390.5,314.54
			c-4.54,7.91-15.53,12.62-29.38,12.62c-7.19,0-14.58-1.46-19.3-3.83c-12.28-6.13-13.21-18.69-13.21-22.38
			c0.02-3.71,1.28-9.12,2.64-11.35c2.08-3.26,5.49-6.43,21.79-6.43c3.52,0,9.55,0.12,14.27,0.43c27.3,1.62,29.84,7.52,30.03,7.97
			C397.36,291.63,399.91,298.06,390.5,314.54z M330.44,378.5l-1.03-5.74l-5.51-1.93c-9.03-3.16-21.42-7.52-30.93-40.49
			c-1.67-5.86-2.95-13.79,0.4-18.16c3.39-4.45,10.99-4.51,11.09-4.51l11.18,0.22c3.36,18.26,6.66,20.97,15.5,25.68l2.31,1.25
			c5.47,2.97,16.04,4.9,26.94,4.9c8.33,0,20.4-1.15,30.58-6.64c15.61-8.48,20.93-33.03,20.94-33.16c0.14-0.25,1.13-0.96,3.91-0.96h1
			c2.62,0,3.48,0.68,3.6,1.15c0.21,1,5.55,24.59,20.96,32.97c10.17,5.49,22.24,6.64,30.58,6.64c10.89,0,21.46-1.93,26.91-4.9
			l2.28-1.23c8.91-4.73,12.22-7.46,15.6-25.92h10.96c0.08,0,7.95,0.06,11.35,4.57c3.29,4.38,1.98,12.25,0.3,18.07
			c-9.51,32.97-21.88,37.36-30.9,40.59l-5.47,1.93l-1.03,5.72c-2.44,13.67-10.6,47.89-33.46,69.98l-4.45,4.32l7.92,24.82
			l-54.77,36.13l-55.03-36.13l8.06-25.21l-4.47-4.32C345.34,428.43,333.97,398.31,330.44,378.5z"/>
		<path class="st5" d="M244.83,588.84l18.44,164.77h302.81l18.44-164.77H244.83z M429.15,688.1H400.2l-2.83-19.58h34.62
			L429.15,688.1z"/>
		<path class="st5" d="M415,414.48c-24.86,0-37.44-20.2-37.96-21.05c-2.01-3.3-0.97-7.6,2.33-9.61c3.31-2.03,7.6-0.96,9.62,2.34
			c0.35,0.55,9.15,14.34,26.01,14.34c16.87,0,25.66-13.79,26.04-14.38c2.02-3.28,6.34-4.3,9.62-2.27c3.28,2.01,4.32,6.29,2.31,9.57
			C452.45,394.29,439.87,414.48,415,414.48z"/>
	</g>
</g>
<g id="_x325D_NW構築の作業者" class="st0">
	<g class="st2">
		<path class="st4" d="M411.96,84.34c-26.47,0-49.93,3.57-69.75,10.63c-16.68,5.93-30.89,14.34-42.26,25
			c-21.97,20.61-25.78,42.41-26.14,44.82c-0.82,5.45-7.75,55.56-11.85,85.27c-0.54,2.84-1.24,9.77,2.72,16.92
			c2.28,4.12,7.94,9.86,12.7,14.3c-4.82,2.79-8.99,6.4-12.31,10.71c-9.45,12.25-11.48,28.2-6.03,47.41
			c0.01,0.02,0.01,0.04,0.02,0.06c8.48,29.34,20.45,46.85,39.42,57.14c3.96,14.97,13.09,41.34,32.18,64.47l-3.18,9.94l-28.79,13.48
			l-11.35,5.13c-45.36,14.22-84.89,28.06-109.65,52.84c-14.81,14.8-25.63,43.77-32.14,86.08c-4.83,31.4-5.86,60.67-6.06,68.9
			c-0.09,3.5,1.25,6.89,3.69,9.4c2.45,2.51,5.8,3.92,9.3,3.92h525.02c3.5,0,6.86-1.41,9.3-3.92c2.45-2.51,3.78-5.89,3.69-9.4
			c-0.2-8.22-1.23-37.5-6.06-68.9c-6.51-42.32-17.33-71.28-32.15-86.09c-24.75-24.77-64.29-38.62-109.65-52.84l-11.35-5.13
			l-29.02-13.59l-3.05-9.54c16.91-20.92,25.82-45.57,30.49-64.85c18.84-10.35,30.75-27.84,39.18-57.04
			c5.46-19,3.55-34.83-5.66-47.07c-3.04-4.04-6.84-7.5-11.25-10.26c3.39-4.21,7.55-10.14,9.47-15.84c2.48-7.37,1.37-13.68,0.4-16.98
			c-1.41-10.18-10.79-78.13-11.75-84.52c-0.36-2.42-4.17-24.22-26.14-44.82c-11.36-10.66-25.58-19.07-42.26-25
			C461.89,87.91,438.42,84.34,411.96,84.34L411.96,84.34z"/>
	</g>
	<g class="st2">
		<g>
			<path class="st5" d="M643.11,551.64c-22.29-22.3-58.91-35.4-105.1-49.86l11.07,35.89l-30.08,10.68l8.54,36.11L420,639.51v58.23
				h-10v-58.23l-107.55-55.05l8.54-36.11l-30.08-10.68l11.07-35.89c-46.19,14.46-82.81,27.56-105.1,49.86
				c-30.46,30.44-34.04,131.18-34.4,146.11h525.02C677.15,682.82,673.57,582.08,643.11,551.64z M338.25,653.93h-90.49v-13.98h90.49
				V653.93z M580.21,653.93h-90.5v-13.98h90.5V653.93z"/>
			<path class="st5" d="M549.13,252.26c-2.05-14.84-10.98-79.46-11.89-85.54c-1.03-6.88-16.34-69.37-125.29-69.37
				s-124.26,62.5-125.29,69.37c-0.91,6.08-9.84,70.69-11.89,85.54c14.36-13.94,54.93-44.16,137.17-44.16
				C494.21,208.09,534.77,238.32,549.13,252.26z"/>
			<path class="st5" d="M309.67,387.59c4.81,21.7,16.26,49.55,35.62,70.45l-7.15,22.33l-34,15.92l-10.84,35.17l29.49,10.49
				L314,579.15l91.51,46.83l-53.12-116.11c11.89,13.64,31.7,25.9,62.65,25.9c31.05,0,50.84-12.34,62.64-26.04l-53.18,116.25
				L516,579.15l-8.79-37.21l29.49-10.49l-10.84-35.17l-34.23-16.03l-7-21.87c20.65-22.54,29.8-51.91,33.77-70.8
				c16.05-7.05,28.76-19.73,38-51.74c4.27-14.86,3.08-26.84-3.55-35.64c-4.55-6.05-10.74-9.18-16.13-10.82
				c0.42-3.47,0.73-7.12,1.06-10.72c-6.28,4.15-13.7,8.25-21.41,11.18c-0.28,2.17-0.42,4.15-0.74,6.38l-1.66,11.45h11.55
				c0.08,0,7.95,0.06,11.35,4.57c3.3,4.38,1.99,12.25,0.31,18.07c-9.51,32.97-21.88,37.36-30.9,40.59l-5.47,1.93l-1.03,5.72
				c-2.44,13.67-10.6,47.89-33.46,69.98l-4.45,4.32l9.3,29.14c-2.77,8.05-14.87,33.79-56.14,33.79c-41.34,0-53.59-25.8-56.41-33.81
				l9.43-29.51l-4.47-4.32c-20.43-19.69-31.81-49.82-35.34-69.63l-1.03-5.74l-5.51-1.93c-9.03-3.16-21.41-7.52-30.93-40.49
				c-1.67-5.86-2.95-13.79,0.4-18.16c3.4-4.45,11-4.51,11.1-4.51l11.8,0.23l-1.7-11.68c-0.25-1.7-0.34-3.19-0.56-4.85
				c-7.47-2.29-14.8-6.01-21.32-9.99c0.27,2.66,0.48,5.41,0.79,7.99c-5.28,1.58-11.37,4.67-15.92,10.57
				c-6.8,8.81-8.09,20.88-3.82,35.92C280.83,367.96,293.57,380.59,309.67,387.59z"/>
		</g>
		<path class="st5" d="M411.96,267.94c20.53,0,38.45,5.02,54.25,9.45c13.26,3.73,24.66,6.84,34.44,6.23
			c15.99-1.17,35.49-15.53,43.6-22.05c-10.65-10.92-49.4-43.48-132.29-43.48s-121.64,32.56-132.29,43.48
			c8.12,6.52,27.62,20.88,43.6,22.05c9.79,0.68,21.17-2.5,34.44-6.23C373.51,272.96,391.43,267.94,411.96,267.94z"/>
		<circle class="st5" cx="371.8" cy="308.09" r="11.67"/>
		<circle class="st5" cx="453.68" cy="308.09" r="11.67"/>
		<path class="st5" d="M412.96,414.48c-24.87,0-37.45-20.2-37.97-21.05c-2.01-3.3-0.97-7.6,2.33-9.61c3.32-2.03,7.61-0.96,9.62,2.34
			c0.35,0.55,9.15,14.34,26.02,14.34c17.08,0,25.92-14.2,26.01-14.34c2-3.3,6.31-4.38,9.62-2.34c3.3,2.01,4.35,6.31,2.33,9.61
			C450.4,394.29,437.83,414.48,412.96,414.48z"/>
	</g>
</g>
<g id="_x325E_NW利用者" class="st0">
	<g class="st2">
		<path class="st4" d="M415.3,96.91c-12.8,0-22.97,2.02-30.82,6.14c-2.52-0.61-5.27-0.92-8.23-0.92c-14.19,0-32.01,7.04-44.46,12.95
			c-14.95,7.1-28.48,15.55-35.3,22.05c-23.8,22.7-35.92,51.79-36.03,86.45c-0.08,23.89,5.69,46.74,10.36,62.45
			c-1.95,1.63-3.91,3.59-5.73,5.96c-9.45,12.25-11.48,28.2-6.03,47.41c0.01,0.02,0.01,0.04,0.02,0.06
			c8.48,29.34,20.45,46.84,39.42,57.13c3.95,14.97,13.08,41.32,32.18,64.46l-3.22,10.04l-24.89,13.71
			c-52.44,16.18-97.68,30.29-125.01,57.64c-14.81,14.8-25.63,43.77-32.14,86.08c-4.83,31.4-5.86,60.68-6.06,68.9
			c-0.09,3.5,1.25,6.89,3.69,9.4c2.45,2.51,5.8,3.92,9.3,3.92h524.89c3.5,0,6.86-1.42,9.31-3.92c2.45-2.51,3.78-5.9,3.69-9.4
			c-0.21-8.22-1.26-37.49-6.1-68.89c-6.52-42.31-17.32-71.27-32.09-86.07c-27.34-27.36-72.9-41.57-125.72-57.87l-23.85-13.14
			l-3.23-10.1c16.92-20.93,25.82-45.57,30.48-64.86c18.84-10.35,30.74-27.83,39.18-57.04c5.46-19,3.56-34.83-5.66-47.07
			c-1.01-1.34-2.1-2.61-3.26-3.82c4.82-17.32,11.67-46.68,8.85-76.63c-1.86-19.76-7.64-37.41-17.19-52.47
			c-11.36-17.91-28.11-32.27-49.77-42.66C487.5,109.88,447.33,96.91,415.3,96.91L415.3,96.91z"/>
	</g>
	<g class="st2">
		<circle class="st5" cx="373.85" cy="308.09" r="11.67"/>
		<circle class="st5" cx="455.72" cy="308.09" r="11.67"/>
		<path class="st5" d="M415,414.48c-24.86,0-37.44-20.2-37.96-21.05c-2.01-3.3-0.97-7.6,2.33-9.61c3.32-2.03,7.61-0.96,9.62,2.34
			c0.35,0.55,9.15,14.34,26.01,14.34c17.09,0,25.92-14.2,26.01-14.34c2-3.3,6.32-4.38,9.61-2.34c3.31,2.01,4.36,6.31,2.34,9.61
			C452.44,394.29,439.87,414.48,415,414.48z"/>
		<path class="st5" d="M642.83,551.64c-24.89-24.91-67.59-38.35-121.63-55.03l-29.55-16.28l-7.01-21.95
			c20.66-22.54,29.8-51.91,33.76-70.8c16.05-7.05,28.76-19.73,38.01-51.74c4.27-14.84,3.08-26.84-3.55-35.64
			c-2.27-3.02-4.95-5.3-7.73-7.05c10.04-34.06,34.96-124.42-48.88-164.63c-20.05-9.67-89.04-29.68-110.39-10.77
			c-13.73-11.14-66.97,16-80.39,28.79c-48.77,46.53-30.12,110.65-19.32,145.11c-3.82,1.82-7.64,4.22-10.77,8.28
			c-6.8,8.81-8.09,20.88-3.82,35.92c9.28,32.11,22.01,44.75,38.12,51.74c4.8,21.7,16.24,49.53,35.62,70.45l-7.04,21.95l-30.59,16.85
			c-53.71,16.57-96.14,30-120.92,54.8c-30.46,30.44-34.04,131.18-34.4,146.11h154.33h64.66h0.11l-31.6-209.2
			c6.19,18.52,27.66,47.22,75.2,47.22c44.91,0,66.56-25.72,73.97-44.21l-31.06,206.18h0.2h64.46h154.62
			C676.85,682.82,673.2,582.08,642.83,551.64z M415.04,515.77c-41.34,0-53.6-25.8-56.42-33.81l9.44-29.51l-4.47-4.32
			c-20.45-19.71-31.82-49.82-35.34-69.63l-1.03-5.74l-5.51-1.93c-9.03-3.16-21.41-7.5-30.93-40.49c-1.67-5.86-2.95-13.79,0.4-18.16
			c3.39-4.45,10.99-4.51,11.09-4.51l11.79,0.23l-1.69-11.66c-1.98-13.74-3.11-26.37-3.44-37.63c31.14-29.53,52.64-59.64,52.64-59.64
			s51.55,38.36,157.2,65.53c-0.5,9.75-1.5,20.32-3.15,31.74l-1.66,11.43h11.55c0.08,0,7.95,0.06,11.35,4.57
			c3.3,4.38,1.99,12.25,0.31,18.07c-9.52,32.97-21.88,37.36-30.91,40.59l-5.48,1.93l-1.02,5.72c-2.44,13.67-10.58,47.87-33.45,69.98
			l-4.45,4.3l9.3,29.16C468.41,490.03,456.31,515.77,415.04,515.77z"/>
	</g>
</g>
<g id="_x325F_悪人_x30FB_侵入者_xFF08_クラッカー_xFF09_" class="st0">
	<g class="st2">
		<path class="st4" d="M478.12,95.46c-10.2,0-19.26,2.67-28.86,5.51c-10.52,3.1-21.4,6.31-35.25,6.31
			c-13.86,0-24.73-3.21-35.26-6.31c-9.6-2.83-18.67-5.51-28.86-5.51c-9.79,0-19.11,2.56-28.48,7.81c-11.72,6.58-21,24.25-30.1,57.31
			c-5.91,21.47-10.66,45.96-13.96,65.19c-18.54,2.99-33.64,6.55-44.96,10.6c-6.9,2.47-27.89,9.98-27.89,26.85
			c0,17.06,21.57,24.62,28.66,27.1c8.76,3.07,19.7,5.85,32.68,8.31c-0.55,0.63-1.07,1.27-1.58,1.93
			c-9.44,12.24-11.47,28.19-6.02,47.39c0.01,0.02,0.01,0.04,0.02,0.06c8.48,29.34,20.45,46.84,39.41,57.13
			c3.09,11.74,7.53,23.49,13.02,34.48l-33.28,6.08c-4.08,0.75-7.57,3.4-9.37,7.14c-1.8,3.74-1.71,8.12,0.24,11.78l14.46,27.04
			c-45.58,14.49-80.05,27.82-102.99,50.77c-14.81,14.8-25.63,43.77-32.14,86.08c-4.83,31.4-5.86,60.67-6.06,68.9
			c-0.09,3.5,1.25,6.89,3.69,9.4s5.8,3.92,9.3,3.92h90.86l4.96,44.3c0.74,6.58,6.3,11.55,12.92,11.55h302.81
			c6.62,0,12.18-4.98,12.92-11.55l4.96-44.3h95.46c3.5,0,6.86-1.42,9.31-3.92c2.45-2.51,3.78-5.9,3.69-9.4
			c-0.21-8.22-1.26-37.49-6.1-68.89c-6.52-42.31-17.32-71.27-32.09-86.07c-23.05-23.07-58.39-36.63-105.22-51.48l14.08-26.34
			c1.96-3.66,2.05-8.04,0.24-11.78c-1.8-3.74-5.29-6.39-9.37-7.14l-36.74-6.71c5.61-12.26,9.29-24.17,11.66-33.94
			c18.83-10.35,30.74-27.83,39.18-57.04c5.46-19.01,3.55-34.84-5.66-47.07c-0.6-0.79-1.22-1.56-1.87-2.31
			c12.98-2.46,23.93-5.24,32.69-8.31c7.09-2.48,28.66-10.04,28.66-27.11c0-16.72-20.61-24.2-27.38-26.65
			c-11.03-4-25.73-7.52-43.8-10.51c-3.29-19.26-8.05-43.81-13.96-65.33c-9.11-33.16-18.41-50.88-30.14-57.47
			C497.23,98.02,487.91,95.46,478.12,95.46L478.12,95.46z"/>
	</g>
	<g class="st2">
		<g>
			<path class="st5" d="M436.18,332.02l55.28-6.89c0,0,0,19.29-27.85,26.18C440.84,356.95,436.18,332.02,436.18,332.02z"/>
		</g>
		<path class="st5" d="M393.82,332.02l-55.28-6.89c0,0,0,19.29,27.85,26.18C389.16,356.95,393.82,332.02,393.82,332.02z"/>
		<path class="st5" d="M229.19,574.85h370.98l-13.75,122.9h93c-0.38-14.93-4.03-115.67-34.4-146.11
			c-23.86-23.88-64-37.19-114.88-52.94l21.48-40.18l-54.17-9.9c11.31-18.53,17.17-38.39,20.12-52.45
			c16.05-7.05,28.75-19.73,38-51.74c4.27-14.86,3.08-26.84-3.55-35.64c-4.69-6.23-11.1-9.38-16.6-10.96
			c0.09-2.59,0.05-5.41-0.02-8.27c44.76-6.18,73.49-15.67,73.49-26.32c0-10.33-27.02-19.57-69.47-25.75
			c-6.79-41.98-20.73-112.52-39.19-122.87c-29.6-16.6-47.18,5.67-86.24,5.67c-39.06,0-56.64-22.27-86.24-5.67
			c-18.41,10.33-32.34,80.6-39.14,122.61c-43.44,6.19-71.13,15.54-71.13,26.01c0,10.65,28.72,20.13,73.46,26.31
			c-0.06,2.85-0.1,5.66-0.01,8.25c-5.39,1.54-11.71,4.61-16.4,10.7c-6.8,8.81-8.09,20.88-3.82,35.92
			c9.28,32.11,22.01,44.75,38.12,51.74c3.57,16.08,10.83,35.49,22.18,52.98l-51.3,9.37l21.85,40.88
			c-49.85,15.45-89.14,28.71-112.65,52.25c-30.46,30.44-34.04,131.18-34.4,146.11h88.41L229.19,574.85z M324.74,358.7
			c-10.3-7.75-15.21-37.06-16.46-43.62s1.84-12.72,8.89-11.64c21.41,3.28,65.7,5.99,97.83,5.99s76.43-2.71,97.83-5.99
			c7.05-1.08,10.13,5.08,8.89,11.64c-1.25,6.56-6.16,35.87-16.46,43.62c-17.46,13.13-38,16.64-56.29,16.64s-20.16-12.73-33.97-12.73
			c-13.81,0-15.68,12.73-33.97,12.73S342.2,371.82,324.74,358.7z"/>
		<path class="st5" d="M244.83,588.84l18.44,164.77h302.81l18.44-164.77H244.83z M429.15,688.1H400.2l-2.83-19.58h34.62
			L429.15,688.1z"/>
	</g>
</g>
<g id="_x32B1_YNOサーバー" class="st0">
	<g class="st2">
		<path class="st4" d="M415,69.85c-68.79,0-131.59,9.51-176.81,26.78c-23.34,8.92-41.74,19.71-54.67,32.1
			c-14.71,14.08-22.17,29.87-22.17,46.92c0,14.56,0.06,501.66,0.06,501.66c0,3.21,1.19,6.31,3.34,8.7
			c6.18,6.86,24.76,24.56,63.85,40.74c49.2,20.36,111.87,30.7,186.27,30.72c0.01,0,0.02,0,0.03,0h0.1h0h0.1c0.01,0,0.02,0,0.03,0
			c74.4-0.02,137.07-10.36,186.27-30.72c39.09-16.18,57.68-33.88,63.85-40.74c2.15-2.39,3.34-5.48,3.34-8.7
			c0,0,0.06-487.1,0.06-501.66c0-17.05-7.46-32.84-22.17-46.92c-12.93-12.38-31.32-23.18-54.67-32.1
			C546.59,79.36,483.79,69.85,415,69.85L415,69.85z"/>
	</g>
	<g class="st2">
		<path class="st5" d="M415,82.84c-138.26,0-231.15,39.06-231.15,75.55c0,36.46,92.89,75.53,231.15,75.53s231.15-39.06,231.15-75.53
			C646.16,121.9,553.27,82.84,415,82.84z"/>
		<g>
			<path class="st5" d="M493.7,409.95c-6.89,0-10.8,5.25-10.8,14.86v49.24c0,9.61,3.91,14.88,10.8,14.88
				c7.07,0,10.98-5.27,10.98-14.88v-49.24C504.67,415.2,500.77,409.95,493.7,409.95z"/>
			<path class="st5" d="M415,247.9c-121.23,0-219.17-30.59-240.64-72.24l0.06,501.66c9.28,10.27,68.34,67.15,240.68,67.15
				c172.23,0,231.37-56.8,240.72-67.17V175.22C634.8,217.09,536.64,247.9,415,247.9z M353.75,464.44v38.3h-20.88v-38.3l-22.66-68.3
				h21.76l9.02,35.59c1.19,4.8,1.64,8.85,2.25,14.1h0.29c0.61-5.25,1.05-9.3,2.11-14.1l8.71-35.59h21.76L353.75,464.44z
				 M447.84,502.74h-20.12l-19.51-56.15c-2.11-6.31-3.46-11.43-4.67-16.82h-0.45c0.45,6.89,0.76,13.52,0.76,20.72v52.25h-18.48
				v-106.6h22.38l17.85,51.8c1.66,5.25,3.16,10.66,4.36,15.92h0.31c-0.45-7.81-0.76-15.63-0.76-23.57v-44.14h18.32V502.74z
				 M526.14,471.51c0,21.76-12.01,33.77-32.44,33.77c-20.25,0-32.27-12.01-32.27-33.77v-44.14c0-21.78,12.01-33.79,32.27-33.79
				c20.43,0,32.44,12.01,32.44,33.79V471.51z"/>
		</g>
	</g>
</g>
</svg>
