<?xml version="1.0" encoding="utf-8"?>
<!-- Generator: Adobe Illustrator 25.2.1, SVG Export Plug-In . SVG Version: 6.00 Build 0)  -->
<svg version="1.1" xmlns="http://www.w3.org/2000/svg" xmlns:xlink="http://www.w3.org/1999/xlink" x="0px" y="0px"
	 viewBox="0 0 830 830" style="enable-background:new 0 0 830 830;" xml:space="preserve">
<style type="text/css">
	.st0{display:none;}
	.st1{display:inline;fill:#231815;}
	.st2{display:inline;}
	.st3{fill:#231815;}
	.st4{display:inline;fill:#FFFFFF;}
	.st5{fill:#7758C1;}
	.st6{fill:#FFFFFF;}
	.st7{display:inline;fill:#7758C1;}
	.st8{fill:#6E6E6E;}
</style>
<g id="背景" class="st0">
	<rect y="0" class="st1" width="830" height="830"/>
</g>
<g id="枠_x28_参考_x29_" class="st0">
	<g class="st2">
		<path class="st3" d="M814,16v798H16V16H814 M815,15H15v800h800V15L815,15z"/>
	</g>
</g>
<g id="_x33_7_x5F_UTM_xFF08_ブリッジモード_xFF09_" class="st0">
	<path class="st4" d="M816.6,497.98c-0.26-6.65-5.51-12.03-12.15-12.46c-0.29-0.02-30.37-2.11-63.12-13.25
		c-1.92-0.65-3.81-1.35-5.69-2.07V318.93c0-4.25-2.07-8.22-5.55-10.66L408.39,83.42c-2.24-1.56-4.84-2.34-7.45-2.34
		c-2.61,0-5.21,0.78-7.45,2.34L71.82,308.25c-3.48,2.43-5.55,6.41-5.55,10.66v179.42c0,4.24,2.07,8.22,5.55,10.65l322,225.23
		c2.24,1.56,4.84,2.35,7.45,2.35c2.61,0,5.21-0.78,7.45-2.34L551.94,634.1c3.88,19.77,11.7,38.84,23.37,56.82
		c10.9,16.79,25.13,32.64,42.3,47.11c28.99,24.44,56.36,36.56,57.51,37.07c1.66,0.73,3.44,1.09,5.21,1.09s3.55-0.36,5.21-1.09
		c1.15-0.5,28.52-12.62,57.51-37.07c17.17-14.48,31.4-30.33,42.3-47.11c13.84-21.32,22.3-44.18,25.14-67.93
		C818.71,554.46,816.69,500.26,816.6,497.98z"/>
	<g class="st2">
		<path class="st5" d="M616.46,559.37v63.72c0,6.12,2.51,9.48,7.3,9.48c4.56,0,7.3-3.36,7.3-9.48v-63.72h15.73v64.44
			c0,14.04-8.21,22.8-23.03,22.8c-14.93,0-23.14-8.76-23.14-22.8v-64.44H616.46z"/>
		<path class="st5" d="M697.17,573.53h-15.39v71.04h-15.73v-71.04h-15.39v-14.16h46.51V573.53z"/>
		<path class="st5" d="M701.73,559.37h21.2l6.84,44.28c0.68,4.56,1.25,9.24,1.37,12.48h0.46c0-3.24,0.68-7.92,1.25-12.48l6.73-44.28
			h21.32v85.2h-13.68v-42.84c0-6.84,0-16.32,0.34-23.16h-0.46c-0.46,4.08-0.8,7.2-1.6,12.6l-8.55,53.4h-11.4l-8.66-53.4
			c-0.68-5.4-1.37-10.08-1.48-12.6h-0.57c0.34,6.84,0.34,16.32,0.34,23.16v42.84h-13.45V559.37z"/>
		<polygon class="st5" points="280.38,639.16 280.38,560.59 180.82,490.92 180.82,569.53 		"/>
		<polygon class="st5" points="241.57,521.23 393.94,627.86 393.94,548.78 241.57,442.2 		"/>
		<polygon class="st5" points="231.57,514.23 231.57,435.21 79.21,328.64 79.21,407.6 		"/>
		<polygon class="st5" points="170.82,483.92 79.21,419.81 79.21,498.46 170.82,562.53 		"/>
		<polygon class="st5" points="290.38,567.59 290.38,646.16 393.94,718.6 393.94,640.07 		"/>
		<polygon class="st5" points="499.5,563.88 499.5,484.7 407.89,548.78 407.89,627.99 		"/>
		<path class="st5" d="M722.62,464.53v-44.6l-34.37,24.05C689.26,444.73,703.65,455.38,722.62,464.53z"/>
		<path class="st5" d="M544.28,544.75l-136.39,95.45v78.4l141.86-99.23C546.48,590.97,544.95,565.18,544.28,544.75z"/>
		<path class="st5" d="M544.09,497.98c0.26-6.64,5.51-12.02,12.14-12.46c0.27-0.02,24.33-1.7,52.83-10v-67.45l-99.56,69.64v79.17
			l34.46-24.12C543.56,512.04,544.04,499.07,544.09,497.98z"/>
		<path class="st5" d="M619.36,472.28c12.02-4.09,23.42-9.82,32.56-15.07l70.7-49.48v-79.09l-103.57,72.44v71.3
			C619.16,472.35,619.26,472.31,619.36,472.28z"/>
		<g>
			<g>
				<path class="st5" d="M680.34,480.92c11.63,7.41,29.74,17.7,49.72,24.49c19.73,6.71,38.39,10.5,51.79,12.6
					c-0.05,21.22-1.03,58.48-6.1,100.81c-2.18,18.19-8.7,35.85-19.4,52.49c-8.87,13.81-20.64,26.99-34.96,39.2
					c-15.97,13.61-31.66,23-41.06,28.07c-9.41-5.08-25.09-14.47-41.06-28.07c-14.32-12.21-26.09-25.39-34.96-39.2
					c-10.69-16.63-17.22-34.29-19.4-52.49c-5.07-42.34-6.05-79.59-6.1-100.81c13.4-2.1,32.07-5.89,51.8-12.6
					C650.61,498.62,668.71,488.33,680.34,480.92 M680.34,454.3c0,0-26.23,19.9-56.8,30.29c-34.94,11.88-66.47,13.91-66.47,13.91
					s-2.16,54.66,6.01,122.95c11.42,95.4,117.26,141.75,117.26,141.75s105.84-46.35,117.26-141.75
					c8.17-68.29,6.01-122.95,6.01-122.95s-31.53-2.03-66.47-13.91C706.57,474.19,680.34,454.3,680.34,454.3L680.34,454.3z"/>
			</g>
		</g>
		<path class="st5" d="M400.91,94.18L84.4,315.41l316.51,221.23l316.51-221.23L400.91,94.18z M234.07,342.64l152.4-106.52
			l-28.28-19.77l94.78-8.55l-12.23,66.25l-28.28-19.77l-152.4,106.52L234.07,342.64z M344.71,420.17l12.23-66.25l28.28,19.77
			l152.4-106.52l25.99,18.17l-152.4,106.52l28.28,19.77L344.71,420.17z"/>
	</g>
</g>
<g id="_x33_8_x5F_UTM_xFF08_ルーターモード_xFF09_" class="st0">
	<path class="st4" d="M816.6,497.98c-0.26-6.65-5.51-12.03-12.15-12.46c-0.29-0.02-30.37-2.11-63.12-13.25
		c-1.92-0.65-3.81-1.35-5.69-2.07V318.93c0-4.25-2.07-8.22-5.55-10.66L408.39,83.42c-2.24-1.56-4.84-2.34-7.45-2.34
		c-2.61,0-5.21,0.78-7.45,2.34L71.82,308.25c-3.48,2.43-5.55,6.41-5.55,10.66v179.42c0,4.24,2.07,8.22,5.55,10.65l322,225.23
		c2.24,1.56,4.84,2.35,7.45,2.35c2.61,0,5.21-0.78,7.45-2.34L551.94,634.1c3.88,19.77,11.7,38.84,23.37,56.82
		c10.9,16.79,25.13,32.64,42.3,47.11c28.99,24.44,56.36,36.56,57.51,37.07c1.66,0.73,3.44,1.09,5.21,1.09s3.55-0.36,5.21-1.09
		c1.15-0.5,28.52-12.62,57.51-37.07c17.17-14.48,31.4-30.33,42.3-47.11c13.84-21.32,22.3-44.18,25.14-67.93
		C818.71,554.46,816.69,500.26,816.6,497.98z"/>
	<g class="st2">
		<path class="st5" d="M616.46,559.37v63.72c0,6.12,2.51,9.48,7.3,9.48c4.56,0,7.3-3.36,7.3-9.48v-63.72h15.73v64.44
			c0,14.04-8.21,22.8-23.03,22.8c-14.93,0-23.14-8.76-23.14-22.8v-64.44H616.46z"/>
		<path class="st5" d="M697.17,573.53h-15.39v71.04h-15.73v-71.04h-15.39v-14.16h46.51V573.53z"/>
		<path class="st5" d="M701.73,559.37h21.2l6.84,44.28c0.68,4.56,1.25,9.24,1.37,12.48h0.46c0-3.24,0.68-7.92,1.25-12.48l6.73-44.28
			h21.32v85.2h-13.68v-42.84c0-6.84,0-16.32,0.34-23.16h-0.46c-0.46,4.08-0.8,7.2-1.6,12.6l-8.55,53.4h-11.4l-8.66-53.4
			c-0.68-5.4-1.37-10.08-1.48-12.6h-0.57c0.34,6.84,0.34,16.32,0.34,23.16v42.84h-13.45V559.37z"/>
		<polygon class="st5" points="280.38,639.16 280.38,560.59 180.82,490.92 180.82,569.53 		"/>
		<polygon class="st5" points="241.57,521.23 393.94,627.86 393.94,548.78 241.57,442.2 		"/>
		<polygon class="st5" points="231.57,514.23 231.57,435.21 79.21,328.64 79.21,407.6 		"/>
		<polygon class="st5" points="170.82,483.92 79.21,419.81 79.21,498.46 170.82,562.53 		"/>
		<polygon class="st5" points="290.38,567.59 290.38,646.16 393.94,718.6 393.94,640.07 		"/>
		<polygon class="st5" points="499.5,563.88 499.5,484.7 407.89,548.78 407.89,627.99 		"/>
		<path class="st5" d="M722.62,464.53v-44.6l-34.37,24.05C689.26,444.73,703.65,455.38,722.62,464.53z"/>
		<path class="st5" d="M544.28,544.75l-136.39,95.45v78.4l141.86-99.23C546.48,590.97,544.95,565.18,544.28,544.75z"/>
		<path class="st5" d="M544.09,497.98c0.26-6.64,5.51-12.02,12.14-12.46c0.27-0.02,24.33-1.7,52.83-10v-67.45l-99.56,69.64v79.17
			l34.46-24.12C543.56,512.04,544.04,499.07,544.09,497.98z"/>
		<path class="st5" d="M619.36,472.28c12.02-4.09,23.42-9.82,32.56-15.07l70.7-49.48v-79.09l-103.57,72.44v71.3
			C619.16,472.35,619.26,472.31,619.36,472.28z"/>
		<g>
			<g>
				<path class="st5" d="M680.34,480.92c11.63,7.41,29.74,17.7,49.72,24.49c19.73,6.71,38.39,10.5,51.79,12.6
					c-0.05,21.22-1.03,58.48-6.1,100.81c-2.18,18.19-8.7,35.85-19.4,52.49c-8.87,13.81-20.64,26.99-34.96,39.2
					c-15.97,13.61-31.66,23-41.06,28.07c-9.41-5.08-25.09-14.47-41.06-28.07c-14.32-12.21-26.09-25.39-34.96-39.2
					c-10.69-16.63-17.22-34.29-19.4-52.49c-5.07-42.34-6.05-79.59-6.1-100.81c13.4-2.1,32.07-5.89,51.8-12.6
					C650.61,498.62,668.71,488.33,680.34,480.92 M680.34,454.3c0,0-26.23,19.9-56.8,30.29c-34.94,11.88-66.47,13.91-66.47,13.91
					s-2.16,54.66,6.01,122.95c11.42,95.4,117.26,141.75,117.26,141.75s105.84-46.35,117.26-141.75
					c8.17-68.29,6.01-122.95,6.01-122.95s-31.53-2.03-66.47-13.91C706.57,474.19,680.34,454.3,680.34,454.3L680.34,454.3z"/>
			</g>
		</g>
		<path class="st5" d="M400.91,94.18L84.4,315.41l316.51,221.23l316.51-221.23L400.91,94.18z M202.81,320.72l152.4-106.52
			l-28.28-19.77l94.78-8.55l-12.23,66.25l-28.28-19.77L228.8,338.89L202.81,320.72z M310.21,320.99l28.28,19.77l152.4-106.52
			l25.99,18.17l-152.4,106.52l28.28,19.77l-94.78,8.55L310.21,320.99z M545.54,347.24l-152.4,106.52l-25.99-18.17l152.4-106.52
			l-28.28-19.77l94.78-8.55l-12.23,66.25L545.54,347.24z"/>
	</g>
</g>
<g id="_x33_9_x5F_Firewall_xFF08_ブリッジモード_xFF09_" class="st0">
	<path class="st4" d="M735.93,498.22c-0.03-0.78-0.12-1.56-0.29-2.33V318.93c0-4.25-2.07-8.22-5.55-10.66L408.39,83.42
		c-2.24-1.56-4.84-2.34-7.45-2.34c-2.61,0-5.21,0.78-7.45,2.34L71.82,308.25c-3.48,2.43-5.55,6.41-5.55,10.66v179.42
		c0,4.24,2.07,8.22,5.55,10.65l322,225.23c2.24,1.56,4.84,2.35,7.45,2.35c2.61,0,5.21-0.78,7.45-2.34l135.71-94.85
		c5.51,10.58,12.66,20.38,21.34,29.06c22.29,22.29,51.92,34.56,83.44,34.56s61.15-12.27,83.44-34.56
		c22.29-22.29,34.56-51.92,34.56-83.44C767.22,546.31,752.46,520.11,735.93,498.22z"/>
	<g class="st2">
		<g>
			<path class="st5" d="M400.91,94.18L84.4,315.41l316.51,221.23l316.51-221.23L400.91,94.18z M234.07,342.64l152.4-106.52
				l-28.28-19.77l94.78-8.55l-12.23,66.25l-28.28-19.77l-152.4,106.52L234.07,342.64z M344.71,420.17l12.23-66.25l28.28,19.77
				l152.4-106.52l25.99,18.17l-152.4,106.52l28.28,19.77L344.71,420.17z"/>
			<g>
				<polygon class="st5" points="231.57,514.23 231.57,435.21 79.21,328.64 79.21,407.6 				"/>
				<polygon class="st5" points="241.57,521.23 393.94,627.86 393.94,548.78 241.57,442.2 				"/>
				<polygon class="st5" points="280.38,639.16 280.38,560.59 180.82,490.92 180.82,569.53 				"/>
				<polygon class="st5" points="290.38,567.59 290.38,646.16 393.94,718.6 393.94,640.07 				"/>
				<polygon class="st5" points="170.82,483.92 79.21,419.81 79.21,498.46 170.82,562.53 				"/>
				<polygon class="st5" points="499.5,563.88 499.5,484.7 407.89,548.78 407.89,627.99 				"/>
				<path class="st5" d="M722.43,481.29c0.07,0.08,0.13,0.16,0.2,0.24v-61.6l-28.27,19.78
					C700.57,454.65,711.01,467.38,722.43,481.29z"/>
				<path class="st5" d="M531.21,584.97c0-11.78,1.76-23.47,5.16-34.69l-128.48,89.91v78.4l130.99-91.62
					C533.84,613.74,531.21,599.56,531.21,584.97z"/>
				<path class="st5" d="M547.47,524.76c10.4-17.9,25.17-32.74,42.71-42.91c2.02-1.17,4.27-1.75,6.52-1.75
					c2.24,0,4.48,0.58,6.49,1.74c2.36,1.36,4.18,3.39,5.29,5.78l0.57-0.4v-79.13l-99.56,69.64v79.17l33.37-23.35
					C544.28,530.55,545.81,527.62,547.47,524.76z"/>
				<path class="st5" d="M630.72,438.67c9.7-17.49,22.57-30.93,38.26-39.97c2.01-1.16,4.25-1.74,6.49-1.74
					c2.25,0,4.49,0.58,6.51,1.74c4.02,2.32,6.5,6.61,6.5,11.26c0,7.19,0.92,13.75,2.55,19.89l31.61-22.12v-79.09l-103.57,72.44
					v65.24C622.2,456.25,626.1,447,630.72,438.67z"/>
			</g>
		</g>
		<g>
			<path class="st5" d="M675.46,409.96c-59.67,34.38-52.5,131.26-52.5,131.26s-26.25-8.75-26.25-48.13
				c-31.32,18.16-52.5,53.07-52.5,91.88c0,57.99,47.01,105.01,105.01,105.01c57.99,0,105.01-47.01,105.01-105.01
				C754.22,499.65,675.46,482.15,675.46,409.96L675.46,409.96z M684.96,639.48c-14.08,13.6-36.51,13.2-50.11-0.87
				c-13.6-14.08-13.21-36.52,0.87-50.11c33.99-32.82,26.08-58.02,26.08-58.02S727.45,598.45,684.96,639.48L684.96,639.48z
				 M658.44,654.2"/>
		</g>
	</g>
</g>
<g id="_x34_0_x5F_Firewall_xFF08_ルーターモード_xFF09_" class="st0">
	<path class="st4" d="M735.93,498.22c-0.03-0.78-0.12-1.56-0.29-2.33V318.93c0-4.25-2.07-8.22-5.55-10.66L408.39,83.42
		c-2.24-1.56-4.84-2.34-7.45-2.34c-2.61,0-5.21,0.78-7.45,2.34L71.82,308.25c-3.48,2.43-5.55,6.41-5.55,10.66v179.42
		c0,4.24,2.07,8.22,5.55,10.65l322,225.23c2.24,1.56,4.84,2.35,7.45,2.35c2.61,0,5.21-0.78,7.45-2.34l135.71-94.85
		c5.51,10.58,12.66,20.38,21.34,29.06c22.29,22.29,51.92,34.56,83.44,34.56s61.15-12.27,83.44-34.56
		c22.29-22.29,34.56-51.92,34.56-83.44C767.22,546.31,752.46,520.11,735.93,498.22z"/>
	<g class="st2">
		<g>
			<polygon class="st5" points="231.57,514.23 231.57,435.21 79.21,328.64 79.21,407.6 			"/>
			<polygon class="st5" points="241.57,521.23 393.94,627.86 393.94,548.78 241.57,442.2 			"/>
			<polygon class="st5" points="280.38,639.16 280.38,560.59 180.82,490.92 180.82,569.53 			"/>
			<polygon class="st5" points="290.38,567.59 290.38,646.16 393.94,718.6 393.94,640.07 			"/>
			<polygon class="st5" points="170.82,483.92 79.21,419.81 79.21,498.46 170.82,562.53 			"/>
			<polygon class="st5" points="499.5,563.88 499.5,484.7 407.89,548.78 407.89,627.99 			"/>
			<path class="st5" d="M722.43,481.29c0.07,0.08,0.13,0.16,0.2,0.24v-61.6l-28.27,19.78C700.57,454.65,711.01,467.38,722.43,481.29
				z"/>
			<path class="st5" d="M531.21,584.97c0-11.78,1.76-23.47,5.16-34.69l-128.48,89.91v78.4l130.99-91.62
				C533.84,613.74,531.21,599.56,531.21,584.97z"/>
			<path class="st5" d="M547.47,524.76c10.4-17.9,25.17-32.74,42.71-42.91c2.02-1.17,4.27-1.75,6.52-1.75
				c2.24,0,4.48,0.58,6.49,1.74c2.36,1.36,4.18,3.39,5.29,5.78l0.57-0.4v-79.13l-99.56,69.64v79.17l33.37-23.35
				C544.28,530.55,545.81,527.62,547.47,524.76z"/>
			<path class="st5" d="M630.72,438.67c9.7-17.49,22.57-30.93,38.26-39.97c2.01-1.16,4.25-1.74,6.49-1.74
				c2.25,0,4.49,0.58,6.51,1.74c4.02,2.32,6.5,6.61,6.5,11.26c0,7.19,0.92,13.75,2.55,19.89l31.61-22.12v-79.09l-103.57,72.44v65.24
				C622.2,456.25,626.1,447,630.72,438.67z"/>
		</g>
		<g>
			<path class="st5" d="M675.46,409.96c-59.67,34.38-52.5,131.26-52.5,131.26s-26.25-8.75-26.25-48.13
				c-31.32,18.16-52.5,53.07-52.5,91.88c0,57.99,47.01,105.01,105.01,105.01c57.99,0,105.01-47.01,105.01-105.01
				C754.22,499.65,675.46,482.15,675.46,409.96L675.46,409.96z M684.96,639.48c-14.08,13.6-36.51,13.2-50.11-0.87
				c-13.6-14.08-13.21-36.52,0.87-50.11c33.99-32.82,26.08-58.02,26.08-58.02S727.45,598.45,684.96,639.48L684.96,639.48z
				 M658.44,654.2"/>
		</g>
		<path class="st5" d="M400.91,94.18L84.4,315.41l316.51,221.23l316.51-221.23L400.91,94.18z M202.81,320.72l152.4-106.52
			l-28.28-19.77l94.78-8.55l-12.23,66.25l-28.28-19.77L228.8,338.89L202.81,320.72z M310.21,320.99l28.28,19.77l152.4-106.52
			l25.99,18.17l-152.4,106.52l28.28,19.77l-94.78,8.55L310.21,320.99z M545.54,347.24l-152.4,106.52l-25.99-18.17l152.4-106.52
			l-28.28-19.77l94.78-8.55l-12.23,66.25L545.54,347.24z"/>
	</g>
</g>
<g id="_x34_1_x5F_PoE給電" class="st0">
	<g class="st2">
		<path class="st6" d="M415,134.43c-37.85,0-74.6,7.43-109.23,22.07c-33.42,14.13-63.42,34.36-89.17,60.11
			c-25.75,25.75-45.97,55.75-60.1,89.17c-14.65,34.63-22.07,71.38-22.07,109.23c0,37.85,7.43,74.6,22.07,109.23
			c14.13,33.42,34.36,63.42,60.1,89.17c25.75,25.75,55.75,45.97,89.17,60.1c34.63,14.65,71.38,22.07,109.23,22.07
			s74.6-7.43,109.23-22.07c33.42-14.13,63.42-34.36,89.17-60.1c25.75-25.75,45.97-55.75,60.1-89.17
			c14.65-34.63,22.07-71.38,22.07-109.23c0-37.85-7.43-74.6-22.07-109.23c-14.13-33.42-34.36-63.42-60.1-89.17
			c-25.75-25.75-55.75-45.97-89.17-60.11C489.6,141.85,452.85,134.43,415,134.43L415,134.43z"/>
	</g>
	<g class="st2">
		<path class="st5" d="M661.53,310.83c-13.48-31.87-32.77-60.48-57.32-85.04c-24.56-24.56-53.17-43.85-85.04-57.32
			c-33.02-13.96-68.06-21.05-104.17-21.05c-36.1,0-71.15,7.08-104.17,21.05c-31.87,13.48-60.48,32.77-85.04,57.32
			c-24.56,24.56-43.85,53.17-57.32,85.04c-13.97,33.02-21.05,68.06-21.05,104.17s7.08,71.15,21.05,104.17
			c13.48,31.87,32.77,60.48,57.32,85.04c24.56,24.56,53.17,43.85,85.04,57.32c33.02,13.97,68.06,21.05,104.17,21.05
			c36.1,0,71.15-7.08,104.17-21.05c31.87-13.48,60.48-32.77,85.04-57.32c24.56-24.56,43.85-53.17,57.32-85.04
			c13.97-33.02,21.05-68.06,21.05-104.17S675.49,343.85,661.53,310.83z M415,636.57c-122.37,0-221.57-99.2-221.57-221.57
			S292.63,193.43,415,193.43S636.57,292.63,636.57,415S537.37,636.57,415,636.57z"/>
		<g>
			<g>
				<path class="st5" d="M364.77,370.41v14.75c0,31.75-17.5,49.25-49.25,49.25h-14.75v68h-34.75v-177.5h48.75
					C347.77,324.91,364.52,340.41,364.77,370.41z M329.02,371.66c0-16-5.5-22.75-17.75-22.75h-10.5v61h10.5
					c12.25,0,17.75-7.5,17.75-25.25V371.66z"/>
				<path class="st5" d="M369.52,458.16v-36.5c0-31,17.5-47.25,46.25-47.25c29,0,46.5,16.25,46.5,47.25v36.5
					c0,31-17.5,47.25-46.5,47.25C387.02,505.41,369.52,489.16,369.52,458.16z M428.02,461.66v-43.5c0-14.75-4-20.75-12.25-20.75
					c-8,0-12,6-12,20.75v43.5c0,14.75,4,20.75,12,20.75C424.02,482.41,428.02,476.41,428.02,461.66z"/>
				<path class="st5" d="M562.26,475.66v26.75h-82.75v-177.5h81v26.75h-46.25v46h42.75v26.75h-42.75v51.25H562.26z"/>
			</g>
		</g>
	</g>
</g>
<g id="_x34_2_x5F_PoEインジェクター" class="st0">
	<g class="st2">
		<path class="st6" d="M314.76,53.29C314.76,53.29,314.76,53.29,314.76,53.29c-3.7,0-7.27,1.12-10.31,3.24L285.2,70l-9.72-6.8
			c-2.24-1.56-4.84-2.34-7.45-2.34s-5.21,0.78-7.45,2.34l-61.37,42.89c-3.73,2.37-6.03,6.49-6.03,10.96v27.74
			c0,4.24,2.07,8.22,5.55,10.65l2.8,1.96c-11.46,7.6-23.13,15.46-30.56,20.76c-18.35,13.09-29.27,31.25-29.97,49.82
			c-0.61,16.27,6.61,31.52,20.32,42.95c14.2,11.83,33.32,18.35,53.85,18.35c19.52,0,39.07-5.64,56.53-16.31
			c12.49-7.63,99.99-67.04,109.93-73.79c0.03-0.02,0.06-0.04,0.09-0.06c0.21-0.15,25.44-17.53,63.49-43.47
			c24.75-16.87,46.7-25.08,67.11-25.08c16.24,0,31.79,5.21,47.54,15.92c17.54,11.93,26.49,24.28,26.63,36.71
			c0.16,14.62-11.5,28.35-21.81,35.92l-74.88-52.36c-2.24-1.56-4.84-2.35-7.45-2.35c-2.61,0-5.21,0.78-7.45,2.35L120.78,414.31
			c-3.48,2.43-5.55,6.41-5.55,10.65v163.18c0,4.24,2.07,8.22,5.55,10.65l195.77,136.89c2.24,1.56,4.84,2.35,7.45,2.35
			c2.61,0,5.21-0.78,7.45-2.35l211.12-147.58c0.09,38,14.92,73.7,41.8,100.58c26.96,26.96,62.79,41.8,100.92,41.8
			c38.12,0,73.96-14.85,100.92-41.8c26.96-26.96,41.8-62.79,41.8-100.92c0-38.12-14.85-73.96-41.8-100.92
			c-25.58-25.58-59.15-40.25-95.08-41.68V314.32c0-4.24-2.07-8.22-5.55-10.65l-80.37-56.2c15.95-15.75,29.57-38.52,29.28-64.77
			c-0.22-19.98-8.65-49.37-47.63-75.88c-23.5-15.98-48.6-24.09-74.6-24.09c-6.62,0-13.36,0.53-20.06,1.59
			c-24.1,3.79-48.31,14.15-74.02,31.68c-37.23,25.39-62.26,42.62-63.6,43.55c-33.3,22.61-98.62,66.8-107.9,72.47
			c-9.86,6.03-20.61,9.21-31.1,9.21c-9.34,0-18.14-2.68-23.52-7.17c-0.94-0.79-3.13-2.78-3.08-4.27c0.09-2.27,2.79-7.48,9.88-12.55
			c10.35-7.38,30.4-20.66,44.99-30.24l16.73,11.7c2.24,1.56,4.84,2.35,7.45,2.35c2.61,0,5.21-0.78,7.45-2.35l61.84-43.26
			c3.48-2.43,5.55-6.41,5.55-10.65v-27.74c0-0.5-0.03-0.99-0.08-1.48l14.56-10.17c3.94-2.75,6.57-6.88,7.41-11.61
			c0.84-4.73-0.22-9.51-2.97-13.45c-3.37-4.81-8.88-7.69-14.76-7.69c-3.7,0-7.27,1.12-10.31,3.24l-6.4,4.48
			c1.06-1.81,1.79-3.81,2.17-5.94c0.84-4.73-0.22-9.51-2.97-13.45C326.15,56.16,320.64,53.29,314.76,53.29L314.76,53.29z"/>
	</g>
	<g class="st2">
		<g>
			<path class="st5" d="M128.22,433.94v154.2l189.25,132.36V566.3L128.22,433.94z M185.76,580.01l-0.01-37.01l16.26,11.61v-27.98
				l25.34,18.1v27.98l15.81,11.3l0.01,37.01L185.76,580.01z"/>
			<path class="st5" d="M583.92,248.4c0.13-0.1,0.26-0.19,0.4-0.28c18.17-12.94,37.47-36.89,37.16-65.28
				c-0.18-16.89-7.61-41.92-41.94-65.27c-26.8-18.23-55.51-25.1-85.33-20.41c-22.16,3.48-44.63,13.16-68.72,29.58
				c-38.21,26.05-63.4,43.41-63.58,43.54c-0.96,0.65-96.4,65.47-108.46,72.83c-26.83,16.4-55.39,12.88-69.72,0.94
				c-5.34-4.45-7.95-9.41-7.75-14.75c0.28-7.53,6.01-16,15.32-22.64c12.45-8.89,38.55-26.05,52.78-35.35l23.94,16.74l61.84-43.26
				v-27.74l-0.02,0.01l-5.94-4.15l25.99-18.17c2.26-1.58,2.82-4.7,1.23-6.96c-1.58-2.26-4.7-2.82-6.96-1.23l-28.99,20.26
				l-21.25-14.86l23.71-16.57c2.26-1.58,2.82-4.7,1.23-6.96c-1.58-2.26-4.7-2.81-6.96-1.23l-26.7,18.67l-17.17-12l-61.82,43.21
				l-0.02-0.01v0.03l0,0l0,0v27.71l18.48,12.93c-14.73,9.66-35.21,23.22-46.14,31.03c-15.04,10.74-23.99,25.21-24.53,39.72
				c-0.32,8.6,2.13,21.21,15.65,32.47c24.12,20.1,63.29,20.48,95.28,0.94c12.5-7.64,105.4-70.72,109.41-73.45
				c0.25-0.17,25.39-17.5,63.55-43.52c48.64-33.16,89.72-36.07,129.28-9.16c21.26,14.46,32.13,30.38,32.32,47.32
				c0.21,19.93-14.29,37.41-27.93,47.13c-2.37,1.69-4.63,3.29-6.79,4.82l-82.42-57.59L133.07,421.58l190.91,133.4l349.28-244.16
				L583.92,248.4z"/>
			<path class="st5" d="M777.01,496.06c-24.5-24.5-57.07-37.99-91.72-37.99c-2.4,0-4.8,0.07-7.18,0.2V323.18L330.48,566.3v154.21
				l227.81-159.33c-1.79,8.65-2.72,17.55-2.72,26.6c0,34.65,13.49,67.22,37.99,91.72c24.5,24.5,57.07,37.99,91.72,37.99
				s67.22-13.49,91.72-37.99C801.51,655,815,622.43,815,587.78C815,553.13,801.51,520.56,777.01,496.06z M685.28,695.5
				c-59.49,0-107.72-48.23-107.72-107.72s48.23-107.72,107.72-107.72c59.49,0,107.72,48.23,107.72,107.72S744.77,695.5,685.28,695.5
				z"/>
		</g>
		<g>
			<g>
				<path class="st5" d="M660.37,566.65v7.43c0,16-8.82,24.82-24.82,24.82h-7.44v34.27H610.6v-89.46h24.57
					C651.8,543.72,660.25,551.53,660.37,566.65z M642.35,567.28c0-8.06-2.77-11.47-8.95-11.47h-5.29v30.75h5.29
					c6.17,0,8.95-3.78,8.95-12.73V567.28z"/>
				<path class="st5" d="M662.76,610.88v-18.4c0-15.62,8.82-23.82,23.31-23.82c14.62,0,23.44,8.19,23.44,23.82v18.4
					c0,15.62-8.82,23.82-23.44,23.82C671.58,634.7,662.76,626.51,662.76,610.88z M692.25,612.65v-21.93
					c0-7.43-2.02-10.46-6.17-10.46c-4.03,0-6.05,3.02-6.05,10.46v21.93c0,7.43,2.02,10.46,6.05,10.46
					C690.23,623.11,692.25,620.08,692.25,612.65z"/>
				<path class="st5" d="M759.91,619.7v13.48H718.2v-89.46h40.83v13.48h-23.31v23.19h21.55v13.48h-21.55v25.83H759.91z"/>
			</g>
		</g>
	</g>
</g>
<g id="_x34_3_x5F_ACアダプター" class="st0">
	<g class="st2">
		<path class="st6" d="M670.27,203.84c-4.95,0-9.71,1.5-13.76,4.35l-38.91,27.27l-41.05-28.48c-2.23-1.55-4.82-2.32-7.41-2.32
			c-2.62,0-5.24,0.79-7.48,2.37l-190.61,134.2c-3.46,2.43-5.52,6.4-5.52,10.63v111.28c0,4.26,2.09,8.25,5.59,10.68l18.38,12.75
			c-27.45,19.51-45.26,31.89-50.76,35.27c-5.84,3.59-17.47,9.62-29.76,9.62c-8.22,0-15.27-2.71-21.57-8.3
			c-2.7-2.39-4.45-6.49-4.58-10.7c-0.13-4.18,1.24-7.64,4.18-10.58c19.38-19.38,23.03-39.51,22.67-52.99
			c-0.51-19.3-9.78-38.46-25.45-52.56c-17.44-15.69-38.88-23.99-62.01-23.99c-1.31,0-2.65,0.03-3.98,0.08
			c-24.48,1-42.39,10.67-48.95,14.78c-2.31,1.45-8.46,5.3-109.9,74.96c-6.39,4.39-10.68,11-12.1,18.61
			c-1.41,7.62,0.22,15.33,4.61,21.71c5.41,7.88,14.35,12.58,23.92,12.58c5.88,0,11.55-1.76,16.4-5.1
			c87.38-60.01,105.08-71.89,107.85-73.62c4.05-2.54,11.86-5.63,20.52-5.98c0.54-0.02,1.09-0.03,1.62-0.03
			c8.81,0,16.41,2.98,23.21,9.1c3.78,3.4,6.18,7.6,6.27,10.97c0.1,3.82-3.05,7.79-5.7,10.45c-14.24,14.24-21.75,33.18-21.14,53.34
			c0.61,20.25,9.39,39.33,24.08,52.36c16.96,15.04,37.77,22.98,60.18,22.98c19.79,0,40.55-6.33,60.02-18.32
			c7.89-4.86,31.77-21.51,71.01-49.54l87.51,60.71c2.23,1.55,4.82,2.32,7.41,2.32c2.62,0,5.24-0.79,7.48-2.37l190.61-134.2
			c3.46-2.43,5.52-6.4,5.52-10.63V326.25c0-4.26-2.09-8.25-5.59-10.68l-18.09-12.55l24.64-17.27c5.25-3.68,8.75-9.18,9.86-15.5
			c1.11-6.31-0.3-12.68-3.98-17.93c-4.49-6.4-11.84-10.23-19.66-10.23c-4.95,0-9.7,1.5-13.76,4.35l-39.13,27.42l-13.33-9.25
			l24.42-17.11c5.25-3.68,8.75-9.18,9.86-15.5c1.11-6.31-0.3-12.68-3.98-17.93C685.44,207.67,678.09,203.84,670.27,203.84
			L670.27,203.84z"/>
	</g>
	<g class="st2">
		<path class="st5" d="M378.52,463.13l33.55,23.31c-29.04,20.73-58.5,41.53-66.53,46.46c-11.84,7.29-42.06,21.88-66.76-0.02
			c-5.37-4.76-8.72-12.25-8.95-20.03c-0.16-5.4,1.09-13.27,7.98-20.16c16.11-16.11,19.15-32.52,18.87-43.45
			c-0.41-15.75-8.12-31.51-21.15-43.24c-15.92-14.33-35.55-21.45-56.76-20.58c-21.37,0.87-36.9,9.25-42.58,12.81
			c-2.04,1.28-8.24,5.16-109.44,74.66c-7.28,5-9.13,14.96-4.13,22.25c5,7.28,14.96,9.13,22.25,4.13
			c83.18-57.13,104.81-71.73,108.31-73.92c5.66-3.55,15.7-7.5,26.89-7.95c12.89-0.52,24.33,3.65,34.05,12.39
			c6.53,5.88,10.38,13.27,10.57,20.29c0.18,6.77-3.02,13.5-9.51,19.98c-11.68,11.68-17.84,27.22-17.34,43.75
			c0.5,16.68,7.69,32.36,19.71,43.02c14.81,13.12,32.6,19.71,51.55,19.71c17.23,0,35.43-5.45,53.2-16.39
			c10.16-6.25,48.15-33.22,77.66-54.33l88.26,61.33V464.88L378.52,360.85V463.13z"/>
		<polygon class="st5" points="541.23,567.06 725.31,437.35 725.31,335.14 541.23,464.86 		"/>
		<path class="st5" d="M734.86,259.78c-3.49-4.97-10.34-6.18-15.32-2.7l-46.6,32.65l-36.08-25.05l39.72-27.84
			c4.98-3.49,6.18-10.35,2.7-15.32c-3.49-4.98-10.34-6.18-15.32-2.7l-46.35,32.48l-48.48-33.66L383.36,348.47L534.7,453.55
			l185.77-130.81l-28.27-19.63l39.97-28.01C737.14,271.62,738.35,264.76,734.86,259.78z"/>
	</g>
</g>
<g id="_x34_4_x5F_IP電話" class="st0">
	<path class="st4" d="M622.18,145.44h-272c-17,0-31.89,9.17-40,22.83c-8.11-13.65-23-22.83-40-22.83h-62.73
		c-25.64,0-46.5,20.86-46.5,46.5v448c0,25.64,20.86,46.5,46.5,46.5h62.73c17,0,31.89-9.17,40-22.83c8.11,13.65,23,22.83,40,22.83
		h272c25.64,0,46.5-20.86,46.5-46.5v-448C668.68,166.3,647.82,145.44,622.18,145.44z"/>
	<g class="st2">
		<g>
			<path class="st5" d="M207.45,158.44c-18.47,0-33.5,15.03-33.5,33.5v448c0,18.47,15.03,33.5,33.5,33.5h62.73
				c18.47,0,33.5-15.03,33.5-33.5v-448c0-18.47-15.03-33.5-33.5-33.5H207.45z"/>
		</g>
		<path class="st5" d="M622.18,158.44h-272c-18.47,0-33.5,15.03-33.5,33.5v448c0,18.47,15.03,33.5,33.5,33.5h272
			c18.47,0,33.5-15.03,33.5-33.5v-448C655.68,173.46,640.65,158.44,622.18,158.44z M431.18,601.23l-44,0v-28.6l44,0V601.23z
			 M431.18,535.24h-44v-28.6h44V535.24z M431.18,469.24l-44,0v-28.6l44,0V469.24z M431.18,403.24h-44v-28.6h44V403.24z
			 M464.18,601.24v-28.6l44,0l0,28.6L464.18,601.24z M464.18,535.24v-28.6h44l0,28.6H464.18z M464.18,469.24v-28.6l44,0l0,28.6
			L464.18,469.24z M464.18,403.24v-28.6h44l0,28.6H464.18z M585.18,601.23l-44,0v-28.6l44,0V601.23z M585.18,535.24h-44v-28.6h44
			V535.24z M585.18,469.24l-44,0v-28.6l44,0V469.24z M585.18,403.24h-44v-28.6h44V403.24z M596.18,305.94h-220v-88h220V305.94z"/>
	</g>
</g>
<g id="_x34_5_x5F_IPカメラ" class="st0">
	<g class="st2">
		<path class="st6" d="M693.32,183.68H136.68c-25.64,0-46.5,20.86-46.5,46.5v49.78c0,25.64,20.86,46.5,46.5,46.5h5.76v68.29
			c0,36.79,7.21,72.49,21.42,106.1c13.73,32.46,33.38,61.61,58.41,86.63s54.17,44.68,86.63,58.41
			c33.61,14.22,69.31,21.42,106.1,21.42s72.49-7.21,106.1-21.42c32.46-13.73,61.61-33.38,86.63-58.41s44.68-54.17,58.41-86.63
			c14.22-33.61,21.42-69.31,21.42-106.1v-68.29h5.76c25.64,0,46.5-20.86,46.5-46.5v-49.78
			C739.82,204.54,718.96,183.68,693.32,183.68L693.32,183.68z"/>
	</g>
	<g class="st2">
		<path class="st5" d="M273.11,326.46H155.44v68.29c0,90.98,46.82,171.01,117.67,217.36V326.46z"/>
		<path class="st5" d="M556.89,326.46v285.65c70.85-46.34,117.67-126.38,117.67-217.36v-68.29H556.89z"/>
		<path class="st5" d="M136.68,196.68c-18.47,0-33.5,15.03-33.5,33.5v49.78c0,18.47,15.03,33.5,33.5,33.5h556.64
			c18.47,0,33.5-15.03,33.5-33.5v-49.78c0-18.47-15.03-33.5-33.5-33.5H136.68z"/>
		<g>
			<path class="st5" d="M287.11,326.46v294.19c37.75,21.42,81.39,33.66,127.89,33.66c46.5,0,90.14-12.24,127.89-33.66V326.46H287.11
				z M412.77,559.49c-43.5,0-78.89-35.39-78.89-78.89s35.39-78.89,78.89-78.89s78.89,35.39,78.89,78.89S456.27,559.49,412.77,559.49
				z"/>
			<path class="st5" d="M412.77,429.7c-28.06,0-50.89,22.83-50.89,50.89s22.83,50.89,50.89,50.89s50.89-22.83,50.89-50.89
				S440.83,429.7,412.77,429.7z"/>
		</g>
	</g>
</g>
<g id="_x34_6_x5F_NW管理者_xFF08_女性_xFF09_" class="st0">
	<g class="st2">
		<path class="st6" d="M415.97,112.59c-26.7,0-55.39,8.99-80.78,25.31c-27.83,17.89-48.46,42.4-59.66,70.88
			c-0.47,1.19-0.9,2.4-1.3,3.6c-6.18,13.65-10.51,27.38-15.08,41.9c-5.41,17.17-11,34.92-20.56,56.16
			c-15.38,34.17-16.41,66.75-2.91,91.76c6.21,11.51,15.25,21.08,26.87,28.44c9.41,5.97,20.37,10.38,32.68,13.16
			c1.84,4.92,4.85,10.43,9.74,15.86c6.83,7.59,16.12,13.66,27.69,18.13l-15.66,8.63c-60.15,22.3-94.15,41.54-121.1,68.51
			c-14.79,14.78-25.59,41.57-32.11,79.62c-4.94,28.85-5.91,55.42-6.1,62.87c-0.09,3.5,1.25,6.89,3.69,9.4s5.8,3.92,9.3,3.92h72.75
			h1.45l5.01,44.8c0.74,6.58,6.3,11.55,12.92,11.55h303.7c6.62,0,12.18-4.98,12.92-11.55l5.01-44.8h1.46h71.44
			c3.5,0,6.86-1.41,9.3-3.92c2.45-2.51,3.78-5.89,3.69-9.4c-0.18-7.46-1.16-34.02-6.1-62.87c-6.51-38.06-17.32-64.85-32.11-79.63
			c-26.94-26.96-60.94-46.21-121.09-68.5l-14.83-8.17c11.88-4.41,21.41-10.47,28.44-18.08c5.16-5.59,8.3-11.29,10.21-16.37
			c12.31-2.78,23.27-7.19,32.68-13.16c11.61-7.36,20.65-16.93,26.87-28.44c13.5-25.01,12.47-57.6-2.91-91.76
			c-9.56-21.24-15.15-38.99-20.56-56.16c-4.56-14.48-8.87-28.16-15.02-41.77c-8.51-23.91-21.88-44.66-38.68-60.03
			c-15.42-14.1-32.78-22.54-49.36-24.09c-0.32-0.24-0.64-0.48-0.97-0.72C453.59,117.81,435.97,112.59,415.97,112.59L415.97,112.59z"
			/>
	</g>
	<path class="st7" d="M415,418.39c-20.67,0-31.13-16.81-31.57-17.52c-2.01-3.3-0.96-7.61,2.34-9.62c3.3-2.01,7.61-0.96,9.62,2.34
		c0.25,0.4,6.94,10.8,19.61,10.8c12.67,0,19.36-10.4,19.63-10.84c2.01-3.3,6.3-4.33,9.61-2.32c3.3,2.01,4.34,6.34,2.33,9.64
		C446.13,401.58,435.67,418.39,415,418.39z"/>
	<g class="st2">
		<path class="st5" d="M244.28,588.35l18.55,165.75h303.7l18.55-165.75H244.28z M429.15,688.1H400.2l-2.83-19.58h34.62L429.15,688.1
			z"/>
		<path class="st5" d="M657.35,697.75c-0.36-14.93-3.94-103.18-34.4-133.62c-24.31-24.33-54.85-42.76-117.32-65.84l-22.54-12.41
			l-2.96-16.3c35.59-8.65,42.92-27.58,44.29-36.99c60.36-9.6,81.8-57.76,55.22-116.8c-18.29-40.63-22.87-70.02-35.79-98.4
			c-16.29-46.27-51.15-75.78-80.8-76.23c-1.2-0.99-2.49-1.99-3.88-3.02c-44.18-32.71-142.19,0.74-171.56,75.42
			c-0.49,1.24-0.9,2.41-1.25,3.54c-13.03,28.47-17.58,57.93-35.93,98.7c-26.57,59.04-5.13,107.19,55.22,116.8
			c1.35,9.24,8.43,27.64,42.33,36.5l-3.04,16.79l-22.54,12.41c-62.47,23.09-93.01,41.52-117.32,65.84
			c-30.46,30.44-34.04,118.69-34.4,133.62h72.75l-13.69-122.4h144.52l-4.13-33.27c13.39,2.95,28.24,4.96,43.87,4.96
			c15.64,0,30.5-2.01,43.9-4.97l-4.13,33.28h145.84l-13.69,122.4H657.35z M450.26,222.13h0.17c0,0,32.18,33.06,68.17,52.43
			c-0.41,6.09-1.04,12.52-1.87,19.24c-1.76-3.53-5.48-5.09-7.6-5.43c-13.86-2.83-33.16-3.75-51.62-2.47
			c-0.75,0.05-18.36,1.31-25.82,4.58c-1.67,0.76-3.4,1.58-4.98,2.34c-2.51,1.27-6.24,2.71-8.19,3.17c-0.47,0.08-0.94,0.18-1.39,0.27
			c-0.35,0.07-0.69,0.15-1.01,0.2c-0.89,0.16-3.34,0.16-4.24,0c-0.33-0.05-0.67-0.13-1.03-0.21c-0.44-0.09-0.9-0.19-1.36-0.27
			c-1.95-0.46-5.67-1.9-8.2-3.18c-1.53-0.74-3.28-1.56-4.97-2.34c-7.42-3.26-25.03-4.52-25.78-4.57
			c-18.78-1.29-37.6-0.39-51.52,2.46c-2.2,0.35-5.97,1.92-7.71,5.47c-0.72-5.79-1.29-11.38-1.7-16.72
			C386.74,259.85,450.26,222.13,450.26,222.13z M501.66,313.91c0.01,3.55-0.93,15.61-13.56,21.56c-4.86,2.3-12.19,3.67-19.6,3.67
			c-14.09,0-25.27-4.56-29.9-12.2c-9.67-15.95-6.89-21.97-6.77-22.22l0.06-0.14c0.1-0.25,2.81-6.07,30.42-7.62
			c4.46-0.27,8.46-0.4,12.22-0.4c13.68,0,21.43,2.05,24.39,6.42C500.54,305.42,501.66,310.7,501.66,313.91z M389.45,326.94
			c-4.66,7.64-15.85,12.21-29.94,12.21c-7.4,0-14.72-1.37-19.58-3.67c-12.62-5.95-13.58-18.01-13.57-21.56
			c0.01-3.2,1.13-8.48,2.72-10.93c2.67-3.96,7.36-6.42,22.42-6.42c3.66,0,9.66,0.13,14.18,0.41c27.21,1.53,30.24,7.15,30.49,7.79
			l0.08,0.17C396.29,304.98,399.05,311.13,389.45,326.94z M464.02,492.81l-3.48,28.02c-13.91,3.58-29.82,6.21-46.54,6.21
			c-16.71,0-32.6-2.63-46.51-6.2l-3.48-28.03l7.5-41.38l-4.43-3.73c-23.87-20.09-35.71-45.99-38.83-63.52l-1.02-5.75l-5.51-1.93
			c-9.03-3.17-21.4-7.5-30.92-40.48c-1.67-5.87-2.95-13.78,0.4-18.16c3.39-4.45,10.99-4.51,11.11-4.51c0,0,0,0,0,0l11.78,0.23
			l0-0.02c0.15,0.34,0.26,0.63,0.29,0.81c3.72,22.23,6.59,24.58,15.98,29.29c0.72,0.36,1.49,0.75,2.3,1.17
			c5.25,2.69,15.52,4.44,26.17,4.44c8.13,0,19.9-1.05,29.75-6.06c15.06-7.69,20.27-30.24,20.32-30.48c0.13-0.4,1.24-1.44,4.78-1.44
			h0.99c3.32,0,4.34,1.03,4.47,1.46l0.04,0.27c0.21,0.92,5.4,22.55,20.3,30.19c9.85,5,21.62,6.05,29.76,6.05
			c10.63,0,20.89-1.74,26.14-4.44c0.8-0.41,1.55-0.79,2.27-1.15c9.41-4.71,12.29-7.06,16.01-29.26c0.04-0.23,0.21-0.64,0.42-1.08
			l-0.02,0.14l11.67-0.12c0.09,0,7.72,0.05,11.13,4.51c3.35,4.38,2.06,12.3,0.41,18.12c-9.54,33.02-21.9,37.35-30.94,40.52
			l-5.51,1.93l-1.02,5.75c-3.12,17.53-14.96,43.43-38.83,63.52l-4.43,3.73L464.02,492.81z"/>
	</g>
</g>
<g id="_x34_7_x5F_NW構築の作業者_xFF08_女性_xFF09_" class="st0">
	<g class="st2">
		<path class="st6" d="M414.02,111.96c-26.56,0-50.02,3.82-69.73,11.35c-16.57,6.33-30.6,15.31-41.71,26.67
			c-20.02,20.48-24.14,42.27-24.77,46.43c-0.55,3.71-4.74,27.28-11.19,63.05c-0.47,2.62-0.13,5.32,0.98,7.73l9.23,20.1
			c-4.6,2.75-8.57,6.25-11.76,10.38c-9.44,12.25-11.47,28.2-6.01,47.4c0.01,0.02,0.01,0.04,0.02,0.05
			c8.51,29.45,20.54,46.99,39.63,57.25c6.48,21.94,19.64,43.7,37.06,61.28l-2.07,11.43l-38.1,18.84l-11.94,5.69
			c-40.19,17.13-65.63,33.17-87.76,55.31c-14.79,14.78-25.59,41.57-32.11,79.62c-4.94,28.85-5.91,55.42-6.1,62.87
			c-0.09,3.5,1.25,6.89,3.69,9.4s5.8,3.92,9.3,3.92H410h10h239.32c3.5,0,6.86-1.41,9.3-3.92s3.78-5.89,3.69-9.4
			c-0.18-7.46-1.16-34.02-6.1-62.87c-6.51-38.06-17.32-64.85-32.11-79.63c-14.59-14.6-30.67-26.58-51.47-37.96
			c2.34-0.31,4.48-0.79,6.39-1.44c9.59-3.25,11.89-10.23,12.43-13.07c1.81-9.53-3.56-17.5-10.99-28.53
			c-9.26-13.73-23.24-34.48-29.73-67.47c-1.74-8.85-4.48-17.16-8.17-24.8c6.66-9.43,12.07-21.5,16.42-36.57
			c0.01-0.02,0.01-0.04,0.02-0.05c6.78-23.88,0.47-38.93-6.03-47.36c-3.19-4.13-7.16-7.63-11.76-10.38l9.23-20.09
			c1.11-2.42,1.45-5.11,0.98-7.73c-6.45-35.78-10.64-59.35-11.19-63.05c-0.62-4.16-4.74-25.94-24.77-46.43
			c-11.1-11.36-25.14-20.33-41.71-26.67C464.04,115.78,440.58,111.96,414.02,111.96L414.02,111.96z"/>
	</g>
	<g class="st2">
		<circle class="st5" cx="373.85" cy="321.76" r="11.67"/>
		<circle class="st5" cx="455.72" cy="321.76" r="11.67"/>
		<path class="st5" d="M415,418.39c-20.67,0-31.13-16.81-31.57-17.52c-2.01-3.3-0.96-7.61,2.34-9.62c3.3-2.01,7.61-0.96,9.62,2.34
			c0.25,0.4,6.94,10.8,19.61,10.8c12.67,0,19.36-10.4,19.63-10.84c2.01-3.3,6.3-4.33,9.61-2.32c3.3,2.01,4.34,6.34,2.33,9.64
			C446.13,401.58,435.67,418.39,415,418.39z"/>
		<g>
			<g>
				<path class="st5" d="M418.98,628.3l96.04-49.16l-8.79-37.21l29.49-10.48l-8.14-26.4l-43.73-21.63l-5.61-24.31
					c6.19-5.68,11.87-11.91,16.92-18.52c17.4,64.37,91.46,70.31,93.53,59.43c2.16-11.38-29.5-34.1-40.71-91.06
					c-2.24-11.37-6.13-20.83-10.97-28.69c7.63-8.22,14.13-20.27,19.48-38.8c4.26-14.99,2.98-27.06-3.82-35.87
					c-4.55-5.91-10.64-8.98-15.93-10.57c0.38-3.14,0.72-6.37,1.03-9.63c-6.07,4.11-13.49,8.34-21.38,11.05
					c-0.24,1.8-0.48,3.61-0.75,5.45l-1.6,11.55l11.67-0.12c0.08,0.01,7.72,0.05,11.13,4.51c3.35,4.38,2.06,12.3,0.41,18.12
					c-4.02,13.92-8.54,22.73-13.11,28.51l0,0c-4.68,5.94-9.41,8.68-13.68,10.46c-0.04,0.02-0.08,0.03-0.12,0.05
					c-0.3,0.12-0.6,0.24-0.89,0.36c-0.06,0.03-0.13,0.05-0.19,0.08c-0.27,0.1-0.54,0.21-0.81,0.3c-0.07,0.03-0.15,0.05-0.22,0.08
					c-0.27,0.1-0.53,0.19-0.79,0.28c-0.07,0.02-0.13,0.05-0.2,0.07c-0.31,0.11-0.62,0.22-0.93,0.33l-5.51,1.93l-1.02,5.75
					c-0.17,0.95-0.37,1.94-0.59,2.94c-0.02,0.09-0.04,0.17-0.06,0.26c-0.22,0.97-0.46,1.96-0.73,2.97c-0.03,0.12-0.06,0.24-0.1,0.36
					c-0.27,1.01-0.57,2.03-0.89,3.07c-0.04,0.12-0.07,0.24-0.11,0.36c-0.33,1.06-0.69,2.14-1.08,3.23c-0.03,0.09-0.07,0.18-0.1,0.27
					c-0.4,1.13-0.83,2.28-1.3,3.44c-0.01,0.03-0.02,0.06-0.03,0.09c-1.46,3.65-3.2,7.43-5.24,11.26
					c-6.39,11.97-15.75,24.47-28.6,35.28l-4.43,3.73l9.89,54.54l0.34,0.16c-6.65,10.58-21.21,24.64-51.71,24.64
					c-32.43,0-46.96-15.87-53.08-26.6l9.56-52.73l-4.43-3.73c-23.87-20.09-35.71-45.99-38.83-63.52l-1.02-5.75l-5.51-1.93
					c-9.03-3.17-21.4-7.5-30.92-40.48c-1.67-5.87-2.95-13.78,0.4-18.16c3.39-4.45,10.99-4.51,11.11-4.51c0,0,0,0,0,0l11.78,0.23
					l-1.69-11.66c-0.27-1.84-0.51-3.65-0.75-5.45c-7.88-2.71-15.3-6.94-21.38-11.05c0.31,3.26,0.65,6.49,1.03,9.63
					c-5.29,1.59-11.38,4.66-15.93,10.57c-6.79,8.81-8.08,20.88-3.81,35.91c9.28,32.14,22.04,44.78,38.16,51.76
					c5.64,23.68,20.2,47.63,40.07,65.85l-4.48,24.72l-44.05,21.78l-7.96,25.82l8.32,2.96l21.17,7.52L314,579.15l97.35,49.83
					l-7.04-14.43l-32.84-74.05c10.65,5.89,24.86,10.26,43.57,10.26c18.7,0,32.88-4.37,43.5-10.25l-32.83,74.04L418.98,628.3z"/>
				<path class="st5" d="M624.91,564.13c-19.7-19.71-43.49-35.55-85.04-53.14l8.23,26.67l-30.08,10.69l8.53,36.12L420,639.02v58.73
					h239.32C658.95,682.82,655.38,594.57,624.91,564.13z M570.31,653.94h-90.49v-14h90.49V653.94z"/>
				<path class="st5" d="M310.99,548.36l-30.08-10.69l8.08-26.19c-40.85,17.39-64.39,33.12-83.91,52.65
					c-30.46,30.44-34.04,118.69-34.4,133.62H410v-58.23l-107.54-55.04L310.99,548.36z M350.19,639.94v14h-90.49v-14H350.19z"/>
				<path class="st5" d="M548.62,261.78c-2.84-15.72-10.42-57.86-11.26-63.44c-1.03-6.88-14.4-73.38-123.35-73.38
					c-108.95,0-122.32,66.5-123.35,73.38c-0.83,5.58-8.42,47.72-11.26,63.44c12.4-11.24,50.54-37.72,134.6-37.72
					C498.08,224.05,536.22,250.53,548.62,261.78z"/>
			</g>
			<path class="st5" d="M414.02,273.6c20.52,0,38.43,5.02,54.24,9.46c13.28,3.72,24.75,6.94,34.44,6.23
				c15.53-1.14,32.21-13.65,39.52-19.78c-4.03-3.67-11.91-9.85-24.72-15.97c-18.59-8.89-51.63-19.49-103.48-19.49
				s-84.88,10.6-103.48,19.49c-12.81,6.13-20.69,12.3-24.72,15.97c7.31,6.13,23.98,18.63,39.52,19.78
				c9.69,0.71,21.17-2.5,34.44-6.23C375.58,278.63,393.5,273.6,414.02,273.6z"/>
		</g>
	</g>
</g>
<g id="_x34_8_x5F_NW利用者_xFF08_女性_xFF09_" class="st0">
	<g class="st2">
		<path class="st6" d="M416.88,121.57C416.88,121.57,416.88,121.57,416.88,121.57c-0.99,0-1.79,0.01-2.38,0.03
			c-0.58-0.02-1.38-0.03-2.37-0.03c-7.73,0-28.23,0.9-51.77,9.27c-29.94,10.64-53.9,29.1-71.22,54.87
			c-15.95,23.73-26.01,47.68-30.75,73.21c-4.66,25.11-3.73,49.39-2.2,69.84c0.04,0.74,0.1,1.53,0.19,2.41
			c0.64,8.17,1.42,16.28,2.24,24.87c0.29,3.01,0.58,6.06,0.87,9.12c3.99,42.54-9.12,61.95-16.96,73.55
			c-4.57,6.76-9.29,13.76-6.4,22.43c2.88,8.63,11.44,11.58,14.66,12.69c16.43,5.66,35.86,8.66,56.2,8.66
			c8.62,0,17.19-0.54,25.64-1.61l-0.18,0.97l-13.76,4.84c-0.71,0.11-1.41,0.29-2.11,0.52l-15.25,5.17c-0.2,0.07-0.39,0.14-0.59,0.21
			c-1.48,0.58-2.93,1.16-4.36,1.73c-1.31,0.52-2.6,1.05-3.89,1.57L292.3,496c-0.48,0.17-0.94,0.36-1.39,0.58
			c-0.9,0.37-1.79,0.74-2.68,1.11l-0.39,0.16l-0.58,0.24c-1.04,0.43-2.05,0.87-3.07,1.3l-0.44,0.19l-0.79,0.33
			c-0.96,0.41-1.91,0.82-2.85,1.23l-0.43,0.19l-0.91,0.4c-0.91,0.4-1.8,0.79-2.68,1.19l-0.33,0.15l-1.07,0.47
			c-0.86,0.38-1.7,0.77-2.55,1.15l-0.14,0.06l-1.29,0.59c-0.82,0.38-1.63,0.75-2.43,1.12c-0.48,0.22-0.96,0.45-1.43,0.67
			c-0.79,0.37-1.57,0.74-2.35,1.12c-0.47,0.22-0.93,0.45-1.4,0.67c-0.77,0.37-1.53,0.74-2.29,1.11c-0.46,0.23-0.92,0.45-1.37,0.68
			c-0.75,0.37-1.49,0.74-2.22,1.11c-0.39,0.2-0.77,0.39-1.15,0.59l-0.17,0.09c-0.73,0.37-1.46,0.74-2.17,1.11
			c-0.33,0.17-0.65,0.34-0.97,0.51l-0.31,0.16c-0.72,0.38-1.43,0.75-2.13,1.13c-0.29,0.15-0.58,0.31-0.86,0.47l-0.34,0.18
			l-0.05,0.03c-0.69,0.37-1.39,0.75-2.07,1.12c-0.25,0.14-0.5,0.27-0.74,0.41l-0.37,0.2l-0.13,0.07c-0.67,0.37-1.34,0.74-2,1.12
			c-0.21,0.12-0.41,0.24-0.62,0.35l-0.32,0.18l-0.13,0.08c-0.7,0.4-1.4,0.8-2.09,1.2l-0.24,0.14l-0.05,0.03
			c-2.53,1.48-5.08,3.03-7.56,4.59l-0.34,0.22c-0.23,0.14-0.45,0.28-0.67,0.43c-0.47,0.3-0.93,0.6-1.39,0.9l-0.3,0.2l-0.35,0.23
			c-0.28,0.18-0.55,0.36-0.83,0.54c-0.45,0.3-0.89,0.59-1.33,0.89l-0.24,0.16l-0.28,0.19c-0.32,0.21-0.64,0.43-0.96,0.64
			c-0.45,0.31-0.9,0.62-1.34,0.92l-0.15,0.1l-0.19,0.13c-0.35,0.24-0.71,0.49-1.05,0.73c-0.47,0.33-0.93,0.66-1.39,0.99
			c-0.44,0.32-0.86,0.62-1.28,0.92c-0.46,0.33-0.91,0.67-1.36,1c-0.42,0.31-0.84,0.62-1.25,0.93c-0.44,0.33-0.87,0.66-1.3,0.99
			c-0.42,0.32-0.84,0.64-1.26,0.97c-0.42,0.32-0.84,0.65-1.25,0.98c-0.42,0.33-0.83,0.66-1.24,0.99c-0.41,0.33-0.81,0.65-1.21,0.98
			c-0.41,0.34-0.83,0.67-1.24,1.01c-0.39,0.32-0.78,0.64-1.16,0.97c-0.42,0.35-0.83,0.7-1.24,1.05l-0.12,0.11
			c-0.33,0.28-0.66,0.56-0.99,0.85c-0.42,0.36-0.83,0.73-1.25,1.09l-0.21,0.19c-0.28,0.25-0.57,0.5-0.85,0.75
			c-0.39,0.34-0.77,0.69-1.15,1.04l-0.12,0.11l-0.27,0.24c-0.24,0.22-0.49,0.44-0.73,0.66c-0.4,0.36-0.79,0.73-1.19,1.1l-0.13,0.13
			l-0.28,0.26c-0.21,0.19-0.42,0.39-0.62,0.58c-0.48,0.45-0.95,0.91-1.42,1.36l-0.04,0.04l-0.23,0.22
			c-0.16,0.16-0.33,0.31-0.49,0.47c-0.72,0.7-1.44,1.41-2.15,2.12c-14.79,14.78-25.59,41.57-32.11,79.62
			c-4.94,28.85-5.91,55.42-6.1,62.87c-0.09,3.5,1.25,6.89,3.69,9.4c2.45,2.51,5.8,3.92,9.3,3.92h486.67c3.5,0,6.86-1.41,9.3-3.92
			c2.45-2.51,3.78-5.89,3.69-9.4c-0.18-7.46-1.16-34.02-6.1-62.87c-6.51-38.06-17.32-64.85-32.11-79.63
			c-0.7-0.7-1.42-1.41-2.14-2.11c-0.16-0.16-0.32-0.31-0.49-0.47l-0.23-0.22l-0.06-0.05c-0.47-0.45-0.93-0.9-1.41-1.35
			c-0.21-0.2-0.42-0.4-0.64-0.6l-0.27-0.25l-0.13-0.12c-0.39-0.37-0.78-0.73-1.18-1.09c-0.24-0.22-0.49-0.45-0.73-0.67l-0.27-0.24
			l-0.11-0.1c-0.38-0.35-0.77-0.69-1.15-1.04c-0.28-0.25-0.57-0.5-0.85-0.75l-0.21-0.18c-0.41-0.36-0.83-0.73-1.25-1.09
			c-0.32-0.28-0.65-0.56-0.98-0.84l-0.13-0.11c-0.41-0.35-0.83-0.7-1.25-1.05c-0.38-0.32-0.77-0.64-1.16-0.97
			c-0.41-0.34-0.82-0.68-1.24-1.01c-0.4-0.33-0.81-0.65-1.21-0.98c-0.41-0.33-0.83-0.66-1.25-0.99c-0.41-0.33-0.83-0.65-1.25-0.98
			c-0.42-0.32-0.84-0.64-1.25-0.96c-0.43-0.33-0.87-0.66-1.3-0.99c-0.42-0.31-0.83-0.62-1.25-0.93c-0.45-0.33-0.9-0.67-1.36-1
			c-0.42-0.3-0.84-0.6-1.26-0.9l-0.04-0.03c-0.46-0.33-0.91-0.65-1.37-0.97c-0.34-0.24-0.69-0.48-1.04-0.72l-0.22-0.15l-0.12-0.08
			c-0.45-0.31-0.9-0.63-1.36-0.94c-0.31-0.21-0.62-0.42-0.94-0.63l-0.3-0.2l-0.25-0.17c-0.44-0.29-0.87-0.59-1.32-0.88
			c-0.28-0.19-0.56-0.37-0.85-0.55l-0.34-0.22l-0.31-0.2c-0.46-0.3-0.92-0.6-1.38-0.9c-0.22-0.14-0.43-0.27-0.65-0.41l-0.33-0.21
			c-2.48-1.57-5.03-3.12-7.58-4.61l-0.06-0.03l-0.25-0.15c-0.68-0.4-1.38-0.79-2.07-1.19l-0.14-0.08l-0.33-0.19
			c-0.21-0.12-0.41-0.24-0.62-0.36c-0.64-0.36-1.3-0.73-1.95-1.09l-0.16-0.09l-0.36-0.2c-0.25-0.14-0.51-0.28-0.77-0.43
			c-0.67-0.37-1.36-0.74-2.05-1.11l-0.05-0.03l-0.35-0.19c-0.29-0.16-0.58-0.31-0.88-0.47c-0.7-0.37-1.41-0.75-2.12-1.12l-0.29-0.15
			c-0.33-0.17-0.66-0.35-0.99-0.52c-0.71-0.37-1.44-0.74-2.16-1.11l-0.12-0.06c-0.41-0.21-0.81-0.42-1.23-0.62
			c-0.73-0.37-1.46-0.73-2.2-1.1c-0.46-0.23-0.92-0.46-1.39-0.69c-0.75-0.37-1.51-0.74-2.27-1.11c-0.47-0.23-0.94-0.45-1.41-0.68
			c-0.77-0.37-1.55-0.74-2.34-1.11c-0.48-0.23-0.96-0.45-1.44-0.68c-0.8-0.37-1.61-0.75-2.42-1.12l-1.35-0.62l-0.09-0.04
			c-0.84-0.38-1.68-0.77-2.54-1.15l-1.05-0.47l-0.35-0.16c-0.89-0.39-1.77-0.79-2.68-1.18l-0.94-0.41l-0.42-0.18
			c-0.94-0.41-1.88-0.82-2.84-1.23l-0.8-0.34l-0.44-0.19c-1.01-0.43-2.03-0.86-3.06-1.29l-0.6-0.25l-0.39-0.16
			c-0.88-0.37-1.77-0.74-2.67-1.11c-0.44-0.22-0.91-0.41-1.38-0.58l-0.22-0.08c-1.28-0.52-2.58-1.05-3.89-1.58
			c-1.43-0.57-2.88-1.15-4.36-1.73c-0.19-0.08-0.39-0.15-0.59-0.21l-15.25-5.17c-0.69-0.24-1.4-0.41-2.11-0.52l-13.75-4.84
			l-0.09-0.47c6.46,0.73,12.97,1.09,19.5,1.09c18.54,0,37.02-2.99,53.42-8.65c5.05-1.74,12.12-4.9,15.26-12.23
			c3.5-8.16,0.18-15.46-3.34-23.19c-5.48-12.04-14.66-32.2-10.81-73.25c0.29-3.08,0.58-6.14,0.87-9.17
			c2.76-28.79,5.37-55.98,2.24-83.52c-3.54-31.21-13.96-58.78-32.77-86.77c-17.32-25.77-41.28-44.23-71.22-54.87
			C445.12,122.48,424.61,121.58,416.88,121.57L416.88,121.57z"/>
	</g>
	<g class="st2">
		<circle class="st5" cx="373.85" cy="321.76" r="11.67"/>
		<circle class="st5" cx="455.72" cy="321.76" r="11.67"/>
		<path class="st5" d="M415,418.39c-20.67,0-31.13-16.81-31.57-17.52c-2.01-3.3-0.96-7.61,2.34-9.62c3.3-2.01,7.61-0.96,9.62,2.34
			c0.25,0.4,6.94,10.8,19.61,10.8c12.67,0,19.36-10.4,19.63-10.84c2.01-3.3,6.3-4.33,9.61-2.32c3.3,2.01,4.34,6.34,2.33,9.64
			C446.13,401.58,435.67,418.39,415,418.39z"/>
		<path class="st5" d="M622.95,564.13c-0.67-0.67-1.34-1.33-2.02-1.99c-0.22-0.22-0.45-0.43-0.67-0.65
			c-0.46-0.44-0.91-0.88-1.37-1.32c-0.28-0.27-0.57-0.53-0.85-0.79c-0.41-0.38-0.82-0.76-1.23-1.14c-0.31-0.29-0.63-0.57-0.94-0.85
			c-0.39-0.36-0.78-0.71-1.18-1.06c-0.33-0.29-0.66-0.58-0.99-0.88c-0.39-0.34-0.78-0.68-1.17-1.02c-0.34-0.3-0.69-0.59-1.04-0.89
			c-0.39-0.33-0.77-0.66-1.16-0.98c-0.36-0.3-0.72-0.6-1.09-0.9c-0.38-0.32-0.77-0.63-1.16-0.95c-0.38-0.3-0.75-0.61-1.13-0.91
			c-0.39-0.31-0.78-0.62-1.17-0.93c-0.39-0.31-0.78-0.61-1.18-0.92c-0.39-0.3-0.78-0.6-1.17-0.9c-0.41-0.31-0.81-0.62-1.22-0.92
			c-0.39-0.29-0.78-0.58-1.18-0.87c-0.42-0.31-0.85-0.63-1.28-0.94c-0.39-0.28-0.78-0.56-1.18-0.85c-0.44-0.32-0.88-0.63-1.33-0.95
			c-0.39-0.27-0.79-0.55-1.18-0.82c-0.46-0.32-0.93-0.64-1.4-0.96c-0.38-0.26-0.78-0.52-1.16-0.78c-0.49-0.33-0.98-0.66-1.48-0.99
			c-0.37-0.24-0.75-0.49-1.12-0.73c-0.53-0.35-1.06-0.69-1.6-1.04c-0.31-0.2-0.62-0.39-0.93-0.59c-2.32-1.46-4.71-2.92-7.19-4.38
			c-0.1-0.06-0.19-0.11-0.29-0.17c-0.69-0.4-1.4-0.81-2.11-1.21c-0.3-0.17-0.6-0.35-0.9-0.52c-0.66-0.38-1.34-0.75-2.02-1.13
			c-0.36-0.2-0.72-0.4-1.08-0.6c-0.66-0.36-1.34-0.73-2.01-1.09c-0.39-0.21-0.78-0.42-1.17-0.63c-0.67-0.36-1.36-0.72-2.04-1.08
			c-0.41-0.22-0.82-0.43-1.23-0.65c-0.69-0.36-1.38-0.71-2.08-1.07c-0.43-0.22-0.86-0.44-1.29-0.66c-0.7-0.35-1.41-0.71-2.13-1.06
			c-0.44-0.22-0.89-0.44-1.34-0.66c-0.73-0.36-1.46-0.71-2.2-1.07c-0.45-0.22-0.91-0.44-1.36-0.66c-0.75-0.36-1.5-0.72-2.27-1.08
			c-0.46-0.22-0.93-0.44-1.4-0.66c-0.78-0.36-1.56-0.73-2.35-1.09c-0.46-0.21-0.93-0.42-1.39-0.64c-0.82-0.37-1.64-0.74-2.47-1.12
			c-0.45-0.2-0.91-0.41-1.37-0.61c-0.86-0.38-1.73-0.77-2.61-1.15c-0.44-0.19-0.88-0.38-1.32-0.57c-0.92-0.4-1.84-0.8-2.77-1.2
			c-0.4-0.17-0.81-0.34-1.21-0.51c-0.99-0.42-1.98-0.84-2.99-1.27c-0.32-0.13-0.65-0.27-0.97-0.4c-1.11-0.46-2.23-0.93-3.37-1.4
			c0,0,0,0,0,0l0.01-0.02l-0.52-0.18c-0.01,0-0.02-0.01-0.02-0.01c-1.35-0.55-2.71-1.1-4.09-1.66c-1.41-0.57-2.83-1.13-4.28-1.7
			l-15.25-5.17c0,0,0,0.08,0.01,0.22l-23.14-8.14l-4.74-26.12c30.47,6.95,60.9,4.28,84.78-3.95c24.17-8.33-15.09-17.59-7.59-97.59
			c5.72-61.05,12.96-110.79-27.5-171c-40-59.51-108.15-58.58-114.57-58.35c-6.42-0.23-74.58-1.16-114.57,58.35
			c-32.23,47.96-34.19,89.28-30.77,134.96c0.04,0.7,0.1,1.41,0.16,2.13c0.86,10.99,2.01,22.24,3.1,33.91
			c7.5,80-41.57,89.26-17.41,97.59c24.59,8.48,59.54,11.08,93.72,3.32l-4.85,26.74l-23.14,8.14c0-0.14,0.01-0.22,0.01-0.22
			l-15.25,5.17c-1.45,0.57-2.87,1.14-4.28,1.7c-1.39,0.56-2.75,1.11-4.11,1.66c0,0,0,0-0.01,0l-0.52,0.18l0.01,0.03c0,0,0,0,0,0
			c-1.15,0.47-2.27,0.94-3.4,1.41c-0.31,0.13-0.63,0.26-0.94,0.39c-1.01,0.42-2.01,0.85-3,1.27c-0.4,0.17-0.81,0.34-1.21,0.51
			c-0.94,0.4-1.86,0.8-2.78,1.2c-0.44,0.19-0.88,0.38-1.31,0.57c-0.88,0.39-1.75,0.77-2.62,1.16c-0.45,0.2-0.91,0.4-1.36,0.61
			c-0.83,0.37-1.66,0.75-2.48,1.12c-0.46,0.21-0.93,0.42-1.39,0.63c-0.79,0.36-1.58,0.73-2.36,1.09c-0.47,0.22-0.93,0.44-1.39,0.65
			c-0.77,0.36-1.52,0.72-2.27,1.08c-0.45,0.22-0.9,0.43-1.35,0.65c-0.74,0.36-1.48,0.72-2.21,1.08c-0.44,0.22-0.88,0.44-1.32,0.65
			c-0.72,0.36-1.44,0.72-2.14,1.07c-0.43,0.22-0.85,0.43-1.28,0.65c-0.7,0.36-1.4,0.72-2.09,1.07c-0.41,0.21-0.82,0.43-1.23,0.64
			c-0.69,0.36-1.37,0.72-2.05,1.08c-0.39,0.21-0.77,0.42-1.16,0.62c-0.68,0.37-1.36,0.73-2.03,1.1c-0.36,0.2-0.71,0.39-1.06,0.59
			c-0.68,0.38-1.36,0.76-2.03,1.13c-0.3,0.17-0.59,0.34-0.89,0.51c-0.71,0.41-1.42,0.81-2.12,1.22c-0.09,0.05-0.18,0.11-0.27,0.16
			c-2.48,1.45-4.87,2.9-7.18,4.37c-0.32,0.2-0.65,0.41-0.97,0.61c-0.54,0.34-1.07,0.69-1.6,1.04c-0.37,0.24-0.75,0.48-1.11,0.72
			c-0.5,0.33-0.99,0.66-1.48,0.99c-0.39,0.26-0.78,0.52-1.16,0.78c-0.47,0.32-0.93,0.64-1.4,0.96c-0.39,0.27-0.79,0.54-1.18,0.82
			c-0.45,0.32-0.89,0.63-1.33,0.95c-0.4,0.28-0.79,0.56-1.18,0.85c-0.43,0.31-0.85,0.62-1.28,0.94c-0.39,0.29-0.79,0.58-1.18,0.87
			c-0.41,0.31-0.82,0.62-1.22,0.92c-0.39,0.3-0.79,0.6-1.18,0.9c-0.39,0.3-0.78,0.61-1.17,0.92c-0.39,0.31-0.78,0.62-1.17,0.92
			c-0.38,0.3-0.76,0.61-1.13,0.91c-0.39,0.32-0.77,0.63-1.16,0.95c-0.36,0.3-0.73,0.6-1.09,0.9c-0.39,0.33-0.78,0.66-1.16,0.98
			c-0.35,0.3-0.7,0.59-1.04,0.89c-0.39,0.34-0.78,0.68-1.17,1.02c-0.33,0.29-0.66,0.58-0.99,0.87c-0.4,0.36-0.8,0.72-1.19,1.07
			c-0.31,0.28-0.62,0.56-0.93,0.84c-0.42,0.38-0.83,0.77-1.24,1.15c-0.28,0.26-0.56,0.52-0.84,0.79c-0.46,0.44-0.92,0.88-1.37,1.32
			c-0.22,0.22-0.45,0.43-0.67,0.65c-0.68,0.66-1.35,1.32-2.02,1.99c-30.46,30.44-34.04,118.69-34.4,133.62h168.91h21.84v-80.18
			c13.69,2.7,31.48,4.97,52.58,4.97c21.1,0,38.89-2.27,52.58-4.97v80.18h21.67h169.08C656.99,682.82,653.41,594.57,622.95,564.13z
			 M338.27,597.54c-4.42,0-8-3.58-8-8s3.58-8,8-8s8,3.58,8,8S342.69,597.54,338.27,597.54z M466.6,571.46v25.65
			c-13,2.81-30.91,5.43-52.58,5.43c-21.67,0-39.59-2.62-52.58-5.43v-25.65c-25.24-12.08-34.86-34.62-38.5-51.26l38.58-13.57
			l10.01-55.2l-4.43-3.73c-23.87-20.09-35.71-45.99-38.83-63.52l-1.02-5.75l-5.51-1.93c-9.03-3.17-21.4-7.5-30.92-40.48
			c-1.67-5.87-2.95-13.78,0.4-18.16c3.39-4.44,10.98-4.51,11.11-4.51c0,0,0,0,0,0l11.78,0.23l-1.69-11.66
			c-0.72-4.96-1.32-9.77-1.82-14.43c18.26-2.27,72.46-8.51,114.79-8.51c16.13,0,33.07-34.15,39.02-47.36
			c12.14,25.79,10.56,48.19,10.56,48.19s15.22,1.39,42.63,6.79c-0.52,4.94-1.15,10.05-1.92,15.32l-1.6,11.55l11.67-0.12
			c0.05-0.02,7.72,0.05,11.13,4.51c3.35,4.38,2.06,12.3,0.41,18.12c-9.54,33.02-21.9,37.35-30.94,40.52l-5.51,1.93l-1.02,5.75
			c-3.12,17.53-14.96,43.43-38.83,63.52l-4.43,3.73l10.01,55.2l38.58,13.57C501.46,536.84,491.84,559.38,466.6,571.46z"/>
	</g>
</g>
<g id="_x34_9_x5F_テレワーク" class="st0">
	<g class="st2">
		<path class="st6" d="M312.4,49.44c-8.86,0-17.3,2.73-23.78,7.68L27.17,257.01c-12.15,9.29-11.33,18.44-9.76,23.07
			c1.57,4.63,6.48,12.4,21.77,12.4l52.84,0v269.38c0,18.2,14.8,33,33,33h262.54c-0.05,6.28,0.18,12.55,0.69,18.75
			c4.05,49.21,25.54,95.56,60.5,130.52c39.48,39.48,91.96,61.22,147.79,61.22c55.83,0,108.31-21.74,147.79-61.21
			c39.47-39.47,61.21-91.96,61.21-147.79c0-55.83-21.74-108.31-61.21-147.79c-35-35-81.4-56.49-130.67-60.51
			c-5.64-0.46-11.38-0.69-17.04-0.69c-21.84,0-43.23,3.33-63.81,9.93V292.49l52.84,0c15.29,0,20.2-7.77,21.77-12.4
			c1.57-4.63,2.38-13.79-9.76-23.07L336.19,57.13C329.71,52.17,321.26,49.44,312.4,49.44L312.4,49.44z"/>
	</g>
	<g class="st2">
		<path class="st5" d="M735.13,457.76c-32.82-32.82-76.34-52.97-122.53-56.75c-31.88-2.6-63.77,2.64-92.8,14.96V279.49l65.84,0
			c11,0,12.85-5.47,4.11-12.15L328.29,67.46c-8.74-6.68-23.04-6.68-31.78,0L35.07,267.34c-8.74,6.68-6.89,12.15,4.11,12.15l65.84,0
			v282.38c0,11,9,20,20,20h276.07c-0.76,10.17-0.73,20.43,0.11,30.69c3.8,46.14,23.95,89.61,56.74,122.4
			c37.02,37.02,86.24,57.41,138.59,57.41c52.35,0,101.57-20.39,138.59-57.41s57.41-86.24,57.41-138.59
			C792.53,544,772.15,494.78,735.13,457.76z M298.41,475.64h-73.48v-73.48h73.48V475.64z M298.41,374.16h-73.48v-73.48h73.48V374.16
			z M399.89,475.64h-73.48v-73.48h73.48V475.64z M399.89,374.16h-73.48v-73.48h73.48V374.16z M725.23,725.05
			c-34.38,34.38-80.08,53.31-128.69,53.31c-48.61,0-94.32-18.93-128.69-53.31c-62.61-62.61-71.23-160.59-20.5-232.98
			c1.37-1.96,1.65-4.47,0.74-6.68l-26.1-63.41l63.36,26.08c2.21,0.91,4.73,0.63,6.69-0.75c72.42-50.91,170.49-42.35,233.19,20.35
			c34.38,34.38,53.31,80.08,53.31,128.69C778.53,644.97,759.6,690.67,725.23,725.05z"/>
		<g>
			<circle class="st5" cx="635.5" cy="519.82" r="40.99"/>
			<path class="st5" d="M715.74,691.7l-22.61-93.48c-3.62-14.97-19.18-27.22-34.58-27.22h-19.69c-10.14,0-19.82,4.22-25.61,10.62
				c-0.27,0.27-0.52,0.54-0.74,0.82l-38.25,45.17c0,0-38.39,5.73-47.02,7.14c-8.63,1.41-13.79,8.55-13.79,14.82
				c0,6.75,5.95,14.05,14.42,14.05s57.96,0,57.96,0c9.38,0,16.71-5.26,20-9.5l12.42-13.63l12.32,51.2H715.74z"/>
			<path class="st5" d="M568.13,691.71h-83.24c-4.31,0-8.01-3.05-8.83-7.28l-16.2-83.24c-0.95-4.88,2.24-9.6,7.12-10.55
				c4.88-0.95,9.6,2.24,10.55,7.11l14.78,75.96h75.82c4.97,0,9,4.03,9,9S573.1,691.71,568.13,691.71z"/>
		</g>
	</g>
</g>
<g id="_x35_0_x5F_オフィスワーク" class="st0">
	<g class="st2">
		<path class="st6" d="M473.67,52.15H103.12c-18.2,0-33,14.8-33,33v476.71c0,18.2,14.8,33,33,33h284.26
			c-0.05,6.25,0.18,12.48,0.68,18.65c4.03,49.25,25.52,95.64,60.51,130.62c39.47,39.48,91.96,61.22,147.79,61.22
			c55.83,0,108.31-21.74,147.79-61.21c39.47-39.47,61.21-91.96,61.21-147.79c0-55.83-21.74-108.31-61.21-147.79
			c-34.99-34.99-81.38-56.48-130.62-60.51c-5.65-0.46-11.4-0.7-17.08-0.7c-31.22,0-61.85,6.93-89.77,20.18V85.15
			C506.67,66.95,491.86,52.15,473.67,52.15L473.67,52.15z"/>
	</g>
	<g class="st2">
		<path class="st5" d="M734.95,457.76c-32.81-32.81-76.31-52.96-122.49-56.75c-41.73-3.42-83.46,6.62-118.79,28.36V85.15
			c0-11-9-20-20-20H103.12c-11,0-20,9-20,20v476.71c0,11,9,20,20,20h124.9l0-86.94h53.37v86.94h14v-86.94h53.38l0,86.94h52.15
			c-0.75,10.14-0.73,20.36,0.1,30.59c3.78,46.18,23.94,89.68,56.75,122.49c37.02,37.02,86.24,57.41,138.59,57.41
			s101.57-20.39,138.59-57.41s57.41-86.24,57.41-138.59C792.36,544,771.97,494.78,734.95,457.76z M220.62,400.41h-79.55v-47.9h79.55
			V400.41z M220.62,324.51h-79.55v-47.9h79.55V324.51z M220.62,248.61h-79.55v-47.9h79.55V248.61z M220.62,172.72h-79.55v-47.9
			h79.55V172.72z M328.16,400.41h-79.55v-47.9h79.55V400.41z M328.16,324.51h-79.55v-47.9h79.55V324.51z M328.16,248.61h-79.55
			v-47.9h79.55V248.61z M328.16,172.72h-79.55v-47.9h79.55V172.72z M356.16,124.82h79.55v47.9h-79.55V124.82z M356.16,200.72h79.55
			v47.9h-79.55V200.72z M356.16,276.61h79.55v47.9h-79.55V276.61z M356.16,400.41v-47.9h79.55v47.9H356.16z M725.05,725.05
			c-34.38,34.38-80.08,53.31-128.69,53.31s-94.32-18.93-128.69-53.31c-62.67-62.67-71.25-160.72-20.39-233.13
			c1.37-1.96,1.65-4.48,0.74-6.69l-26.03-63.25l63.25,26.03c2.21,0.91,4.73,0.63,6.69-0.74c72.41-50.86,170.46-42.28,233.13,20.39
			c34.38,34.38,53.31,80.08,53.31,128.69C778.36,644.97,759.43,690.67,725.05,725.05z"/>
		<g>
			<circle class="st5" cx="643.58" cy="523.82" r="40.99"/>
			<path class="st5" d="M656.08,575h-25c-26.42,0-48.98,17.32-56.93,41.16l10.71,46.39c0.15,0.39,0.92,1.01,1.29,1.06h44.54
				c10.48,0,19,8.52,19,19.01c0,3.25-0.82,6.32-2.27,9h68.66V635C716.08,602,689.08,575,656.08,575z"/>
			<path class="st5" d="M549.03,590.79c4.95,0,9.91,3.95,11.02,8.77l15.07,65.29c1.11,4.82,6.07,8.77,11.02,8.77h44.54
				c4.95,0,9,4.05,9,9v0.01c0,4.95-4.05,9-9,9H481.19c-4.95,0-9.92-3.94-11.04-8.77l-19.36-83.3c-1.12-4.82,2.01-8.77,6.96-8.77
				H549.03"/>
		</g>
	</g>
</g>
<g id="_x35_1_x5F_POSレジ" class="st0">
	<path class="st4" d="M652.54,90.49H421.2c-18.2,0-33,14.8-33,33v60c0,18.2,14.8,33,33,33h79.97v12.63H421.2c-18.2,0-33,14.8-33,33
		v11.33H177.46c-18.2,0-33,14.8-33,33v158.72l-39.04,64.12c-7.01,11.51-12.3,30.36-12.3,43.84v33v14v19.52c0,0.02,0,0.05,0,0.07
		v65.05c0,18.2,14.8,33,33,33h577.76c18.2,0,33-14.8,33-33l0-84.65v-14l0-33c0-13.48-5.29-32.33-12.3-43.84l-39.05-64.12V262.13
		c0-18.2-14.8-33-33-33h-79.97v-12.63h79.97c18.2,0,33-14.8,33-33v-60C685.54,105.3,670.73,90.49,652.54,90.49L652.54,90.49z"/>
	<g class="st2">
		<path class="st5" d="M723.88,573.15c0-11-4.68-27.69-10.4-37.08l-40.94-67.24v-206.7c0-11-9-20-20-20h-92.97v-38.63h92.97
			c11,0,20-9,20-20v-60c0-11-9-20-20-20H421.2c-11,0-20,9-20,20v60c0,11,9,20,20,20h92.97v38.63H421.2c-11,0-20,9-20,20v24.33
			H177.46c-11,0-20,9-20,20v162.36l-40.94,67.24c-5.72,9.4-10.4,26.08-10.4,37.08v33.5h617.76L723.88,573.15z M373.6,402.84h-90v-20
			h90V402.84z M373.6,362.84h-90v-20h90V362.84z M424.34,179.89V127.1H649.4v52.79H424.34z M424.34,265.26H649.4v137.58
			l-225.07-0.03V265.26z M635.86,486.48h-52.23l-6.42-16.85h49.74L635.86,486.48z M572.93,486.48h-47.08l-4.15-16.85h44.82
			L572.93,486.48z M469.52,469.63h41.88l4.15,16.85h-44.01L469.52,469.63z M472.74,496.48h45.28l4.15,16.85h-47.41L472.74,496.48z
			 M477.99,540.18l-2.02-16.85h48.67l4.15,16.85H477.99z M528.32,496.48h48.42l6.42,16.85h-50.69L528.32,496.48z M539.09,540.18
			l-4.15-16.85h52.03l6.42,16.85H539.09z M587.44,496.48h53.7l8.9,16.85h-56.19L587.44,496.48z M604.09,540.18l-6.42-16.85h57.66
			l8.9,16.85H604.09z"/>
		<path class="st5" d="M723.88,619.65H106.12v40.09c0,0,0,0,0,0v45.05c0,11,9,20,20,20h577.76c11,0,20-9,20-20L723.88,619.65z
			 M426,683.27h-22v-22h22V683.27z"/>
	</g>
</g>
<g id="_x35_2_x5F_決裁端末_xFF08_ハンディーPOS_x3001_Wi-Fi端末_xFF09_" class="st0">
	<path class="st4" d="M579.5,106.31h-329c-18.2,0-33,14.8-33,33v248c0,13,4.7,32.21,10.7,43.74l35.53,68.24
		c4.14,7.95,7.77,22.78,7.77,31.74v176c0,18.2,14.8,33,33,33h221c18.2,0,33-14.8,33-33v-176c0-8.96,3.63-23.79,7.77-31.74
		l35.53-68.24c6-11.53,10.7-30.74,10.7-43.74v-248C612.5,121.11,597.69,106.31,579.5,106.31L579.5,106.31z"/>
	<path class="st7" d="M579.5,119.31h-329c-11,0-20,9-20,20v248c0,11,4.16,27.98,9.24,37.74l35.53,68.24
		c5.08,9.76,9.24,26.74,9.24,37.74v176c0,11,9,20,20,20h221c11,0,20-9,20-20v-176c0-11,4.16-27.98,9.24-37.74l35.53-68.24
		c5.08-9.76,9.24-26.74,9.24-37.74v-248C599.5,128.31,590.5,119.31,579.5,119.31z M496.77,680.72H333.23v0h5.49v-33.87h43.52v33.87
		h10.99v-33.87h43.52v33.87h10.99v-33.87h43.52v33.87L496.77,680.72L496.77,680.72z M333.23,523.28L333.23,523.28L333.23,523.28
		L333.23,523.28L333.23,523.28z M447.75,596.5v-28.37h43.52v28.37H447.75z M491.27,607.49v28.37h-43.52v-28.37H491.27z
		 M447.75,557.14v-28.37h43.52v28.37H447.75z M448.3,473.48l-66.6,0v-34.74l66.6,0V473.48z M393.24,596.5v-28.37h43.52v28.37H393.24
		z M436.76,607.49v28.37h-43.52v-28.37H436.76z M393.24,557.14v-28.37h43.52v28.37H393.24z M382.25,528.77v28.37h-43.52v-28.37
		H382.25z M382.25,568.13v28.37h-43.52v-28.37H382.25z M382.25,607.49v28.37h-43.52v-28.37H382.25z M496.77,523.28L496.77,523.28
		L496.77,523.28L496.77,523.28L496.77,523.28z M545.5,389.31h-261v-216h261V389.31z"/>
</g>
<g id="_x35_3_x5F_ファイルサーバー_xFF08_NAS_xFF09_" class="st0">
	<path class="st4" d="M415,69.85c-68.79,0-131.59,9.51-176.81,26.78c-23.34,8.92-41.74,19.71-54.67,32.1
		c-14.71,14.08-22.17,29.87-22.17,46.92c0,14.56,0.06,501.66,0.06,501.66c0,3.21,1.19,6.31,3.34,8.7
		c6.18,6.86,24.76,24.56,63.85,40.74c49.2,20.36,111.87,30.7,186.27,30.72c0.01,0,0.02,0,0.03,0h0.1h0h0.1c0.01,0,0.02,0,0.03,0
		c74.4-0.02,137.07-10.36,186.27-30.72c39.09-16.18,57.68-33.88,63.85-40.74c2.15-2.39,3.34-5.48,3.34-8.7
		c0,0,0.06-487.1,0.06-501.66c0-17.05-7.46-32.84-22.17-46.92c-12.93-12.38-31.32-23.18-54.67-32.1
		C546.59,79.36,483.79,69.85,415,69.85L415,69.85z"/>
	<g class="st2">
		<ellipse class="st5" cx="415" cy="158.38" rx="231.15" ry="75.53"/>
		<g>
			<rect x="351.94" y="470.49" class="st5" width="126.13" height="14"/>
			<rect x="351.94" y="512.11" class="st5" width="126.13" height="14"/>
			<path class="st5" d="M415,247.91c-121.23,0-219.17-30.6-240.64-72.26l0.06,501.65c9.26,10.28,68.34,67.16,240.68,67.16
				c172.23,0,231.37-56.8,240.72-67.16V175.22C634.8,217.09,536.64,247.91,415,247.91z M438.15,351.62l66.91,66.91h-66.91V351.62z
				 M514.97,584.55H315.03V341.72h109.12v90.81h90.81V584.55z"/>
		</g>
	</g>
</g>
<g id="_x35_4_x5F_インターネット網" class="st0">
	<path class="st4" d="M415,118.5c-40.02,0-78.85,7.84-115.42,23.31c-35.31,14.93-67.02,36.31-94.24,63.54
		c-27.23,27.23-48.6,58.93-63.54,94.24C126.34,336.15,118.5,374.98,118.5,415s7.84,78.85,23.31,115.42
		c14.93,35.31,36.31,67.02,63.54,94.24c27.23,27.23,58.93,48.6,94.24,63.54c36.56,15.46,75.39,23.31,115.42,23.31
		s78.85-7.84,115.42-23.31c35.31-14.93,67.02-36.31,94.24-63.54c27.23-27.23,48.6-58.93,63.54-94.24
		c15.46-36.56,23.31-75.39,23.31-115.42s-7.84-78.85-23.31-115.42c-14.93-35.31-36.31-67.02-63.54-94.24
		c-27.23-27.23-58.93-48.6-94.24-63.54C493.85,126.34,455.02,118.5,415,118.5L415,118.5z"/>
	<g class="st2">
		<path class="st5" d="M264.22,408.5H408.5V285.18c-38.22-0.52-75.71-5.67-112.08-15.36C276.52,312.6,265.15,359.42,264.22,408.5z"
			/>
		<path class="st5" d="M296.42,560.18c36.37-9.69,73.86-14.83,112.08-15.36V421.5H264.22C265.15,470.58,276.52,517.4,296.42,560.18z
			"/>
		<path class="st5" d="M407.3,698.39c0.4,0.01,0.8,0.02,1.2,0.02V557.82c-36.63,0.52-72.21,5.48-106.23,14.35
			C327.13,620.77,363.14,663.75,407.3,698.39z"/>
		<path class="st5" d="M540.61,254.26c28.4-8.33,55.63-19.42,81.4-32.93c-45.26-48.35-107.25-80.84-176.74-88.22
			c2.93,2.51,5.84,5.06,8.7,7.66C490.34,173.83,519.44,211.98,540.61,254.26z"/>
		<path class="st5" d="M302.27,257.83c34.02,8.87,69.6,13.82,106.23,14.35V131.58c-0.4,0.01-0.8,0.01-1.2,0.02
			C363.14,166.25,327.13,209.23,302.27,257.83z"/>
		<path class="st5" d="M565.78,421.5H421.5v123.32c38.22,0.52,75.71,5.67,112.08,15.36C553.48,517.4,564.85,470.58,565.78,421.5z"/>
		<path class="st5" d="M698.5,415c0,0,0-0.01,0-0.01v0.03C698.5,415.01,698.5,415,698.5,415z"/>
		<path class="st5" d="M546.34,266.22c20.66,45.19,31.56,93.01,32.44,142.28h119.63c-1.52-67.47-26.61-129.12-67.37-177.04
			c-12.01,6.39-24.34,12.27-36.96,17.6C578.43,255.69,562.51,261.41,546.34,266.22z"/>
		<path class="st5" d="M289.39,254.26c21.17-42.28,50.28-80.42,86.65-113.49c2.86-2.6,5.77-5.14,8.7-7.66
			c-69.5,7.38-131.49,39.86-176.75,88.22C233.76,234.84,260.99,245.93,289.39,254.26z"/>
		<path class="st5" d="M540.61,575.74c-21.17,42.28-50.28,80.42-86.65,113.49c-2.86,2.6-5.77,5.14-8.7,7.66
			c69.5-7.38,131.49-39.86,176.75-88.22C596.24,595.16,569.01,584.07,540.61,575.74z"/>
		<path class="st5" d="M527.73,572.17c-34.02-8.87-69.6-13.82-106.23-14.35v140.59c0.4-0.01,0.8-0.01,1.2-0.02
			C466.86,663.75,502.87,620.77,527.73,572.17z"/>
		<path class="st5" d="M578.78,421.5c-0.88,49.27-11.78,97.09-32.44,142.28c16.16,4.81,32.09,10.53,47.75,17.15
			c12.62,5.34,24.94,11.22,36.96,17.6c40.75-47.92,65.85-109.57,67.37-177.04H578.78z"/>
		<path class="st5" d="M384.74,696.89c-2.93-2.51-5.84-5.06-8.7-7.66c-36.38-33.07-65.48-71.21-86.65-113.49
			c-28.4,8.33-55.63,19.42-81.4,32.93C253.25,657.03,315.24,689.51,384.74,696.89z"/>
		<path class="st5" d="M421.5,272.17c36.63-0.52,72.21-5.48,106.23-14.35c-24.86-48.6-60.87-91.58-105.03-126.22
			c-0.4-0.01-0.8-0.02-1.2-0.02V272.17z"/>
		<path class="st5" d="M283.66,563.78C263,518.59,252.1,470.77,251.22,421.5H131.58c1.52,67.47,26.61,129.12,67.37,177.04
			c12.01-6.39,24.33-12.27,36.96-17.6C251.57,574.31,267.49,568.59,283.66,563.78z"/>
		<path class="st5" d="M533.58,269.82c-36.37,9.69-73.86,14.83-112.08,15.36V408.5h144.28C564.85,359.42,553.48,312.6,533.58,269.82
			z"/>
		<path class="st5" d="M251.22,408.5c0.88-49.27,11.78-97.09,32.44-142.28c-16.16-4.81-32.09-10.53-47.75-17.15
			c-12.62-5.34-24.94-11.22-36.96-17.6c-40.75,47.92-65.85,109.57-67.37,177.04H251.22z"/>
	</g>
</g>
<g id="_x35_5_x5F_一般ルーター">
	<path class="st6" d="M415,136.48c-59.53,0-116.61,11.37-165.08,32.88c-23.6,10.47-44.5,23.09-62.14,37.49
		c-18.15,14.82-32.49,31.27-42.62,48.88c-8.28,14.38-27.65,48.05-27.65,92.5v180.5c0,0.7,0.06,1.4,0.17,2.1
		c2.53,15.47,7.97,27.21,12.42,35.71l0,0c0.98,1.7,19.65,33.1,65.17,64.26c25.97,17.78,55.51,31.92,87.8,42.04
		c40.02,12.54,84.41,18.9,131.93,18.9c47.5,0,91.88-6.36,131.9-18.9c32.28-10.12,61.83-24.26,87.8-42.04
		c46.44-31.78,65.07-63.98,65.23-64.28c4.41-8.41,9.8-20.04,12.35-35.36c0.15-0.79,0.23-1.6,0.23-2.41l-0.01-180.5
		c0-44.45-19.38-78.12-27.65-92.5c-10.14-17.61-24.48-34.06-42.62-48.88c-17.63-14.41-38.54-27.02-62.14-37.49
		C531.61,147.85,474.52,136.48,415,136.48L415,136.48z"/>
	<g>
		<path class="st8" d="M415,501.93c-143.79,0-262.98-67.33-284.49-154.94v181.77c2.23,13.62,7.09,24.11,11.1,31.77
			c0.62,1.19,70.94,118.23,273.39,118.23c202.37,0,272.78-117.05,273.4-118.23c4.01-7.66,8.88-18.14,11.1-31.77V346.95
			C678.01,434.59,558.81,501.93,415,501.93z"/>
		<path class="st8" d="M415,149.47c-151.24,0-274.29,75.92-274.29,169.23S263.76,487.93,415,487.93s274.29-75.92,274.29-169.23
			S566.24,149.47,415,149.47z M216.63,285.29l9.75-25.43l88.25,16.53l11.28-29.42l62.38,57.13l-94.89,27.67l11.48-29.95
			L216.63,285.29z M481.22,439.97l-36.38,6.81l-23.65-61.69l-42.85,8.02l39.59-66.32l81.73,43.6l-42.09,7.88L481.22,439.97z
			 M544.67,279.57l-31.09-21.73l-65.31,45.65l-26.63-18.61l65.31-45.65l-31.09-21.73l101.97-9.2L544.67,279.57z"/>
	</g>
</g>
<g id="_x35_6_x5F_一般L3スイッチ" class="st0">
	<path class="st4" d="M400.94,81.07c-2.61,0-5.21,0.78-7.45,2.34L71.82,308.25c-3.48,2.43-5.55,6.41-5.55,10.66v179.42
		c0,4.24,2.07,8.22,5.55,10.65l322,225.23c2.24,1.56,4.84,2.35,7.45,2.35c2.62,0,5.23-0.79,7.47-2.36l142.64-100.18
		c19.47,56.6,73.24,95.95,134.43,95.95c78.4,0,142.19-63.79,142.19-142.19c0-31.2-9.97-60.84-28.82-85.69
		c-16.24-21.4-38.54-37.99-63.54-47.41V318.93c0-4.25-2.07-8.22-5.55-10.66L408.39,83.42C406.15,81.86,403.55,81.07,400.94,81.07
		L400.94,81.07z"/>
	<g class="st2">
		<polygon class="st8" points="79.27,498.32 393.98,718.45 393.98,548.63 79.27,328.51 		"/>
		<path class="st8" d="M400.94,94.07L84.45,315.28l316.5,221.22l316.48-221.21L400.94,94.07z M202.84,320.72l152.39-106.51
			l-28.28-19.76l94.78-8.55l-12.23,66.24l-28.28-19.77L228.83,338.89L202.84,320.72z M310.23,320.99l28.28,19.76l152.38-106.51
			l25.99,18.17L364.5,358.92l28.28,19.77L298,387.24L310.23,320.99z M545.54,347.24L393.16,453.75l-25.99-18.17l152.39-106.51
			l-28.28-19.76l94.77-8.55L573.82,367L545.54,347.24z"/>
		<g>
			<g>
				<path class="st8" d="M631.84,539.93h19.38v82.03h24.41v17.02h-43.8V539.93z"/>
				<path class="st8" d="M689.84,613.86v-4.46l18.83-2.23v5.86c0,9.9,2.66,13.39,8.09,13.39c5.16,0,7.67-3.76,7.67-12.27v-4.33
					c0-9.48-2.93-13.53-9.9-13.53h-3.36v-14.65h3.36c6.42,0,9.35-4.46,9.35-13.39v-3.49c0-7.53-2.66-10.32-7.4-10.32
					c-5.15,0-7.53,3.35-7.53,12.27v6.97l-18.98-2.51v-4.88c0-17.99,9.91-26.37,26.79-26.37c16.47,0,26.08,7.39,26.08,23.86v3.63
					c0,10.32-4.6,18.69-14.23,21.07c10.33,1.39,14.93,9.62,14.93,20.5v5.3c0,17.57-9.48,26.79-26.5,26.79
					C699.05,641.07,689.84,633.26,689.84,613.86z"/>
			</g>
		</g>
		<path class="st8" d="M722.63,464.01v-135.5L407.92,548.63v169.81l151.16-105.73c11.66,59.34,64.02,104.25,126.72,104.25
			c71.23,0,129.19-57.95,129.19-129.19C815,529.34,775.97,479.91,722.63,464.01z M685.81,695.06
			c-59.25,0-107.28-48.03-107.28-107.28c0-59.25,48.03-107.28,107.28-107.28c59.25,0,107.28,48.03,107.28,107.28
			C793.09,647.03,745.06,695.06,685.81,695.06z"/>
	</g>
</g>
<g id="_x35_7_x5F_一般L2スイッチ" class="st0">
	<path class="st4" d="M400.94,81.07c-2.61,0-5.21,0.78-7.45,2.34L71.82,308.25c-3.48,2.43-5.55,6.41-5.55,10.66v179.42
		c0,4.24,2.07,8.22,5.55,10.65l322,225.23c2.24,1.56,4.84,2.35,7.45,2.35c2.62,0,5.23-0.79,7.47-2.36l142.64-100.18
		c19.47,56.6,73.24,95.95,134.43,95.95c78.4,0,142.19-63.79,142.19-142.19c0-31.2-9.97-60.84-28.82-85.69
		c-16.24-21.4-38.54-37.99-63.54-47.41V318.93c0-4.25-2.07-8.22-5.55-10.66L408.39,83.42C406.15,81.86,403.55,81.07,400.94,81.07
		L400.94,81.07z"/>
	<g class="st2">
		<path class="st8" d="M400.94,94.07L84.45,315.28l316.5,221.22l316.48-221.21L400.94,94.07z M234.11,342.67l152.38-106.51
			l-28.28-19.76l94.78-8.55l-12.23,66.25l-28.28-19.77L260.1,360.83L234.11,342.67z M344.74,420.2l12.23-66.24l28.28,19.76
			l152.39-106.51l25.99,18.17L411.23,391.88l28.28,19.77L344.74,420.2z"/>
		<g>
			<g>
				<path class="st8" d="M631.69,539.93h19.38v82.03h24.41v17.02h-43.8V539.93z"/>
				<path class="st8" d="M689.97,625.03c12.27-14.37,19.67-23.58,25.52-32.65c5.73-8.78,8.24-16.18,8.24-24.97v-2.94
					c0-6.83-2.51-9.76-7.4-9.76c-4.74,0-7.39,3.49-7.39,10.61v9.76l-18.97-2.37v-7.12c0-16.18,10.18-25.67,27.06-25.67
					c17.44,0,26.37,6.97,26.37,24.13v3.77c0,9.2-3.48,18.27-10.05,28.31c-5.15,8.24-11.16,15.35-21.9,27.63h32.23v15.2h-53.71
					V625.03z"/>
			</g>
		</g>
		<polygon class="st8" points="79.27,498.32 393.98,718.45 393.98,548.63 79.27,328.51 		"/>
		<path class="st8" d="M722.63,464.01v-135.5L407.92,548.63v169.81l151.16-105.73c11.66,59.34,64.02,104.25,126.72,104.25
			c71.23,0,129.19-57.95,129.19-129.19C815,529.34,775.97,479.91,722.63,464.01z M685.81,695.06
			c-59.25,0-107.28-48.03-107.28-107.28c0-59.25,48.03-107.28,107.28-107.28c59.25,0,107.28,48.03,107.28,107.28
			C793.09,647.03,745.06,695.06,685.81,695.06z"/>
	</g>
</g>
<g id="_x35_4_x5F_一般AP" class="st0">
	<path class="st4" d="M417.33,79.92c-2.61,0-5.21,0.78-7.45,2.34L86.92,307.99c-3.48,2.43-5.55,6.41-5.55,10.66v180.14
		c0,4.24,2.07,8.22,5.55,10.65L407.2,733.46c2.42,2.77,5.95,4.45,9.79,4.45h0.66c3.84,0,7.38-1.68,9.79-4.45l320.29-224.03
		c3.48-2.43,5.55-6.41,5.55-10.65V318.65c0-4.25-2.07-8.22-5.55-10.66L424.78,82.26C422.54,80.7,419.93,79.92,417.33,79.92
		L417.33,79.92z"/>
	<g class="st2">
		<polygon class="st8" points="94.34,498.82 410.34,719.84 410.34,549.34 94.34,328.32 		"/>
		<polygon class="st8" points="424.34,549.34 424.34,719.84 740.34,498.82 740.34,328.32 		"/>
		<path class="st8" d="M417.33,92.92L99.54,315.03l317.79,222.12l317.77-222.11L417.33,92.92z M350.45,386.6
			c-14.87,0-26.89-8.41-26.89-18.81c0-10.38,12.02-18.81,26.89-18.81c14.89,0,26.93,8.43,26.93,18.81
			C377.37,378.18,365.34,386.6,350.45,386.6z M414.42,367.78c0-11.93-6.64-23.14-18.71-31.58c-0.01-0.01-0.01-0.01-0.02-0.01
			c-0.01-0.01-0.01-0.01-0.02-0.01c-12.07-8.44-28.12-13.09-45.2-13.09c0,0-0.01,0-0.01,0l0-21.24c0.01,0,0.01,0,0.02,0
			c25.18,0.01,48.87,6.87,66.68,19.32c0.02,0.01,0.02,0.01,0.04,0.03c17.81,12.45,27.61,28.99,27.61,46.6L414.42,367.78z
			 M477.71,367.78c0-23.76-13.23-46.09-37.26-62.89c-24.81-17.34-57.41-26.01-90-26.01v-21.23c40.37,0,80.75,10.74,111.49,32.22
			c29.77,20.82,46.16,48.48,46.17,77.91L477.71,367.78z M484.79,273.95c-0.02-0.01-0.02-0.01-0.04-0.03
			c-0.01-0.01-0.03-0.02-0.04-0.03c-35.87-25.07-83.54-38.88-134.26-38.89v-21.23c58.83,0,114.14,16.02,155.75,45.1
			c0.04,0.03,0.04,0.03,0.08,0.06c41.59,29.07,64.5,67.73,64.52,108.85l-30.39,0C540.4,332.33,520.64,299.01,484.79,273.95z"/>
	</g>
</g>
<g id="_x35_5_x5F_横置きONU" class="st0">
	<path class="st4" d="M380.2,107.06c-2.61,0-5.21,0.78-7.45,2.34L87.09,309.05c-3.78,2.64-5.72,6.93-5.54,11.22v148.65
		c0,4.25,2.08,8.23,5.57,10.66l351.26,244.9c2.23,1.56,4.83,2.34,7.43,2.34c2.61,0,5.21-0.78,7.45-2.34l285.66-199.65
		c2.83-1.98,4.75-5,5.35-8.39c0.16-0.93,0.23-1.86,0.19-2.79V364.95c0-4.25-2.08-8.23-5.57-10.66l-351.26-244.9
		C385.4,107.84,382.8,107.06,380.2,107.06L380.2,107.06z"/>
	<g class="st2">
		<polygon class="st5" points="99.4,316.31 446.02,557.82 726.82,361.57 380.2,120.06 		"/>
		<polygon class="st5" points="452.53,569.13 452.53,709.42 731.68,514.17 731.68,373.88 		"/>
		<path class="st5" d="M94.55,328.62v140.31l344.98,240.52V569.14L94.55,328.62z M162.53,475.03l-17.8-12.42v-58.14h0.42
			l17.38,12.12V475.03z M205.3,504.86l-17.8-12.42v-58.12h0.44l17.36,12.11V504.86z M236.38,512.25l-0.24-29.57l26.05,18.24
			l0.24,29.57L236.38,512.25z"/>
	</g>
</g>
</svg>
